G04 Layer_Color=65535*
%FSLAX25Y25*%
%MOIN*%
G70*
G01*
G75*
%ADD32C,0.00984*%
%ADD33C,0.00787*%
%ADD34C,0.02362*%
%ADD35C,0.01000*%
%ADD36C,0.01181*%
D32*
X121539Y121153D02*
G03*
X121539Y121153I-492J0D01*
G01*
X95870Y91496D02*
G03*
X95870Y91496I-492J0D01*
G01*
D33*
X147577Y106968D02*
G03*
X147577Y106968I-4259J0D01*
G01*
X3819Y173500D02*
X23819D01*
X3819Y3500D02*
X23819D01*
X3819D02*
Y173500D01*
X23819Y3500D02*
Y173500D01*
X183819D02*
X203819D01*
X183819Y3500D02*
X203819D01*
X183819D02*
Y173500D01*
X203819Y3500D02*
Y173500D01*
X83811Y107748D02*
Y110307D01*
X80071Y104008D02*
X83811Y107748D01*
X80071Y129992D02*
X83811Y126252D01*
Y123693D02*
Y126252D01*
X57827Y104008D02*
X80071D01*
X57827D02*
Y110307D01*
Y123693D02*
Y129992D01*
X80071D01*
X100299Y54980D02*
Y90020D01*
X135339Y54980D02*
Y90020D01*
X100299D02*
X135339D01*
X100299Y54980D02*
X135339D01*
X122909Y25815D02*
Y26209D01*
X125665Y25815D02*
Y26209D01*
X133728Y25791D02*
Y26185D01*
X130972Y25791D02*
Y26185D01*
X114909Y108815D02*
Y109209D01*
X117665Y108815D02*
Y109209D01*
X164634Y69410D02*
X165028D01*
X164634Y66654D02*
X165028D01*
X108228Y25291D02*
Y25685D01*
X105472Y25291D02*
Y25685D01*
X170409Y80315D02*
Y80709D01*
X173165Y80315D02*
Y80709D01*
X173228Y95791D02*
Y96185D01*
X170472Y95791D02*
Y96185D01*
X158134Y106910D02*
X158528D01*
X158134Y104154D02*
X158528D01*
X158134Y114910D02*
X158528D01*
X158134Y112153D02*
X158528D01*
X114409Y33059D02*
Y33453D01*
X117165Y33059D02*
Y33453D01*
X99228Y25291D02*
Y25685D01*
X96472Y25291D02*
Y25685D01*
X87472Y25291D02*
Y25685D01*
X90228Y25291D02*
Y25685D01*
X85319Y21000D02*
Y29500D01*
X85819Y30000D01*
X92319Y21000D02*
Y29500D01*
X91819Y30000D02*
X92319Y29500D01*
D34*
X105417Y86083D02*
G03*
X105417Y86083I-1181J0D01*
G01*
D35*
X146626Y141264D02*
X148201Y139689D01*
X158437D02*
X160012Y141264D01*
X148201Y139689D02*
X158437D01*
X146626Y163508D02*
X160012D01*
Y141264D02*
Y163508D01*
X146626Y141264D02*
Y163508D01*
X130126Y141264D02*
X131701Y139689D01*
X141937D02*
X143512Y141264D01*
X131701Y139689D02*
X141937D01*
X130126Y163508D02*
X143512D01*
Y141264D02*
Y163508D01*
X130126Y141264D02*
Y163508D01*
X140169Y106968D02*
X146468D01*
X82055Y62807D02*
X83630Y64382D01*
X82055Y76193D02*
X83630Y74618D01*
Y64382D02*
Y74618D01*
X59811Y62807D02*
Y76193D01*
X82055D01*
X59811Y62807D02*
X82055D01*
X64567Y22047D02*
Y28045D01*
X67566D01*
X68566Y27046D01*
Y25046D01*
X67566Y24047D01*
X64567D01*
X70565Y28045D02*
Y22047D01*
X72564Y24047D01*
X74564Y22047D01*
Y28045D01*
X76563Y22047D02*
Y28045D01*
X79562D01*
X80562Y27046D01*
Y25046D01*
X79562Y24047D01*
X76563D01*
X78562D02*
X80562Y22047D01*
X142819Y34500D02*
Y40498D01*
X145818D01*
X146818Y39498D01*
Y37499D01*
X145818Y36499D01*
X142819D01*
X144818D02*
X146818Y34500D01*
X152816Y40498D02*
X148817D01*
Y34500D01*
X152816D01*
X148817Y37499D02*
X150816D01*
X158814Y39498D02*
X157814Y40498D01*
X155815D01*
X154815Y39498D01*
Y38499D01*
X155815Y37499D01*
X157814D01*
X158814Y36499D01*
Y35500D01*
X157814Y34500D01*
X155815D01*
X154815Y35500D01*
X164812Y40498D02*
X160813D01*
Y34500D01*
X164812D01*
X160813Y37499D02*
X162812D01*
X166811Y40498D02*
X170810D01*
X168810D01*
Y34500D01*
X66203Y11116D02*
Y5118D01*
X63204D01*
X62205Y6118D01*
Y8117D01*
X63204Y9117D01*
X66203D01*
X68203Y5118D02*
X71202D01*
X72202Y6118D01*
X71202Y7118D01*
X69203D01*
X68203Y8117D01*
X69203Y9117D01*
X72202D01*
X74201Y5118D02*
Y11116D01*
X77200D01*
X78199Y10116D01*
Y8117D01*
X77200Y7118D01*
X74201D01*
X80199Y11116D02*
X82198D01*
X81199D01*
Y5118D01*
X80199D01*
X82198D01*
X89196Y10116D02*
X88196Y11116D01*
X86197D01*
X85197Y10116D01*
Y6118D01*
X86197Y5118D01*
X88196D01*
X89196Y6118D01*
X91195Y10116D02*
X92195Y11116D01*
X94194D01*
X95194Y10116D01*
Y9117D01*
X94194Y8117D01*
X93195D01*
X94194D01*
X95194Y7118D01*
Y6118D01*
X94194Y5118D01*
X92195D01*
X91195Y6118D01*
X97193Y10116D02*
X98193Y11116D01*
X100192D01*
X101192Y10116D01*
Y9117D01*
X100192Y8117D01*
X99193D01*
X100192D01*
X101192Y7118D01*
Y6118D01*
X100192Y5118D01*
X98193D01*
X97193Y6118D01*
X107190Y11116D02*
X103191D01*
Y8117D01*
X105191D01*
X103191D01*
Y5118D01*
X113188Y11116D02*
X111189D01*
X112189D01*
Y6118D01*
X111189Y5118D01*
X110189D01*
X109189Y6118D01*
X115188Y5118D02*
X117187D01*
X116187D01*
Y11116D01*
X115188Y10116D01*
X124185Y5118D02*
X120186D01*
X124185Y9117D01*
Y10116D01*
X123185Y11116D01*
X121186D01*
X120186Y10116D01*
X126184D02*
X127184Y11116D01*
X129183D01*
X130183Y10116D01*
Y9117D01*
X129183Y8117D01*
X130183Y7118D01*
Y6118D01*
X129183Y5118D01*
X127184D01*
X126184Y6118D01*
Y7118D01*
X127184Y8117D01*
X126184Y9117D01*
Y10116D01*
X127184Y8117D02*
X129183D01*
X136181Y10116D02*
X135181Y11116D01*
X133182D01*
X132182Y10116D01*
Y6118D01*
X133182Y5118D01*
X135181D01*
X136181Y6118D01*
Y8117D01*
X134181D01*
X138180Y5118D02*
Y11116D01*
X141179D01*
X142179Y10116D01*
Y8117D01*
X141179Y7118D01*
X138180D01*
X144178Y10116D02*
X145178Y11116D01*
X147177D01*
X148177Y10116D01*
Y9117D01*
X147177Y8117D01*
X148177Y7118D01*
Y6118D01*
X147177Y5118D01*
X145178D01*
X144178Y6118D01*
Y7118D01*
X145178Y8117D01*
X144178Y9117D01*
Y10116D01*
X145178Y8117D02*
X147177D01*
X150176Y10116D02*
X151176Y11116D01*
X153175D01*
X154175Y10116D01*
Y6118D01*
X153175Y5118D01*
X151176D01*
X150176Y6118D01*
Y10116D01*
X159173Y5118D02*
Y11116D01*
X156174Y8117D01*
X160173D01*
D36*
X206299Y4724D02*
Y10628D01*
X209251D01*
X210235Y9644D01*
Y7676D01*
X209251Y6692D01*
X206299D01*
X208267D02*
X210235Y4724D01*
X216139Y9644D02*
X215155Y10628D01*
X213187D01*
X212203Y9644D01*
Y8660D01*
X213187Y7676D01*
X215155D01*
X216139Y6692D01*
Y5708D01*
X215155Y4724D01*
X213187D01*
X212203Y5708D01*
X218106Y10628D02*
X222042D01*
X220074D01*
Y4724D01*
X25984Y5512D02*
Y11415D01*
X28936D01*
X29920Y10431D01*
Y8464D01*
X28936Y7480D01*
X25984D01*
X31888Y5512D02*
X33856D01*
X32872D01*
Y11415D01*
X31888Y10431D01*
X40743Y11415D02*
X36808D01*
Y8464D01*
X38775Y9448D01*
X39759D01*
X40743Y8464D01*
Y6496D01*
X39759Y5512D01*
X37791D01*
X36808Y6496D01*
X137008Y118896D02*
Y117912D01*
X138976Y115944D01*
X140944Y117912D01*
Y118896D01*
X138976Y115944D02*
Y112992D01*
X146847D02*
X142912D01*
X146847Y116928D01*
Y117912D01*
X145863Y118896D01*
X143895D01*
X142912Y117912D01*
X145415Y82500D02*
X146399D01*
X148367Y84468D01*
X146399Y86436D01*
X145415D01*
X148367Y84468D02*
X151319D01*
Y88404D02*
Y90372D01*
Y89388D01*
X145415D01*
X146399Y88404D01*
X100819Y33500D02*
X94915D01*
Y36452D01*
X95899Y37436D01*
X97867D01*
X98851Y36452D01*
Y33500D01*
Y35468D02*
X100819Y37436D01*
Y43339D02*
Y39404D01*
X96883Y43339D01*
X95899D01*
X94915Y42355D01*
Y40387D01*
X95899Y39404D01*
X112600Y17717D02*
X118504D01*
Y21652D01*
Y23620D02*
Y25588D01*
Y24604D01*
X112600D01*
X113584Y23620D01*
X48031Y138187D02*
Y133267D01*
X49015Y132283D01*
X50983D01*
X51967Y133267D01*
Y138187D01*
X57871Y137203D02*
X56887Y138187D01*
X54919D01*
X53935Y137203D01*
Y136219D01*
X54919Y135235D01*
X56887D01*
X57871Y134251D01*
Y133267D01*
X56887Y132283D01*
X54919D01*
X53935Y133267D01*
X59839Y138187D02*
Y132283D01*
X62791D01*
X63774Y133267D01*
Y134251D01*
X62791Y135235D01*
X59839D01*
X62791D01*
X63774Y136219D01*
Y137203D01*
X62791Y138187D01*
X59839D01*
X71646Y135235D02*
X75582D01*
X73614Y137203D02*
Y133267D01*
X81485Y138187D02*
X77549D01*
Y135235D01*
X79517Y136219D01*
X80501D01*
X81485Y135235D01*
Y133267D01*
X80501Y132283D01*
X78533D01*
X77549Y133267D01*
X83453Y138187D02*
Y134251D01*
X85421Y132283D01*
X87389Y134251D01*
Y138187D01*
X85915Y33500D02*
X91819D01*
Y36452D01*
X90835Y37436D01*
X86899D01*
X85915Y36452D01*
Y33500D01*
X91819Y39404D02*
Y41372D01*
Y40387D01*
X85915D01*
X86899Y39404D01*
X170865Y109250D02*
X169881Y110234D01*
X167913D01*
X166929Y109250D01*
Y105315D01*
X167913Y104331D01*
X169881D01*
X170865Y105315D01*
X172833Y104331D02*
X174801D01*
X173817D01*
Y110234D01*
X172833Y109250D01*
X180704Y104331D02*
Y110234D01*
X177752Y107282D01*
X181688D01*
X170865Y117518D02*
X169881Y118502D01*
X167913D01*
X166929Y117518D01*
Y113582D01*
X167913Y112598D01*
X169881D01*
X170865Y113582D01*
X172833Y112598D02*
X174801D01*
X173817D01*
Y118502D01*
X172833Y117518D01*
X177752D02*
X178736Y118502D01*
X180704D01*
X181688Y117518D01*
Y116534D01*
X180704Y115550D01*
X179720D01*
X180704D01*
X181688Y114566D01*
Y113582D01*
X180704Y112598D01*
X178736D01*
X177752Y113582D01*
X180510Y97245D02*
X181494Y98229D01*
Y100197D01*
X180510Y101181D01*
X176575D01*
X175591Y100197D01*
Y98229D01*
X176575Y97245D01*
X175591Y95278D02*
Y93310D01*
Y94294D01*
X181494D01*
X180510Y95278D01*
X175591Y86422D02*
Y90358D01*
X179526Y86422D01*
X180510D01*
X181494Y87406D01*
Y89374D01*
X180510Y90358D01*
Y78741D02*
X181494Y79725D01*
Y81693D01*
X180510Y82677D01*
X176575D01*
X175591Y81693D01*
Y79725D01*
X176575Y78741D01*
X175591Y76774D02*
Y74806D01*
Y75790D01*
X181494D01*
X180510Y76774D01*
X175591Y71854D02*
Y69886D01*
Y70870D01*
X181494D01*
X180510Y71854D01*
X67255Y82920D02*
X66271Y83904D01*
X64303D01*
X63319Y82920D01*
Y78984D01*
X64303Y78000D01*
X66271D01*
X67255Y78984D01*
X69222Y78000D02*
X71190D01*
X70206D01*
Y83904D01*
X69222Y82920D01*
X74142D02*
X75126Y83904D01*
X77094D01*
X78078Y82920D01*
Y78984D01*
X77094Y78000D01*
X75126D01*
X74142Y78984D01*
Y82920D01*
X104399Y37436D02*
X103415Y36452D01*
Y34484D01*
X104399Y33500D01*
X108335D01*
X109319Y34484D01*
Y36452D01*
X108335Y37436D01*
Y39404D02*
X109319Y40387D01*
Y42355D01*
X108335Y43339D01*
X104399D01*
X103415Y42355D01*
Y40387D01*
X104399Y39404D01*
X105383D01*
X106367Y40387D01*
Y43339D01*
X163755Y63420D02*
X162771Y64404D01*
X160803D01*
X159819Y63420D01*
Y59484D01*
X160803Y58500D01*
X162771D01*
X163755Y59484D01*
X165723Y63420D02*
X166706Y64404D01*
X168674D01*
X169658Y63420D01*
Y62436D01*
X168674Y61452D01*
X169658Y60468D01*
Y59484D01*
X168674Y58500D01*
X166706D01*
X165723Y59484D01*
Y60468D01*
X166706Y61452D01*
X165723Y62436D01*
Y63420D01*
X166706Y61452D02*
X168674D01*
X120671Y107873D02*
X119687Y106889D01*
Y104921D01*
X120671Y103937D01*
X124607D01*
X125591Y104921D01*
Y106889D01*
X124607Y107873D01*
X119687Y109841D02*
Y113776D01*
X120671D01*
X124607Y109841D01*
X125591D01*
X137007Y136809D02*
X136023Y137793D01*
X134055D01*
X133071Y136809D01*
Y132874D01*
X134055Y131890D01*
X136023D01*
X137007Y132874D01*
X138974Y131890D02*
X140942D01*
X139958D01*
Y137793D01*
X138974Y136809D01*
X152755D02*
X151771Y137793D01*
X149803D01*
X148819Y136809D01*
Y132874D01*
X149803Y131890D01*
X151771D01*
X152755Y132874D01*
X158658Y131890D02*
X154722D01*
X158658Y135826D01*
Y136809D01*
X157674Y137793D01*
X155706D01*
X154722Y136809D01*
X69255Y100920D02*
X68271Y101904D01*
X66303D01*
X65319Y100920D01*
Y96984D01*
X66303Y96000D01*
X68271D01*
X69255Y96984D01*
X71223Y100920D02*
X72206Y101904D01*
X74174D01*
X75158Y100920D01*
Y99936D01*
X74174Y98952D01*
X73190D01*
X74174D01*
X75158Y97968D01*
Y96984D01*
X74174Y96000D01*
X72206D01*
X71223Y96984D01*
X118755Y158920D02*
X117771Y159904D01*
X115803D01*
X114819Y158920D01*
Y154984D01*
X115803Y154000D01*
X117771D01*
X118755Y154984D01*
X123674Y154000D02*
Y159904D01*
X120722Y156952D01*
X124658D01*
X101755Y158920D02*
X100771Y159904D01*
X98803D01*
X97819Y158920D01*
Y154984D01*
X98803Y154000D01*
X100771D01*
X101755Y154984D01*
X107658Y159904D02*
X103723D01*
Y156952D01*
X105690Y157936D01*
X106674D01*
X107658Y156952D01*
Y154984D01*
X106674Y154000D01*
X104706D01*
X103723Y154984D01*
X130899Y37436D02*
X129915Y36452D01*
Y34484D01*
X130899Y33500D01*
X134835D01*
X135819Y34484D01*
Y36452D01*
X134835Y37436D01*
X129915Y43339D02*
X130899Y41372D01*
X132867Y39404D01*
X134835D01*
X135819Y40387D01*
Y42355D01*
X134835Y43339D01*
X133851D01*
X132867Y42355D01*
Y39404D01*
X127319Y34000D02*
X121415D01*
Y36952D01*
X122399Y37936D01*
X124367D01*
X125351Y36952D01*
Y34000D01*
Y35968D02*
X127319Y37936D01*
Y39904D02*
Y41872D01*
Y40887D01*
X121415D01*
X122399Y39904D01*
X156755Y47920D02*
X155771Y48904D01*
X153803D01*
X152819Y47920D01*
Y46936D01*
X153803Y45952D01*
X155771D01*
X156755Y44968D01*
Y43984D01*
X155771Y43000D01*
X153803D01*
X152819Y43984D01*
X158722Y43000D02*
X160690D01*
X159706D01*
Y48904D01*
X158722Y47920D01*
X90551Y100392D02*
Y95472D01*
X91535Y94488D01*
X93503D01*
X94487Y95472D01*
Y100392D01*
X96455Y94488D02*
X98423D01*
X97439D01*
Y100392D01*
X96455Y99408D01*
X96819Y117404D02*
Y113468D01*
X98787Y111500D01*
X100755Y113468D01*
Y117404D01*
X102723Y111500D02*
Y117404D01*
X105674D01*
X106658Y116420D01*
Y114452D01*
X105674Y113468D01*
X102723D01*
X104690D02*
X106658Y111500D01*
X108626D02*
X110594D01*
X109610D01*
Y117404D01*
X108626Y116420D01*
X25984Y165354D02*
Y171258D01*
X28936D01*
X29920Y170274D01*
Y168306D01*
X28936Y167322D01*
X25984D01*
X34840Y165354D02*
Y171258D01*
X31888Y168306D01*
X35824D01*
X37791Y165354D02*
X39759D01*
X38775D01*
Y171258D01*
X37791Y170274D01*
X25984Y155512D02*
Y161415D01*
X28936D01*
X29920Y160432D01*
Y158464D01*
X28936Y157480D01*
X25984D01*
X34840Y155512D02*
Y161415D01*
X31888Y158464D01*
X35824D01*
X41727Y155512D02*
X37791D01*
X41727Y159448D01*
Y160432D01*
X40743Y161415D01*
X38775D01*
X37791Y160432D01*
X25984Y145669D02*
Y151573D01*
X28936D01*
X29920Y150589D01*
Y148621D01*
X28936Y147637D01*
X25984D01*
X34840Y145669D02*
Y151573D01*
X31888Y148621D01*
X35824D01*
X37791Y150589D02*
X38775Y151573D01*
X40743D01*
X41727Y150589D01*
Y149605D01*
X40743Y148621D01*
X39759D01*
X40743D01*
X41727Y147637D01*
Y146653D01*
X40743Y145669D01*
X38775D01*
X37791Y146653D01*
X25984Y135433D02*
Y141337D01*
X28936D01*
X29920Y140353D01*
Y138385D01*
X28936Y137401D01*
X25984D01*
X34840Y135433D02*
Y141337D01*
X31888Y138385D01*
X35824D01*
X40743Y135433D02*
Y141337D01*
X37791Y138385D01*
X41727D01*
X25984Y125591D02*
Y131494D01*
X28936D01*
X29920Y130510D01*
Y128542D01*
X28936Y127558D01*
X25984D01*
X31888Y125591D02*
X33856D01*
X32872D01*
Y131494D01*
X31888Y130510D01*
X25984Y115354D02*
Y121258D01*
X28936D01*
X29920Y120274D01*
Y118306D01*
X28936Y117322D01*
X25984D01*
X35824Y115354D02*
X31888D01*
X35824Y119290D01*
Y120274D01*
X34840Y121258D01*
X32872D01*
X31888Y120274D01*
X25984Y105512D02*
Y111415D01*
X28936D01*
X29920Y110432D01*
Y108464D01*
X28936Y107480D01*
X25984D01*
X31888Y110432D02*
X32872Y111415D01*
X34840D01*
X35824Y110432D01*
Y109448D01*
X34840Y108464D01*
X33856D01*
X34840D01*
X35824Y107480D01*
Y106496D01*
X34840Y105512D01*
X32872D01*
X31888Y106496D01*
X25984Y95276D02*
Y101179D01*
X28936D01*
X29920Y100195D01*
Y98227D01*
X28936Y97243D01*
X25984D01*
X34840Y95276D02*
Y101179D01*
X31888Y98227D01*
X35824D01*
X25984Y85433D02*
Y91337D01*
X28936D01*
X29920Y90353D01*
Y88385D01*
X28936Y87401D01*
X25984D01*
X35824Y91337D02*
X31888D01*
Y88385D01*
X33856Y89369D01*
X34840D01*
X35824Y88385D01*
Y86417D01*
X34840Y85433D01*
X32872D01*
X31888Y86417D01*
X25984Y75590D02*
Y81494D01*
X28936D01*
X29920Y80510D01*
Y78542D01*
X28936Y77558D01*
X25984D01*
X31888Y80510D02*
X32872Y81494D01*
X34840D01*
X35824Y80510D01*
Y79526D01*
X34840Y78542D01*
X35824Y77558D01*
Y76574D01*
X34840Y75590D01*
X32872D01*
X31888Y76574D01*
Y77558D01*
X32872Y78542D01*
X31888Y79526D01*
Y80510D01*
X32872Y78542D02*
X34840D01*
X25984Y65354D02*
Y71258D01*
X28936D01*
X29920Y70274D01*
Y68306D01*
X28936Y67322D01*
X25984D01*
X31888Y66338D02*
X32872Y65354D01*
X34840D01*
X35824Y66338D01*
Y70274D01*
X34840Y71258D01*
X32872D01*
X31888Y70274D01*
Y69290D01*
X32872Y68306D01*
X35824D01*
X25984Y55512D02*
Y61415D01*
X28936D01*
X29920Y60431D01*
Y58464D01*
X28936Y57480D01*
X25984D01*
X31888Y55512D02*
X33856D01*
X32872D01*
Y61415D01*
X31888Y60431D01*
X36808D02*
X37791Y61415D01*
X39759D01*
X40743Y60431D01*
Y56496D01*
X39759Y55512D01*
X37791D01*
X36808Y56496D01*
Y60431D01*
X25984Y45276D02*
Y51179D01*
X28936D01*
X29920Y50195D01*
Y48227D01*
X28936Y47243D01*
X25984D01*
X31888Y45276D02*
X33856D01*
X32872D01*
Y51179D01*
X31888Y50195D01*
X36808Y45276D02*
X38775D01*
X37791D01*
Y51179D01*
X36808Y50195D01*
X25984Y35433D02*
Y41337D01*
X28936D01*
X29920Y40353D01*
Y38385D01*
X28936Y37401D01*
X25984D01*
X31888Y35433D02*
X33856D01*
X32872D01*
Y41337D01*
X31888Y40353D01*
X40743Y35433D02*
X36808D01*
X40743Y39369D01*
Y40353D01*
X39759Y41337D01*
X37791D01*
X36808Y40353D01*
X25984Y25591D02*
Y31494D01*
X28936D01*
X29920Y30510D01*
Y28542D01*
X28936Y27558D01*
X25984D01*
X31888Y25591D02*
X33856D01*
X32872D01*
Y31494D01*
X31888Y30510D01*
X36808D02*
X37791Y31494D01*
X39759D01*
X40743Y30510D01*
Y29526D01*
X39759Y28542D01*
X38775D01*
X39759D01*
X40743Y27558D01*
Y26575D01*
X39759Y25591D01*
X37791D01*
X36808Y26575D01*
X25984Y15354D02*
Y21258D01*
X28936D01*
X29920Y20274D01*
Y18306D01*
X28936Y17322D01*
X25984D01*
X31888Y15354D02*
X33856D01*
X32872D01*
Y21258D01*
X31888Y20274D01*
X39759Y15354D02*
Y21258D01*
X36808Y18306D01*
X40743D01*
X206299Y14961D02*
Y20864D01*
X209251D01*
X210235Y19880D01*
Y17912D01*
X209251Y16928D01*
X206299D01*
X212203Y14961D02*
X214171D01*
X213187D01*
Y20864D01*
X212203Y19880D01*
X217123Y15945D02*
X218106Y14961D01*
X220074D01*
X221058Y15945D01*
Y19880D01*
X220074Y20864D01*
X218106D01*
X217123Y19880D01*
Y18896D01*
X218106Y17912D01*
X221058D01*
X206299Y25197D02*
Y31100D01*
X209251D01*
X210235Y30117D01*
Y28149D01*
X209251Y27165D01*
X206299D01*
X216139Y25197D02*
X212203D01*
X216139Y29133D01*
Y30117D01*
X215155Y31100D01*
X213187D01*
X212203Y30117D01*
X218106D02*
X219090Y31100D01*
X221058D01*
X222042Y30117D01*
Y26181D01*
X221058Y25197D01*
X219090D01*
X218106Y26181D01*
Y30117D01*
X206299Y35039D02*
Y40943D01*
X209251D01*
X210235Y39959D01*
Y37991D01*
X209251Y37007D01*
X206299D01*
X216139Y35039D02*
X212203D01*
X216139Y38975D01*
Y39959D01*
X215155Y40943D01*
X213187D01*
X212203Y39959D01*
X218106Y35039D02*
X220074D01*
X219090D01*
Y40943D01*
X218106Y39959D01*
X206299Y44882D02*
Y50785D01*
X209251D01*
X210235Y49802D01*
Y47834D01*
X209251Y46850D01*
X206299D01*
X216139Y44882D02*
X212203D01*
X216139Y48818D01*
Y49802D01*
X215155Y50785D01*
X213187D01*
X212203Y49802D01*
X222042Y44882D02*
X218106D01*
X222042Y48818D01*
Y49802D01*
X221058Y50785D01*
X219090D01*
X218106Y49802D01*
X206299Y55118D02*
Y61022D01*
X209251D01*
X210235Y60038D01*
Y58070D01*
X209251Y57086D01*
X206299D01*
X216139Y55118D02*
X212203D01*
X216139Y59054D01*
Y60038D01*
X215155Y61022D01*
X213187D01*
X212203Y60038D01*
X218106D02*
X219090Y61022D01*
X221058D01*
X222042Y60038D01*
Y59054D01*
X221058Y58070D01*
X220074D01*
X221058D01*
X222042Y57086D01*
Y56102D01*
X221058Y55118D01*
X219090D01*
X218106Y56102D01*
X206299Y64961D02*
Y70864D01*
X209251D01*
X210235Y69880D01*
Y67912D01*
X209251Y66928D01*
X206299D01*
X216139Y64961D02*
X212203D01*
X216139Y68896D01*
Y69880D01*
X215155Y70864D01*
X213187D01*
X212203Y69880D01*
X221058Y64961D02*
Y70864D01*
X218106Y67912D01*
X222042D01*
X206299Y75197D02*
Y81100D01*
X209251D01*
X210235Y80116D01*
Y78149D01*
X209251Y77165D01*
X206299D01*
X216139Y75197D02*
X212203D01*
X216139Y79133D01*
Y80116D01*
X215155Y81100D01*
X213187D01*
X212203Y80116D01*
X222042Y81100D02*
X218106D01*
Y78149D01*
X220074Y79133D01*
X221058D01*
X222042Y78149D01*
Y76181D01*
X221058Y75197D01*
X219090D01*
X218106Y76181D01*
X206299Y85039D02*
Y90943D01*
X209251D01*
X210235Y89959D01*
Y87991D01*
X209251Y87007D01*
X206299D01*
X216139Y85039D02*
X212203D01*
X216139Y88975D01*
Y89959D01*
X215155Y90943D01*
X213187D01*
X212203Y89959D01*
X222042Y90943D02*
X220074Y89959D01*
X218106Y87991D01*
Y86023D01*
X219090Y85039D01*
X221058D01*
X222042Y86023D01*
Y87007D01*
X221058Y87991D01*
X218106D01*
X206299Y94882D02*
Y100786D01*
X209251D01*
X210235Y99802D01*
Y97834D01*
X209251Y96850D01*
X206299D01*
X216139Y94882D02*
X212203D01*
X216139Y98818D01*
Y99802D01*
X215155Y100786D01*
X213187D01*
X212203Y99802D01*
X218106Y100786D02*
X222042D01*
Y99802D01*
X218106Y95866D01*
Y94882D01*
X206299Y105118D02*
Y111022D01*
X209251D01*
X210235Y110038D01*
Y108070D01*
X209251Y107086D01*
X206299D01*
X212203Y110038D02*
X213187Y111022D01*
X215155D01*
X216139Y110038D01*
Y109054D01*
X215155Y108070D01*
X214171D01*
X215155D01*
X216139Y107086D01*
Y106102D01*
X215155Y105118D01*
X213187D01*
X212203Y106102D01*
X222042Y105118D02*
X218106D01*
X222042Y109054D01*
Y110038D01*
X221058Y111022D01*
X219090D01*
X218106Y110038D01*
X206299Y114961D02*
Y120864D01*
X209251D01*
X210235Y119880D01*
Y117912D01*
X209251Y116929D01*
X206299D01*
X212203Y119880D02*
X213187Y120864D01*
X215155D01*
X216139Y119880D01*
Y118896D01*
X215155Y117912D01*
X214171D01*
X215155D01*
X216139Y116929D01*
Y115945D01*
X215155Y114961D01*
X213187D01*
X212203Y115945D01*
X222042Y120864D02*
X218106D01*
Y117912D01*
X220074Y118896D01*
X221058D01*
X222042Y117912D01*
Y115945D01*
X221058Y114961D01*
X219090D01*
X218106Y115945D01*
X206299Y125197D02*
Y131100D01*
X209251D01*
X210235Y130116D01*
Y128149D01*
X209251Y127165D01*
X206299D01*
X212203Y130116D02*
X213187Y131100D01*
X215155D01*
X216139Y130116D01*
Y129133D01*
X215155Y128149D01*
X214171D01*
X215155D01*
X216139Y127165D01*
Y126181D01*
X215155Y125197D01*
X213187D01*
X212203Y126181D01*
X222042Y131100D02*
X220074Y130116D01*
X218106Y128149D01*
Y126181D01*
X219090Y125197D01*
X221058D01*
X222042Y126181D01*
Y127165D01*
X221058Y128149D01*
X218106D01*
X206299Y135039D02*
Y140943D01*
X209251D01*
X210235Y139959D01*
Y137991D01*
X209251Y137007D01*
X206299D01*
X212203Y139959D02*
X213187Y140943D01*
X215155D01*
X216139Y139959D01*
Y138975D01*
X215155Y137991D01*
X214171D01*
X215155D01*
X216139Y137007D01*
Y136023D01*
X215155Y135039D01*
X213187D01*
X212203Y136023D01*
X218106Y140943D02*
X222042D01*
Y139959D01*
X218106Y136023D01*
Y135039D01*
X206299Y145276D02*
Y151179D01*
X209251D01*
X210235Y150195D01*
Y148227D01*
X209251Y147243D01*
X206299D01*
X212203Y150195D02*
X213187Y151179D01*
X215155D01*
X216139Y150195D01*
Y149211D01*
X215155Y148227D01*
X214171D01*
X215155D01*
X216139Y147243D01*
Y146259D01*
X215155Y145276D01*
X213187D01*
X212203Y146259D01*
X218106Y150195D02*
X219090Y151179D01*
X221058D01*
X222042Y150195D01*
Y149211D01*
X221058Y148227D01*
X222042Y147243D01*
Y146259D01*
X221058Y145276D01*
X219090D01*
X218106Y146259D01*
Y147243D01*
X219090Y148227D01*
X218106Y149211D01*
Y150195D01*
X219090Y148227D02*
X221058D01*
X210235Y160038D02*
X209251Y161022D01*
X207283D01*
X206299Y160038D01*
Y156102D01*
X207283Y155118D01*
X209251D01*
X210235Y156102D01*
Y158070D01*
X208267D01*
X212203Y155118D02*
Y161022D01*
X216139Y155118D01*
Y161022D01*
X218106D02*
Y155118D01*
X221058D01*
X222042Y156102D01*
Y160038D01*
X221058Y161022D01*
X218106D01*
X205118Y170668D02*
X206102Y171652D01*
X208070D01*
X209054Y170668D01*
Y169684D01*
X208070Y168700D01*
X207086D01*
X208070D01*
X209054Y167716D01*
Y166732D01*
X208070Y165748D01*
X206102D01*
X205118Y166732D01*
X211022Y165748D02*
Y166732D01*
X212006D01*
Y165748D01*
X211022D01*
X215941Y170668D02*
X216925Y171652D01*
X218893D01*
X219877Y170668D01*
Y169684D01*
X218893Y168700D01*
X217909D01*
X218893D01*
X219877Y167716D01*
Y166732D01*
X218893Y165748D01*
X216925D01*
X215941Y166732D01*
X221845Y171652D02*
Y167716D01*
X223813Y165748D01*
X225781Y167716D01*
Y171652D01*
M02*
