G04 Layer_Physical_Order=2*
G04 Layer_Color=16711680*
%FSLAX25Y25*%
%MOIN*%
G70*
G01*
G75*
%ADD25C,0.03937*%
%ADD26C,0.01969*%
%ADD27C,0.03543*%
%ADD28R,0.05906X0.05906*%
%ADD29C,0.05906*%
%ADD30O,0.03937X0.02362*%
%ADD31C,0.03937*%
G36*
X226154Y1405D02*
X1405D01*
Y175095D01*
X226154D01*
Y1405D01*
D02*
G37*
%LPC*%
G36*
X188819Y62471D02*
X187791Y62336D01*
X186833Y61939D01*
X186011Y61308D01*
X185380Y60486D01*
X184983Y59528D01*
X184848Y58500D01*
X184983Y57472D01*
X185380Y56515D01*
X186011Y55692D01*
X186833Y55061D01*
X187791Y54664D01*
X188819Y54529D01*
X189847Y54664D01*
X190804Y55061D01*
X191627Y55692D01*
X192258Y56515D01*
X192655Y57472D01*
X192790Y58500D01*
X192655Y59528D01*
X192258Y60486D01*
X191627Y61308D01*
X190804Y61939D01*
X189847Y62336D01*
X188819Y62471D01*
D02*
G37*
G36*
X18819D02*
X17791Y62336D01*
X16833Y61939D01*
X16011Y61308D01*
X15380Y60486D01*
X14983Y59528D01*
X14848Y58500D01*
X14983Y57472D01*
X15380Y56515D01*
X16011Y55692D01*
X16833Y55061D01*
X17791Y54664D01*
X18819Y54529D01*
X19847Y54664D01*
X20804Y55061D01*
X21627Y55692D01*
X22258Y56515D01*
X22655Y57472D01*
X22790Y58500D01*
X22655Y59528D01*
X22258Y60486D01*
X21627Y61308D01*
X20804Y61939D01*
X19847Y62336D01*
X18819Y62471D01*
D02*
G37*
G36*
X8819Y72471D02*
X7791Y72336D01*
X6833Y71939D01*
X6011Y71308D01*
X5380Y70486D01*
X4983Y69528D01*
X4848Y68500D01*
X4983Y67472D01*
X5380Y66514D01*
X6011Y65692D01*
X6833Y65061D01*
X7791Y64664D01*
X8819Y64529D01*
X9847Y64664D01*
X10804Y65061D01*
X11627Y65692D01*
X12258Y66514D01*
X12655Y67472D01*
X12790Y68500D01*
X12655Y69528D01*
X12258Y70486D01*
X11627Y71308D01*
X10804Y71939D01*
X9847Y72336D01*
X8819Y72471D01*
D02*
G37*
G36*
X198819Y62471D02*
X197791Y62336D01*
X196833Y61939D01*
X196011Y61308D01*
X195380Y60486D01*
X194983Y59528D01*
X194848Y58500D01*
X194983Y57472D01*
X195380Y56515D01*
X196011Y55692D01*
X196833Y55061D01*
X197791Y54664D01*
X198819Y54529D01*
X199847Y54664D01*
X200804Y55061D01*
X201627Y55692D01*
X202258Y56515D01*
X202655Y57472D01*
X202790Y58500D01*
X202655Y59528D01*
X202258Y60486D01*
X201627Y61308D01*
X200804Y61939D01*
X199847Y62336D01*
X198819Y62471D01*
D02*
G37*
G36*
X188819Y52471D02*
X187791Y52336D01*
X186833Y51939D01*
X186011Y51308D01*
X185380Y50485D01*
X184983Y49528D01*
X184848Y48500D01*
X184983Y47472D01*
X185380Y46514D01*
X186011Y45692D01*
X186833Y45061D01*
X187791Y44664D01*
X188819Y44529D01*
X189847Y44664D01*
X190804Y45061D01*
X191627Y45692D01*
X192258Y46514D01*
X192655Y47472D01*
X192790Y48500D01*
X192655Y49528D01*
X192258Y50485D01*
X191627Y51308D01*
X190804Y51939D01*
X189847Y52336D01*
X188819Y52471D01*
D02*
G37*
G36*
X18819D02*
X17791Y52336D01*
X16833Y51939D01*
X16011Y51308D01*
X15380Y50485D01*
X14983Y49528D01*
X14848Y48500D01*
X14983Y47472D01*
X15380Y46514D01*
X16011Y45692D01*
X16833Y45061D01*
X17791Y44664D01*
X18819Y44529D01*
X19847Y44664D01*
X20804Y45061D01*
X21627Y45692D01*
X22258Y46514D01*
X22655Y47472D01*
X22790Y48500D01*
X22655Y49528D01*
X22258Y50485D01*
X21627Y51308D01*
X20804Y51939D01*
X19847Y52336D01*
X18819Y52471D01*
D02*
G37*
G36*
X8819Y62471D02*
X7791Y62336D01*
X6833Y61939D01*
X6011Y61308D01*
X5380Y60486D01*
X4983Y59528D01*
X4848Y58500D01*
X4983Y57472D01*
X5380Y56515D01*
X6011Y55692D01*
X6833Y55061D01*
X7791Y54664D01*
X8819Y54529D01*
X9847Y54664D01*
X10804Y55061D01*
X11627Y55692D01*
X12258Y56515D01*
X12655Y57472D01*
X12790Y58500D01*
X12655Y59528D01*
X12258Y60486D01*
X11627Y61308D01*
X10804Y61939D01*
X9847Y62336D01*
X8819Y62471D01*
D02*
G37*
G36*
X198819Y52471D02*
X197791Y52336D01*
X196833Y51939D01*
X196011Y51308D01*
X195380Y50485D01*
X194983Y49528D01*
X194848Y48500D01*
X194983Y47472D01*
X195380Y46514D01*
X196011Y45692D01*
X196833Y45061D01*
X197791Y44664D01*
X198819Y44529D01*
X199847Y44664D01*
X200804Y45061D01*
X201627Y45692D01*
X202258Y46514D01*
X202655Y47472D01*
X202790Y48500D01*
X202655Y49528D01*
X202258Y50485D01*
X201627Y51308D01*
X200804Y51939D01*
X199847Y52336D01*
X198819Y52471D01*
D02*
G37*
G36*
X188819Y82471D02*
X187791Y82336D01*
X186833Y81939D01*
X186011Y81308D01*
X185380Y80485D01*
X184983Y79528D01*
X184848Y78500D01*
X184983Y77472D01*
X185380Y76515D01*
X186011Y75692D01*
X186833Y75061D01*
X187791Y74664D01*
X188819Y74529D01*
X189847Y74664D01*
X190804Y75061D01*
X191627Y75692D01*
X192258Y76515D01*
X192655Y77472D01*
X192790Y78500D01*
X192655Y79528D01*
X192258Y80485D01*
X191627Y81308D01*
X190804Y81939D01*
X189847Y82336D01*
X188819Y82471D01*
D02*
G37*
G36*
X18819D02*
X17791Y82336D01*
X16833Y81939D01*
X16011Y81308D01*
X15380Y80485D01*
X14983Y79528D01*
X14848Y78500D01*
X14983Y77472D01*
X15380Y76515D01*
X16011Y75692D01*
X16833Y75061D01*
X17791Y74664D01*
X18819Y74529D01*
X19847Y74664D01*
X20804Y75061D01*
X21627Y75692D01*
X22258Y76515D01*
X22655Y77472D01*
X22790Y78500D01*
X22655Y79528D01*
X22258Y80485D01*
X21627Y81308D01*
X20804Y81939D01*
X19847Y82336D01*
X18819Y82471D01*
D02*
G37*
G36*
X8819Y92471D02*
X7791Y92336D01*
X6833Y91939D01*
X6011Y91308D01*
X5380Y90486D01*
X4983Y89528D01*
X4848Y88500D01*
X4983Y87472D01*
X5380Y86515D01*
X6011Y85692D01*
X6833Y85061D01*
X7791Y84664D01*
X8819Y84529D01*
X9847Y84664D01*
X10804Y85061D01*
X11627Y85692D01*
X12258Y86515D01*
X12655Y87472D01*
X12790Y88500D01*
X12655Y89528D01*
X12258Y90486D01*
X11627Y91308D01*
X10804Y91939D01*
X9847Y92336D01*
X8819Y92471D01*
D02*
G37*
G36*
X198819Y82471D02*
X197791Y82336D01*
X196833Y81939D01*
X196011Y81308D01*
X195380Y80485D01*
X194983Y79528D01*
X194848Y78500D01*
X194983Y77472D01*
X195380Y76515D01*
X196011Y75692D01*
X196833Y75061D01*
X197791Y74664D01*
X198819Y74529D01*
X199847Y74664D01*
X200804Y75061D01*
X201627Y75692D01*
X202258Y76515D01*
X202655Y77472D01*
X202790Y78500D01*
X202655Y79528D01*
X202258Y80485D01*
X201627Y81308D01*
X200804Y81939D01*
X199847Y82336D01*
X198819Y82471D01*
D02*
G37*
G36*
X188819Y72471D02*
X187791Y72336D01*
X186833Y71939D01*
X186011Y71308D01*
X185380Y70486D01*
X184983Y69528D01*
X184848Y68500D01*
X184983Y67472D01*
X185380Y66514D01*
X186011Y65692D01*
X186833Y65061D01*
X187791Y64664D01*
X188819Y64529D01*
X189847Y64664D01*
X190804Y65061D01*
X191627Y65692D01*
X192258Y66514D01*
X192655Y67472D01*
X192790Y68500D01*
X192655Y69528D01*
X192258Y70486D01*
X191627Y71308D01*
X190804Y71939D01*
X189847Y72336D01*
X188819Y72471D01*
D02*
G37*
G36*
X18819D02*
X17791Y72336D01*
X16833Y71939D01*
X16011Y71308D01*
X15380Y70486D01*
X14983Y69528D01*
X14848Y68500D01*
X14983Y67472D01*
X15380Y66514D01*
X16011Y65692D01*
X16833Y65061D01*
X17791Y64664D01*
X18819Y64529D01*
X19847Y64664D01*
X20804Y65061D01*
X21627Y65692D01*
X22258Y66514D01*
X22655Y67472D01*
X22790Y68500D01*
X22655Y69528D01*
X22258Y70486D01*
X21627Y71308D01*
X20804Y71939D01*
X19847Y72336D01*
X18819Y72471D01*
D02*
G37*
G36*
X8819Y82471D02*
X7791Y82336D01*
X6833Y81939D01*
X6011Y81308D01*
X5380Y80485D01*
X4983Y79528D01*
X4848Y78500D01*
X4983Y77472D01*
X5380Y76515D01*
X6011Y75692D01*
X6833Y75061D01*
X7791Y74664D01*
X8819Y74529D01*
X9847Y74664D01*
X10804Y75061D01*
X11627Y75692D01*
X12258Y76515D01*
X12655Y77472D01*
X12790Y78500D01*
X12655Y79528D01*
X12258Y80485D01*
X11627Y81308D01*
X10804Y81939D01*
X9847Y82336D01*
X8819Y82471D01*
D02*
G37*
G36*
X198819Y72471D02*
X197791Y72336D01*
X196833Y71939D01*
X196011Y71308D01*
X195380Y70486D01*
X194983Y69528D01*
X194848Y68500D01*
X194983Y67472D01*
X195380Y66514D01*
X196011Y65692D01*
X196833Y65061D01*
X197791Y64664D01*
X198819Y64529D01*
X199847Y64664D01*
X200804Y65061D01*
X201627Y65692D01*
X202258Y66514D01*
X202655Y67472D01*
X202790Y68500D01*
X202655Y69528D01*
X202258Y70486D01*
X201627Y71308D01*
X200804Y71939D01*
X199847Y72336D01*
X198819Y72471D01*
D02*
G37*
G36*
X8819Y52471D02*
X7791Y52336D01*
X6833Y51939D01*
X6011Y51308D01*
X5380Y50485D01*
X4983Y49528D01*
X4848Y48500D01*
X4983Y47472D01*
X5380Y46514D01*
X6011Y45692D01*
X6833Y45061D01*
X7791Y44664D01*
X8819Y44529D01*
X9847Y44664D01*
X10804Y45061D01*
X11627Y45692D01*
X12258Y46514D01*
X12655Y47472D01*
X12790Y48500D01*
X12655Y49528D01*
X12258Y50485D01*
X11627Y51308D01*
X10804Y51939D01*
X9847Y52336D01*
X8819Y52471D01*
D02*
G37*
G36*
X18819Y22471D02*
X17791Y22336D01*
X16833Y21939D01*
X16011Y21308D01*
X15380Y20485D01*
X14983Y19528D01*
X14848Y18500D01*
X14983Y17472D01*
X15380Y16514D01*
X16011Y15692D01*
X16833Y15061D01*
X17791Y14664D01*
X18819Y14529D01*
X19847Y14664D01*
X20804Y15061D01*
X21627Y15692D01*
X22258Y16514D01*
X22655Y17472D01*
X22790Y18500D01*
X22655Y19528D01*
X22258Y20485D01*
X21627Y21308D01*
X20804Y21939D01*
X19847Y22336D01*
X18819Y22471D01*
D02*
G37*
G36*
X8819D02*
X7791Y22336D01*
X6833Y21939D01*
X6011Y21308D01*
X5380Y20485D01*
X4983Y19528D01*
X4848Y18500D01*
X4983Y17472D01*
X5380Y16514D01*
X6011Y15692D01*
X6833Y15061D01*
X7791Y14664D01*
X8819Y14529D01*
X9847Y14664D01*
X10804Y15061D01*
X11627Y15692D01*
X12258Y16514D01*
X12655Y17472D01*
X12790Y18500D01*
X12655Y19528D01*
X12258Y20485D01*
X11627Y21308D01*
X10804Y21939D01*
X9847Y22336D01*
X8819Y22471D01*
D02*
G37*
G36*
X198819D02*
X197791Y22336D01*
X196833Y21939D01*
X196011Y21308D01*
X195380Y20485D01*
X194983Y19528D01*
X194848Y18500D01*
X194983Y17472D01*
X195380Y16514D01*
X196011Y15692D01*
X196833Y15061D01*
X197791Y14664D01*
X198819Y14529D01*
X199847Y14664D01*
X200804Y15061D01*
X201627Y15692D01*
X202258Y16514D01*
X202655Y17472D01*
X202790Y18500D01*
X202655Y19528D01*
X202258Y20485D01*
X201627Y21308D01*
X200804Y21939D01*
X199847Y22336D01*
X198819Y22471D01*
D02*
G37*
G36*
X188819D02*
X187791Y22336D01*
X186833Y21939D01*
X186011Y21308D01*
X185380Y20485D01*
X184983Y19528D01*
X184848Y18500D01*
X184983Y17472D01*
X185380Y16514D01*
X186011Y15692D01*
X186833Y15061D01*
X187791Y14664D01*
X188819Y14529D01*
X189847Y14664D01*
X190804Y15061D01*
X191627Y15692D01*
X192258Y16514D01*
X192655Y17472D01*
X192790Y18500D01*
X192655Y19528D01*
X192258Y20485D01*
X191627Y21308D01*
X190804Y21939D01*
X189847Y22336D01*
X188819Y22471D01*
D02*
G37*
G36*
Y12471D02*
X187791Y12336D01*
X186833Y11939D01*
X186011Y11308D01*
X185380Y10486D01*
X184983Y9528D01*
X184848Y8500D01*
X184983Y7472D01*
X185380Y6515D01*
X186011Y5692D01*
X186833Y5061D01*
X187791Y4664D01*
X188819Y4529D01*
X189847Y4664D01*
X190804Y5061D01*
X191627Y5692D01*
X192258Y6515D01*
X192655Y7472D01*
X192790Y8500D01*
X192655Y9528D01*
X192258Y10486D01*
X191627Y11308D01*
X190804Y11939D01*
X189847Y12336D01*
X188819Y12471D01*
D02*
G37*
G36*
X8819D02*
X7791Y12336D01*
X6833Y11939D01*
X6011Y11308D01*
X5380Y10486D01*
X4983Y9528D01*
X4848Y8500D01*
X4983Y7472D01*
X5380Y6515D01*
X6011Y5692D01*
X6833Y5061D01*
X7791Y4664D01*
X8819Y4529D01*
X9847Y4664D01*
X10804Y5061D01*
X11627Y5692D01*
X12258Y6515D01*
X12655Y7472D01*
X12790Y8500D01*
X12655Y9528D01*
X12258Y10486D01*
X11627Y11308D01*
X10804Y11939D01*
X9847Y12336D01*
X8819Y12471D01*
D02*
G37*
G36*
X202756Y12437D02*
X194882D01*
Y4563D01*
X202756D01*
Y12437D01*
D02*
G37*
G36*
X22756D02*
X14882D01*
Y4563D01*
X22756D01*
Y12437D01*
D02*
G37*
G36*
X18819Y42471D02*
X17791Y42336D01*
X16833Y41939D01*
X16011Y41308D01*
X15380Y40486D01*
X14983Y39528D01*
X14848Y38500D01*
X14983Y37472D01*
X15380Y36514D01*
X16011Y35692D01*
X16833Y35061D01*
X17791Y34664D01*
X18819Y34529D01*
X19847Y34664D01*
X20804Y35061D01*
X21627Y35692D01*
X22258Y36514D01*
X22655Y37472D01*
X22790Y38500D01*
X22655Y39528D01*
X22258Y40486D01*
X21627Y41308D01*
X20804Y41939D01*
X19847Y42336D01*
X18819Y42471D01*
D02*
G37*
G36*
X8819D02*
X7791Y42336D01*
X6833Y41939D01*
X6011Y41308D01*
X5380Y40486D01*
X4983Y39528D01*
X4848Y38500D01*
X4983Y37472D01*
X5380Y36514D01*
X6011Y35692D01*
X6833Y35061D01*
X7791Y34664D01*
X8819Y34529D01*
X9847Y34664D01*
X10804Y35061D01*
X11627Y35692D01*
X12258Y36514D01*
X12655Y37472D01*
X12790Y38500D01*
X12655Y39528D01*
X12258Y40486D01*
X11627Y41308D01*
X10804Y41939D01*
X9847Y42336D01*
X8819Y42471D01*
D02*
G37*
G36*
X198819D02*
X197791Y42336D01*
X196833Y41939D01*
X196011Y41308D01*
X195380Y40486D01*
X194983Y39528D01*
X194848Y38500D01*
X194983Y37472D01*
X195380Y36514D01*
X196011Y35692D01*
X196833Y35061D01*
X197791Y34664D01*
X198819Y34529D01*
X199847Y34664D01*
X200804Y35061D01*
X201627Y35692D01*
X202258Y36514D01*
X202655Y37472D01*
X202790Y38500D01*
X202655Y39528D01*
X202258Y40486D01*
X201627Y41308D01*
X200804Y41939D01*
X199847Y42336D01*
X198819Y42471D01*
D02*
G37*
G36*
X188819D02*
X187791Y42336D01*
X186833Y41939D01*
X186011Y41308D01*
X185380Y40486D01*
X184983Y39528D01*
X184848Y38500D01*
X184983Y37472D01*
X185380Y36514D01*
X186011Y35692D01*
X186833Y35061D01*
X187791Y34664D01*
X188819Y34529D01*
X189847Y34664D01*
X190804Y35061D01*
X191627Y35692D01*
X192258Y36514D01*
X192655Y37472D01*
X192790Y38500D01*
X192655Y39528D01*
X192258Y40486D01*
X191627Y41308D01*
X190804Y41939D01*
X189847Y42336D01*
X188819Y42471D01*
D02*
G37*
G36*
X18819Y32471D02*
X17791Y32336D01*
X16833Y31939D01*
X16011Y31308D01*
X15380Y30485D01*
X14983Y29528D01*
X14848Y28500D01*
X14983Y27472D01*
X15380Y26515D01*
X16011Y25692D01*
X16833Y25061D01*
X17791Y24664D01*
X18819Y24529D01*
X19847Y24664D01*
X20804Y25061D01*
X21627Y25692D01*
X22258Y26515D01*
X22655Y27472D01*
X22790Y28500D01*
X22655Y29528D01*
X22258Y30485D01*
X21627Y31308D01*
X20804Y31939D01*
X19847Y32336D01*
X18819Y32471D01*
D02*
G37*
G36*
X8819D02*
X7791Y32336D01*
X6833Y31939D01*
X6011Y31308D01*
X5380Y30485D01*
X4983Y29528D01*
X4848Y28500D01*
X4983Y27472D01*
X5380Y26515D01*
X6011Y25692D01*
X6833Y25061D01*
X7791Y24664D01*
X8819Y24529D01*
X9847Y24664D01*
X10804Y25061D01*
X11627Y25692D01*
X12258Y26515D01*
X12655Y27472D01*
X12790Y28500D01*
X12655Y29528D01*
X12258Y30485D01*
X11627Y31308D01*
X10804Y31939D01*
X9847Y32336D01*
X8819Y32471D01*
D02*
G37*
G36*
X198819D02*
X197791Y32336D01*
X196833Y31939D01*
X196011Y31308D01*
X195380Y30485D01*
X194983Y29528D01*
X194848Y28500D01*
X194983Y27472D01*
X195380Y26515D01*
X196011Y25692D01*
X196833Y25061D01*
X197791Y24664D01*
X198819Y24529D01*
X199847Y24664D01*
X200804Y25061D01*
X201627Y25692D01*
X202258Y26515D01*
X202655Y27472D01*
X202790Y28500D01*
X202655Y29528D01*
X202258Y30485D01*
X201627Y31308D01*
X200804Y31939D01*
X199847Y32336D01*
X198819Y32471D01*
D02*
G37*
G36*
X188819D02*
X187791Y32336D01*
X186833Y31939D01*
X186011Y31308D01*
X185380Y30485D01*
X184983Y29528D01*
X184848Y28500D01*
X184983Y27472D01*
X185380Y26515D01*
X186011Y25692D01*
X186833Y25061D01*
X187791Y24664D01*
X188819Y24529D01*
X189847Y24664D01*
X190804Y25061D01*
X191627Y25692D01*
X192258Y26515D01*
X192655Y27472D01*
X192790Y28500D01*
X192655Y29528D01*
X192258Y30485D01*
X191627Y31308D01*
X190804Y31939D01*
X189847Y32336D01*
X188819Y32471D01*
D02*
G37*
G36*
X18819Y92471D02*
X17791Y92336D01*
X16833Y91939D01*
X16011Y91308D01*
X15380Y90486D01*
X14983Y89528D01*
X14848Y88500D01*
X14983Y87472D01*
X15380Y86515D01*
X16011Y85692D01*
X16833Y85061D01*
X17791Y84664D01*
X18819Y84529D01*
X19847Y84664D01*
X20804Y85061D01*
X21627Y85692D01*
X22258Y86515D01*
X22655Y87472D01*
X22790Y88500D01*
X22655Y89528D01*
X22258Y90486D01*
X21627Y91308D01*
X20804Y91939D01*
X19847Y92336D01*
X18819Y92471D01*
D02*
G37*
G36*
X198819Y142471D02*
X197791Y142336D01*
X196833Y141939D01*
X196011Y141308D01*
X195380Y140486D01*
X194983Y139528D01*
X194848Y138500D01*
X194983Y137472D01*
X195380Y136514D01*
X196011Y135692D01*
X196833Y135061D01*
X197791Y134664D01*
X198819Y134529D01*
X199847Y134664D01*
X200804Y135061D01*
X201627Y135692D01*
X202258Y136514D01*
X202655Y137472D01*
X202790Y138500D01*
X202655Y139528D01*
X202258Y140486D01*
X201627Y141308D01*
X200804Y141939D01*
X199847Y142336D01*
X198819Y142471D01*
D02*
G37*
G36*
X188819D02*
X187791Y142336D01*
X186833Y141939D01*
X186011Y141308D01*
X185380Y140486D01*
X184983Y139528D01*
X184848Y138500D01*
X184983Y137472D01*
X185380Y136514D01*
X186011Y135692D01*
X186833Y135061D01*
X187791Y134664D01*
X188819Y134529D01*
X189847Y134664D01*
X190804Y135061D01*
X191627Y135692D01*
X192258Y136514D01*
X192655Y137472D01*
X192790Y138500D01*
X192655Y139528D01*
X192258Y140486D01*
X191627Y141308D01*
X190804Y141939D01*
X189847Y142336D01*
X188819Y142471D01*
D02*
G37*
G36*
X18819Y152471D02*
X17791Y152336D01*
X16833Y151939D01*
X16011Y151308D01*
X15380Y150486D01*
X14983Y149528D01*
X14848Y148500D01*
X14983Y147472D01*
X15380Y146514D01*
X16011Y145692D01*
X16833Y145061D01*
X17791Y144664D01*
X18819Y144529D01*
X19847Y144664D01*
X20804Y145061D01*
X21627Y145692D01*
X22258Y146514D01*
X22655Y147472D01*
X22790Y148500D01*
X22655Y149528D01*
X22258Y150486D01*
X21627Y151308D01*
X20804Y151939D01*
X19847Y152336D01*
X18819Y152471D01*
D02*
G37*
G36*
X8819D02*
X7791Y152336D01*
X6833Y151939D01*
X6011Y151308D01*
X5380Y150486D01*
X4983Y149528D01*
X4848Y148500D01*
X4983Y147472D01*
X5380Y146514D01*
X6011Y145692D01*
X6833Y145061D01*
X7791Y144664D01*
X8819Y144529D01*
X9847Y144664D01*
X10804Y145061D01*
X11627Y145692D01*
X12258Y146514D01*
X12655Y147472D01*
X12790Y148500D01*
X12655Y149528D01*
X12258Y150486D01*
X11627Y151308D01*
X10804Y151939D01*
X9847Y152336D01*
X8819Y152471D01*
D02*
G37*
G36*
X198819Y132471D02*
X197791Y132336D01*
X196833Y131939D01*
X196011Y131308D01*
X195380Y130485D01*
X194983Y129528D01*
X194848Y128500D01*
X194983Y127472D01*
X195380Y126514D01*
X196011Y125692D01*
X196833Y125061D01*
X197791Y124664D01*
X198819Y124529D01*
X199847Y124664D01*
X200804Y125061D01*
X201627Y125692D01*
X202258Y126514D01*
X202655Y127472D01*
X202790Y128500D01*
X202655Y129528D01*
X202258Y130485D01*
X201627Y131308D01*
X200804Y131939D01*
X199847Y132336D01*
X198819Y132471D01*
D02*
G37*
G36*
X188819D02*
X187791Y132336D01*
X186833Y131939D01*
X186011Y131308D01*
X185380Y130485D01*
X184983Y129528D01*
X184848Y128500D01*
X184983Y127472D01*
X185380Y126514D01*
X186011Y125692D01*
X186833Y125061D01*
X187791Y124664D01*
X188819Y124529D01*
X189847Y124664D01*
X190804Y125061D01*
X191627Y125692D01*
X192258Y126514D01*
X192655Y127472D01*
X192790Y128500D01*
X192655Y129528D01*
X192258Y130485D01*
X191627Y131308D01*
X190804Y131939D01*
X189847Y132336D01*
X188819Y132471D01*
D02*
G37*
G36*
X18819Y142471D02*
X17791Y142336D01*
X16833Y141939D01*
X16011Y141308D01*
X15380Y140486D01*
X14983Y139528D01*
X14848Y138500D01*
X14983Y137472D01*
X15380Y136514D01*
X16011Y135692D01*
X16833Y135061D01*
X17791Y134664D01*
X18819Y134529D01*
X19847Y134664D01*
X20804Y135061D01*
X21627Y135692D01*
X22258Y136514D01*
X22655Y137472D01*
X22790Y138500D01*
X22655Y139528D01*
X22258Y140486D01*
X21627Y141308D01*
X20804Y141939D01*
X19847Y142336D01*
X18819Y142471D01*
D02*
G37*
G36*
X8819D02*
X7791Y142336D01*
X6833Y141939D01*
X6011Y141308D01*
X5380Y140486D01*
X4983Y139528D01*
X4848Y138500D01*
X4983Y137472D01*
X5380Y136514D01*
X6011Y135692D01*
X6833Y135061D01*
X7791Y134664D01*
X8819Y134529D01*
X9847Y134664D01*
X10804Y135061D01*
X11627Y135692D01*
X12258Y136514D01*
X12655Y137472D01*
X12790Y138500D01*
X12655Y139528D01*
X12258Y140486D01*
X11627Y141308D01*
X10804Y141939D01*
X9847Y142336D01*
X8819Y142471D01*
D02*
G37*
G36*
X188819Y152471D02*
X187791Y152336D01*
X186833Y151939D01*
X186011Y151308D01*
X185380Y150486D01*
X184983Y149528D01*
X184848Y148500D01*
X184983Y147472D01*
X185380Y146514D01*
X186011Y145692D01*
X186833Y145061D01*
X187791Y144664D01*
X188819Y144529D01*
X189847Y144664D01*
X190804Y145061D01*
X191627Y145692D01*
X192258Y146514D01*
X192655Y147472D01*
X192790Y148500D01*
X192655Y149528D01*
X192258Y150486D01*
X191627Y151308D01*
X190804Y151939D01*
X189847Y152336D01*
X188819Y152471D01*
D02*
G37*
G36*
X8819Y172471D02*
X7791Y172336D01*
X6833Y171939D01*
X6011Y171308D01*
X5380Y170485D01*
X4983Y169528D01*
X4848Y168500D01*
X4983Y167472D01*
X5380Y166515D01*
X6011Y165692D01*
X6833Y165061D01*
X7791Y164664D01*
X8819Y164529D01*
X9847Y164664D01*
X10804Y165061D01*
X11627Y165692D01*
X12258Y166515D01*
X12655Y167472D01*
X12790Y168500D01*
X12655Y169528D01*
X12258Y170485D01*
X11627Y171308D01*
X10804Y171939D01*
X9847Y172336D01*
X8819Y172471D01*
D02*
G37*
G36*
X76772Y160851D02*
X76052Y160756D01*
X75382Y160478D01*
X74806Y160036D01*
X74364Y159461D01*
X74087Y158790D01*
X73992Y158071D01*
X74087Y157351D01*
X74364Y156681D01*
X74806Y156105D01*
X75382Y155664D01*
X76052Y155386D01*
X76772Y155291D01*
X77491Y155386D01*
X78162Y155664D01*
X78737Y156105D01*
X79179Y156681D01*
X79457Y157351D01*
X79551Y158071D01*
X79457Y158790D01*
X79179Y159461D01*
X78737Y160036D01*
X78162Y160478D01*
X77491Y160756D01*
X76772Y160851D01*
D02*
G37*
G36*
X198819Y172471D02*
X197791Y172336D01*
X196833Y171939D01*
X196233Y171478D01*
X191405D01*
X190804Y171939D01*
X189847Y172336D01*
X188819Y172471D01*
X187791Y172336D01*
X186833Y171939D01*
X186233Y171478D01*
X140154D01*
X139383Y171377D01*
X138664Y171079D01*
X138048Y170606D01*
X132713Y165271D01*
X132240Y164655D01*
X131942Y163936D01*
X131841Y163165D01*
Y141000D01*
X131942Y140229D01*
X132240Y139511D01*
X132621Y139014D01*
X122303Y128697D01*
X121830Y128080D01*
X121533Y127361D01*
X121431Y126591D01*
Y105978D01*
X116319D01*
X115548Y105877D01*
X114830Y105579D01*
X114213Y105106D01*
X113740Y104489D01*
X113442Y103771D01*
X113341Y103000D01*
X113442Y102229D01*
X113740Y101511D01*
X114213Y100894D01*
X114830Y100421D01*
X115548Y100123D01*
X116319Y100022D01*
X121431D01*
Y68504D01*
Y18504D01*
X121533Y17733D01*
X121830Y17015D01*
X122303Y16398D01*
X122920Y15925D01*
X123639Y15627D01*
X124409Y15526D01*
X125180Y15627D01*
X125899Y15925D01*
X126515Y16398D01*
X126989Y17015D01*
X127286Y17733D01*
X127388Y18504D01*
Y65022D01*
X158319D01*
X159090Y65123D01*
X159808Y65421D01*
X160425Y65894D01*
X160898Y66511D01*
X161196Y67229D01*
X161297Y68000D01*
X161196Y68771D01*
X160898Y69489D01*
X160425Y70106D01*
X159808Y70579D01*
X159090Y70877D01*
X158319Y70978D01*
X127388D01*
Y103150D01*
Y125357D01*
X140925Y138894D01*
X141398Y139511D01*
X141696Y140229D01*
X141746Y140615D01*
X141797Y141000D01*
X141746Y141385D01*
X141696Y141771D01*
X141398Y142489D01*
X140925Y143106D01*
X140308Y143579D01*
X139590Y143877D01*
X139204Y143928D01*
X138819Y143978D01*
X138297Y143910D01*
X137797Y144265D01*
Y161932D01*
X141387Y165522D01*
X186233D01*
X186833Y165061D01*
X187791Y164664D01*
X188819Y164529D01*
X189847Y164664D01*
X190804Y165061D01*
X191405Y165522D01*
X196233D01*
X196833Y165061D01*
X197791Y164664D01*
X198819Y164529D01*
X199847Y164664D01*
X200804Y165061D01*
X201627Y165692D01*
X202258Y166515D01*
X202655Y167472D01*
X202790Y168500D01*
X202655Y169528D01*
X202258Y170485D01*
X201627Y171308D01*
X200804Y171939D01*
X199847Y172336D01*
X198819Y172471D01*
D02*
G37*
G36*
X18819D02*
X17791Y172336D01*
X16833Y171939D01*
X16011Y171308D01*
X15380Y170485D01*
X14983Y169528D01*
X14848Y168500D01*
X14983Y167472D01*
X15380Y166515D01*
X16011Y165692D01*
X16833Y165061D01*
X17791Y164664D01*
X18819Y164529D01*
X19847Y164664D01*
X20804Y165061D01*
X21627Y165692D01*
X22258Y166515D01*
X22655Y167472D01*
X22790Y168500D01*
X22655Y169528D01*
X22258Y170485D01*
X21627Y171308D01*
X20804Y171939D01*
X19847Y172336D01*
X18819Y172471D01*
D02*
G37*
G36*
X8819Y162471D02*
X7791Y162336D01*
X6833Y161939D01*
X6011Y161308D01*
X5380Y160485D01*
X4983Y159528D01*
X4848Y158500D01*
X4983Y157472D01*
X5380Y156515D01*
X6011Y155692D01*
X6833Y155061D01*
X7791Y154664D01*
X8819Y154529D01*
X9847Y154664D01*
X10804Y155061D01*
X11627Y155692D01*
X12258Y156515D01*
X12655Y157472D01*
X12790Y158500D01*
X12655Y159528D01*
X12258Y160485D01*
X11627Y161308D01*
X10804Y161939D01*
X9847Y162336D01*
X8819Y162471D01*
D02*
G37*
G36*
X198819Y152471D02*
X197791Y152336D01*
X196833Y151939D01*
X196011Y151308D01*
X195380Y150486D01*
X194983Y149528D01*
X194848Y148500D01*
X194983Y147472D01*
X195380Y146514D01*
X196011Y145692D01*
X196833Y145061D01*
X197791Y144664D01*
X198819Y144529D01*
X199847Y144664D01*
X200804Y145061D01*
X201627Y145692D01*
X202258Y146514D01*
X202655Y147472D01*
X202790Y148500D01*
X202655Y149528D01*
X202258Y150486D01*
X201627Y151308D01*
X200804Y151939D01*
X199847Y152336D01*
X198819Y152471D01*
D02*
G37*
G36*
X59449Y160851D02*
X58729Y160756D01*
X58059Y160478D01*
X57483Y160036D01*
X57042Y159461D01*
X56764Y158790D01*
X56669Y158071D01*
X56764Y157351D01*
X57042Y156681D01*
X57483Y156105D01*
X58059Y155664D01*
X58729Y155386D01*
X59449Y155291D01*
X60168Y155386D01*
X60839Y155664D01*
X61414Y156105D01*
X61856Y156681D01*
X62134Y157351D01*
X62229Y158071D01*
X62134Y158790D01*
X61856Y159461D01*
X61414Y160036D01*
X60839Y160478D01*
X60168Y160756D01*
X59449Y160851D01*
D02*
G37*
G36*
X18819Y162471D02*
X17791Y162336D01*
X16833Y161939D01*
X16011Y161308D01*
X15380Y160485D01*
X14983Y159528D01*
X14848Y158500D01*
X14983Y157472D01*
X15380Y156515D01*
X16011Y155692D01*
X16833Y155061D01*
X17791Y154664D01*
X18819Y154529D01*
X19847Y154664D01*
X20804Y155061D01*
X21627Y155692D01*
X22258Y156515D01*
X22655Y157472D01*
X22790Y158500D01*
X22655Y159528D01*
X22258Y160485D01*
X21627Y161308D01*
X20804Y161939D01*
X19847Y162336D01*
X18819Y162471D01*
D02*
G37*
G36*
X198819Y102471D02*
X197791Y102336D01*
X196833Y101939D01*
X196011Y101308D01*
X195380Y100486D01*
X194983Y99528D01*
X194848Y98500D01*
X194983Y97472D01*
X195380Y96514D01*
X196011Y95692D01*
X196833Y95061D01*
X197791Y94664D01*
X198819Y94529D01*
X199847Y94664D01*
X200804Y95061D01*
X201627Y95692D01*
X202258Y96514D01*
X202655Y97472D01*
X202790Y98500D01*
X202655Y99528D01*
X202258Y100486D01*
X201627Y101308D01*
X200804Y101939D01*
X199847Y102336D01*
X198819Y102471D01*
D02*
G37*
G36*
X188819D02*
X187791Y102336D01*
X186833Y101939D01*
X186011Y101308D01*
X185380Y100486D01*
X184983Y99528D01*
X184848Y98500D01*
X184983Y97472D01*
X185380Y96514D01*
X186011Y95692D01*
X186833Y95061D01*
X187791Y94664D01*
X188819Y94529D01*
X189847Y94664D01*
X190804Y95061D01*
X191627Y95692D01*
X192258Y96514D01*
X192655Y97472D01*
X192790Y98500D01*
X192655Y99528D01*
X192258Y100486D01*
X191627Y101308D01*
X190804Y101939D01*
X189847Y102336D01*
X188819Y102471D01*
D02*
G37*
G36*
X8819Y112471D02*
X7791Y112336D01*
X6833Y111939D01*
X6011Y111308D01*
X5380Y110485D01*
X4983Y109528D01*
X4848Y108500D01*
X4983Y107472D01*
X5380Y106515D01*
X6011Y105692D01*
X6833Y105061D01*
X7791Y104664D01*
X8819Y104529D01*
X9847Y104664D01*
X10804Y105061D01*
X11627Y105692D01*
X12258Y106515D01*
X12655Y107472D01*
X12790Y108500D01*
X12655Y109528D01*
X12258Y110485D01*
X11627Y111308D01*
X10804Y111939D01*
X9847Y112336D01*
X8819Y112471D01*
D02*
G37*
G36*
X144106Y111145D02*
X142532D01*
X141687Y110977D01*
X140970Y110498D01*
X140492Y109782D01*
X140324Y108937D01*
X140492Y108092D01*
X140970Y107376D01*
X141206Y107219D01*
Y106719D01*
X140970Y106561D01*
X140492Y105845D01*
X140324Y105000D01*
X140492Y104155D01*
X140970Y103439D01*
X141687Y102960D01*
X142532Y102792D01*
X144106D01*
X144951Y102960D01*
X145667Y103439D01*
X146146Y104155D01*
X146314Y105000D01*
X146146Y105845D01*
X145667Y106561D01*
X145432Y106719D01*
Y107219D01*
X145667Y107376D01*
X146146Y108092D01*
X146314Y108937D01*
X146146Y109782D01*
X145667Y110498D01*
X144951Y110977D01*
X144106Y111145D01*
D02*
G37*
G36*
X198819Y92471D02*
X197791Y92336D01*
X196833Y91939D01*
X196011Y91308D01*
X195380Y90486D01*
X194983Y89528D01*
X194848Y88500D01*
X194983Y87472D01*
X195380Y86515D01*
X196011Y85692D01*
X196833Y85061D01*
X197791Y84664D01*
X198819Y84529D01*
X199847Y84664D01*
X200804Y85061D01*
X201627Y85692D01*
X202258Y86515D01*
X202655Y87472D01*
X202790Y88500D01*
X202655Y89528D01*
X202258Y90486D01*
X201627Y91308D01*
X200804Y91939D01*
X199847Y92336D01*
X198819Y92471D01*
D02*
G37*
G36*
X188819D02*
X187791Y92336D01*
X186833Y91939D01*
X186011Y91308D01*
X185380Y90486D01*
X184983Y89528D01*
X184848Y88500D01*
X184983Y87472D01*
X185380Y86515D01*
X186011Y85692D01*
X186833Y85061D01*
X187791Y84664D01*
X188819Y84529D01*
X189847Y84664D01*
X190804Y85061D01*
X191627Y85692D01*
X192258Y86515D01*
X192655Y87472D01*
X192790Y88500D01*
X192655Y89528D01*
X192258Y90486D01*
X191627Y91308D01*
X190804Y91939D01*
X189847Y92336D01*
X188819Y92471D01*
D02*
G37*
G36*
X18819Y102471D02*
X17791Y102336D01*
X16833Y101939D01*
X16011Y101308D01*
X15380Y100486D01*
X14983Y99528D01*
X14848Y98500D01*
X14983Y97472D01*
X15380Y96514D01*
X16011Y95692D01*
X16833Y95061D01*
X17791Y94664D01*
X18819Y94529D01*
X19847Y94664D01*
X20804Y95061D01*
X21627Y95692D01*
X22258Y96514D01*
X22655Y97472D01*
X22790Y98500D01*
X22655Y99528D01*
X22258Y100486D01*
X21627Y101308D01*
X20804Y101939D01*
X19847Y102336D01*
X18819Y102471D01*
D02*
G37*
G36*
X8819D02*
X7791Y102336D01*
X6833Y101939D01*
X6011Y101308D01*
X5380Y100486D01*
X4983Y99528D01*
X4848Y98500D01*
X4983Y97472D01*
X5380Y96514D01*
X6011Y95692D01*
X6833Y95061D01*
X7791Y94664D01*
X8819Y94529D01*
X9847Y94664D01*
X10804Y95061D01*
X11627Y95692D01*
X12258Y96514D01*
X12655Y97472D01*
X12790Y98500D01*
X12655Y99528D01*
X12258Y100486D01*
X11627Y101308D01*
X10804Y101939D01*
X9847Y102336D01*
X8819Y102471D01*
D02*
G37*
G36*
X18819Y112471D02*
X17791Y112336D01*
X16833Y111939D01*
X16011Y111308D01*
X15380Y110485D01*
X14983Y109528D01*
X14848Y108500D01*
X14983Y107472D01*
X15380Y106515D01*
X16011Y105692D01*
X16833Y105061D01*
X17791Y104664D01*
X18819Y104529D01*
X19847Y104664D01*
X20804Y105061D01*
X21627Y105692D01*
X22258Y106515D01*
X22655Y107472D01*
X22790Y108500D01*
X22655Y109528D01*
X22258Y110485D01*
X21627Y111308D01*
X20804Y111939D01*
X19847Y112336D01*
X18819Y112471D01*
D02*
G37*
G36*
X198819Y122471D02*
X197791Y122336D01*
X196833Y121939D01*
X196011Y121308D01*
X195380Y120485D01*
X194983Y119528D01*
X194848Y118500D01*
X194983Y117472D01*
X195380Y116515D01*
X196011Y115692D01*
X196833Y115061D01*
X197791Y114664D01*
X198819Y114529D01*
X199847Y114664D01*
X200804Y115061D01*
X201627Y115692D01*
X202258Y116515D01*
X202655Y117472D01*
X202790Y118500D01*
X202655Y119528D01*
X202258Y120485D01*
X201627Y121308D01*
X200804Y121939D01*
X199847Y122336D01*
X198819Y122471D01*
D02*
G37*
G36*
X188819D02*
X187791Y122336D01*
X186833Y121939D01*
X186011Y121308D01*
X185380Y120485D01*
X184983Y119528D01*
X184848Y118500D01*
X184983Y117472D01*
X185380Y116515D01*
X186011Y115692D01*
X186833Y115061D01*
X187791Y114664D01*
X188819Y114529D01*
X189847Y114664D01*
X190804Y115061D01*
X191627Y115692D01*
X192258Y116515D01*
X192655Y117472D01*
X192790Y118500D01*
X192655Y119528D01*
X192258Y120485D01*
X191627Y121308D01*
X190804Y121939D01*
X189847Y122336D01*
X188819Y122471D01*
D02*
G37*
G36*
X18819Y132471D02*
X17791Y132336D01*
X16833Y131939D01*
X16011Y131308D01*
X15380Y130485D01*
X14983Y129528D01*
X14848Y128500D01*
X14983Y127472D01*
X15380Y126514D01*
X16011Y125692D01*
X16833Y125061D01*
X17791Y124664D01*
X18819Y124529D01*
X19847Y124664D01*
X20804Y125061D01*
X21627Y125692D01*
X22258Y126514D01*
X22655Y127472D01*
X22790Y128500D01*
X22655Y129528D01*
X22258Y130485D01*
X21627Y131308D01*
X20804Y131939D01*
X19847Y132336D01*
X18819Y132471D01*
D02*
G37*
G36*
X8819D02*
X7791Y132336D01*
X6833Y131939D01*
X6011Y131308D01*
X5380Y130485D01*
X4983Y129528D01*
X4848Y128500D01*
X4983Y127472D01*
X5380Y126514D01*
X6011Y125692D01*
X6833Y125061D01*
X7791Y124664D01*
X8819Y124529D01*
X9847Y124664D01*
X10804Y125061D01*
X11627Y125692D01*
X12258Y126514D01*
X12655Y127472D01*
X12790Y128500D01*
X12655Y129528D01*
X12258Y130485D01*
X11627Y131308D01*
X10804Y131939D01*
X9847Y132336D01*
X8819Y132471D01*
D02*
G37*
G36*
X198819Y112471D02*
X197791Y112336D01*
X196833Y111939D01*
X196011Y111308D01*
X195380Y110485D01*
X194983Y109528D01*
X194848Y108500D01*
X194983Y107472D01*
X195380Y106515D01*
X196011Y105692D01*
X196833Y105061D01*
X197791Y104664D01*
X198819Y104529D01*
X199847Y104664D01*
X200804Y105061D01*
X201627Y105692D01*
X202258Y106515D01*
X202655Y107472D01*
X202790Y108500D01*
X202655Y109528D01*
X202258Y110485D01*
X201627Y111308D01*
X200804Y111939D01*
X199847Y112336D01*
X198819Y112471D01*
D02*
G37*
G36*
X188819D02*
X187791Y112336D01*
X186833Y111939D01*
X186011Y111308D01*
X185380Y110485D01*
X184983Y109528D01*
X184848Y108500D01*
X184983Y107472D01*
X185380Y106515D01*
X186011Y105692D01*
X186833Y105061D01*
X187791Y104664D01*
X188819Y104529D01*
X189847Y104664D01*
X190804Y105061D01*
X191627Y105692D01*
X192258Y106515D01*
X192655Y107472D01*
X192790Y108500D01*
X192655Y109528D01*
X192258Y110485D01*
X191627Y111308D01*
X190804Y111939D01*
X189847Y112336D01*
X188819Y112471D01*
D02*
G37*
G36*
X18819Y122471D02*
X17791Y122336D01*
X16833Y121939D01*
X16011Y121308D01*
X15380Y120485D01*
X14983Y119528D01*
X14848Y118500D01*
X14983Y117472D01*
X15380Y116515D01*
X16011Y115692D01*
X16833Y115061D01*
X17791Y114664D01*
X18819Y114529D01*
X19847Y114664D01*
X20804Y115061D01*
X21627Y115692D01*
X22258Y116515D01*
X22655Y117472D01*
X22790Y118500D01*
X22655Y119528D01*
X22258Y120485D01*
X21627Y121308D01*
X20804Y121939D01*
X19847Y122336D01*
X18819Y122471D01*
D02*
G37*
G36*
X8819D02*
X7791Y122336D01*
X6833Y121939D01*
X6011Y121308D01*
X5380Y120485D01*
X4983Y119528D01*
X4848Y118500D01*
X4983Y117472D01*
X5380Y116515D01*
X6011Y115692D01*
X6833Y115061D01*
X7791Y114664D01*
X8819Y114529D01*
X9847Y114664D01*
X10804Y115061D01*
X11627Y115692D01*
X12258Y116515D01*
X12655Y117472D01*
X12790Y118500D01*
X12655Y119528D01*
X12258Y120485D01*
X11627Y121308D01*
X10804Y121939D01*
X9847Y122336D01*
X8819Y122471D01*
D02*
G37*
%LPD*%
D25*
X188819Y168500D02*
X198819D01*
X140154D02*
X188819D01*
X134819Y163165D02*
X140154Y168500D01*
X134819Y141000D02*
Y163165D01*
X188819Y158500D02*
X198819D01*
X124409Y126591D02*
X138819Y141000D01*
X124913Y68000D02*
X158319D01*
X124409Y18504D02*
Y68504D01*
X116319Y103000D02*
X124260D01*
X124409Y68504D02*
Y103150D01*
Y126591D01*
D26*
X147069Y158500D02*
X188819D01*
X145069Y160500D02*
X147069Y158500D01*
X61197Y120646D02*
Y133858D01*
X57051Y116500D02*
X61197Y120646D01*
X50819Y116500D02*
X57051D01*
X50819Y81500D02*
X60819Y71500D01*
X50819Y81500D02*
Y112500D01*
X97819Y67000D02*
X103319Y72500D01*
X60819Y67000D02*
X97819D01*
X124409Y68504D02*
X124913Y68000D01*
X124260Y103000D02*
X124409Y103150D01*
X110630Y110811D02*
X116319Y116500D01*
X110630Y94189D02*
Y110811D01*
Y94189D02*
X117819Y87000D01*
X114669Y25850D02*
Y58000D01*
X106819Y18000D02*
X114669Y25850D01*
X132819Y75650D02*
X162539D01*
X168504Y69685D01*
X162539Y78970D02*
X171819Y88250D01*
X162539Y75650D02*
Y78970D01*
X162075Y79435D02*
Y109500D01*
Y79435D02*
X162539Y78970D01*
D27*
X76772Y158071D02*
D03*
X59449D02*
D03*
D28*
X18819Y8500D02*
D03*
X198819D02*
D03*
D29*
X8819D02*
D03*
X18819Y18500D02*
D03*
X8819D02*
D03*
X18819Y28500D02*
D03*
X8819D02*
D03*
X18819Y38500D02*
D03*
X8819D02*
D03*
X18819Y48500D02*
D03*
X8819D02*
D03*
X18819Y58500D02*
D03*
X8819D02*
D03*
X18819Y68500D02*
D03*
X8819D02*
D03*
X18819Y78500D02*
D03*
X8819D02*
D03*
X18819Y88500D02*
D03*
X8819D02*
D03*
X18819Y98500D02*
D03*
X8819D02*
D03*
X18819Y108500D02*
D03*
X8819D02*
D03*
X18819Y118500D02*
D03*
X8819D02*
D03*
X18819Y128500D02*
D03*
X8819D02*
D03*
X18819Y138500D02*
D03*
X8819D02*
D03*
X18819Y148500D02*
D03*
X8819D02*
D03*
X18819Y158500D02*
D03*
X8819D02*
D03*
X18819Y168500D02*
D03*
X8819D02*
D03*
X188819Y8500D02*
D03*
X198819Y18500D02*
D03*
X188819D02*
D03*
X198819Y28500D02*
D03*
X188819D02*
D03*
X198819Y38500D02*
D03*
X188819D02*
D03*
X198819Y48500D02*
D03*
X188819D02*
D03*
X198819Y58500D02*
D03*
X188819D02*
D03*
X198819Y68500D02*
D03*
X188819D02*
D03*
X198819Y78500D02*
D03*
X188819D02*
D03*
X198819Y88500D02*
D03*
X188819D02*
D03*
X198819Y98500D02*
D03*
X188819D02*
D03*
X198819Y108500D02*
D03*
X188819D02*
D03*
X198819Y118500D02*
D03*
X188819D02*
D03*
X198819Y128500D02*
D03*
X188819D02*
D03*
X198819Y138500D02*
D03*
X188819D02*
D03*
X198819Y148500D02*
D03*
X188819D02*
D03*
X198819Y158500D02*
D03*
X188819D02*
D03*
X198819Y168500D02*
D03*
X188819D02*
D03*
D30*
X143319Y108937D02*
D03*
Y105000D02*
D03*
D31*
X50819Y112500D02*
D03*
Y116500D02*
D03*
Y120500D02*
D03*
X145069Y160500D02*
D03*
Y154500D02*
D03*
X138819Y141000D02*
D03*
X134819D02*
D03*
X103319Y72500D02*
D03*
X114669Y58000D02*
D03*
X132819Y75650D02*
D03*
X117819Y87000D02*
D03*
X112319Y132500D02*
D03*
X107819Y123500D02*
D03*
Y128000D02*
D03*
Y132500D02*
D03*
X112319Y137000D02*
D03*
X107819D02*
D03*
X112319Y141500D02*
D03*
X107819D02*
D03*
X111069Y149500D02*
D03*
X60819Y67000D02*
D03*
Y71500D02*
D03*
X116319Y103000D02*
D03*
X158319Y68000D02*
D03*
X116319Y116500D02*
D03*
X106819Y18000D02*
D03*
X84319Y29224D02*
D03*
X163819Y25000D02*
D03*
X132319Y18000D02*
D03*
X162075Y109500D02*
D03*
X168504Y69685D02*
D03*
X171819Y88250D02*
D03*
X61197Y133858D02*
D03*
X124409Y18504D02*
D03*
X112205Y127953D02*
D03*
Y123228D02*
D03*
M02*
