G04 Layer_Color=32896*
%FSLAX25Y25*%
%MOIN*%
G70*
G01*
G75*
%ADD35C,0.01000*%
%ADD57C,0.00100*%
D35*
X157600Y48932D02*
Y42934D01*
X160599D01*
X161598Y43933D01*
Y45933D01*
X160599Y46932D01*
X157600D01*
X155600Y42934D02*
X152601D01*
X151602Y43933D01*
X152601Y44933D01*
X154601D01*
X155600Y45933D01*
X154601Y46932D01*
X151602D01*
X149602Y42934D02*
Y48932D01*
X146603D01*
X145604Y47932D01*
Y45933D01*
X146603Y44933D01*
X149602D01*
X143604Y48932D02*
X141605D01*
X142605D01*
Y42934D01*
X143604D01*
X141605D01*
X134607Y47932D02*
X135607Y48932D01*
X137606D01*
X138606Y47932D01*
Y43933D01*
X137606Y42934D01*
X135607D01*
X134607Y43933D01*
X132608Y47932D02*
X131608Y48932D01*
X129609D01*
X128609Y47932D01*
Y46932D01*
X129609Y45933D01*
X130608D01*
X129609D01*
X128609Y44933D01*
Y43933D01*
X129609Y42934D01*
X131608D01*
X132608Y43933D01*
X126610Y47932D02*
X125610Y48932D01*
X123611D01*
X122611Y47932D01*
Y46932D01*
X123611Y45933D01*
X124610D01*
X123611D01*
X122611Y44933D01*
Y43933D01*
X123611Y42934D01*
X125610D01*
X126610Y43933D01*
X116613Y48932D02*
X120612D01*
Y45933D01*
X118612D01*
X120612D01*
Y42934D01*
X110615Y48932D02*
X112614D01*
X111615D01*
Y43933D01*
X112614Y42934D01*
X113614D01*
X114614Y43933D01*
X108616Y42934D02*
X106616D01*
X107616D01*
Y48932D01*
X108616Y47932D01*
X99619Y42934D02*
X103617D01*
X99619Y46932D01*
Y47932D01*
X100618Y48932D01*
X102618D01*
X103617Y47932D01*
X97619D02*
X96619Y48932D01*
X94620D01*
X93620Y47932D01*
Y46932D01*
X94620Y45933D01*
X93620Y44933D01*
Y43933D01*
X94620Y42934D01*
X96619D01*
X97619Y43933D01*
Y44933D01*
X96619Y45933D01*
X97619Y46932D01*
Y47932D01*
X96619Y45933D02*
X94620D01*
X87622Y47932D02*
X88622Y48932D01*
X90621D01*
X91621Y47932D01*
Y43933D01*
X90621Y42934D01*
X88622D01*
X87622Y43933D01*
Y45933D01*
X89622D01*
X85623Y42934D02*
Y48932D01*
X82624D01*
X81624Y47932D01*
Y45933D01*
X82624Y44933D01*
X85623D01*
X79625Y47932D02*
X78625Y48932D01*
X76626D01*
X75626Y47932D01*
Y46932D01*
X76626Y45933D01*
X75626Y44933D01*
Y43933D01*
X76626Y42934D01*
X78625D01*
X79625Y43933D01*
Y44933D01*
X78625Y45933D01*
X79625Y46932D01*
Y47932D01*
X78625Y45933D02*
X76626D01*
X73627Y47932D02*
X72627Y48932D01*
X70628D01*
X69628Y47932D01*
Y43933D01*
X70628Y42934D01*
X72627D01*
X73627Y43933D01*
Y47932D01*
X64630Y42934D02*
Y48932D01*
X67629Y45933D01*
X63630D01*
X157600Y39201D02*
Y33203D01*
X160599D01*
X161598Y34202D01*
Y36202D01*
X160599Y37201D01*
X157600D01*
X152601Y33203D02*
X154601D01*
X155600Y34202D01*
Y36202D01*
X154601Y37201D01*
X152601D01*
X151602Y36202D01*
Y35202D01*
X155600D01*
X149602Y37201D02*
X147603Y33203D01*
X145604Y37201D01*
X140605Y33203D02*
X142605D01*
X143604Y34202D01*
Y36202D01*
X142605Y37201D01*
X140605D01*
X139605Y36202D01*
Y35202D01*
X143604D01*
X137606Y33203D02*
X135607D01*
X136607D01*
Y39201D01*
X137606D01*
X131608Y33203D02*
X129609D01*
X128609Y34202D01*
Y36202D01*
X129609Y37201D01*
X131608D01*
X132608Y36202D01*
Y34202D01*
X131608Y33203D01*
X126610Y31203D02*
Y37201D01*
X123611D01*
X122611Y36202D01*
Y34202D01*
X123611Y33203D01*
X126610D01*
X120612D02*
Y37201D01*
X119612D01*
X118612Y36202D01*
Y33203D01*
Y36202D01*
X117613Y37201D01*
X116613Y36202D01*
Y33203D01*
X111615D02*
X113614D01*
X114614Y34202D01*
Y36202D01*
X113614Y37201D01*
X111615D01*
X110615Y36202D01*
Y35202D01*
X114614D01*
X108616Y33203D02*
Y37201D01*
X105616D01*
X104617Y36202D01*
Y33203D01*
X101618Y38201D02*
Y37201D01*
X102618D01*
X100618D01*
X101618D01*
Y34202D01*
X100618Y33203D01*
X91621Y39201D02*
Y33203D01*
X88622D01*
X87622Y34202D01*
Y35202D01*
Y36202D01*
X88622Y37201D01*
X91621D01*
X84623Y33203D02*
X82624D01*
X81624Y34202D01*
Y36202D01*
X82624Y37201D01*
X84623D01*
X85623Y36202D01*
Y34202D01*
X84623Y33203D01*
X78625Y37201D02*
X76626D01*
X75626Y36202D01*
Y33203D01*
X78625D01*
X79625Y34202D01*
X78625Y35202D01*
X75626D01*
X73627Y37201D02*
Y33203D01*
Y35202D01*
X72627Y36202D01*
X71627Y37201D01*
X70628D01*
X63630Y39201D02*
Y33203D01*
X66629D01*
X67629Y34202D01*
Y36202D01*
X66629Y37201D01*
X63630D01*
X161598Y25471D02*
X159599Y21472D01*
X157600Y25471D01*
X155600Y21472D02*
X153601D01*
X154601D01*
Y27470D01*
X155600Y26471D01*
X150602Y21472D02*
Y22472D01*
X149602D01*
Y21472D01*
X150602D01*
X145604Y26471D02*
X144604Y27470D01*
X142605D01*
X141605Y26471D01*
Y22472D01*
X142605Y21472D01*
X144604D01*
X145604Y22472D01*
Y26471D01*
D57*
X110267Y138848D02*
X117767D01*
X110067Y138748D02*
X117967D01*
X109967Y138648D02*
X118067D01*
X109967Y138548D02*
X118067D01*
X109867Y138448D02*
X118167D01*
X109867Y138348D02*
X118167D01*
X109867Y138248D02*
X118167D01*
X109867Y138148D02*
X118167D01*
X109867Y138048D02*
X118167D01*
X109767Y137948D02*
X118267D01*
X109767Y137848D02*
X118267D01*
X109767Y137748D02*
X118267D01*
X109767Y137648D02*
X118267D01*
X109767Y137548D02*
X118267D01*
X109767Y137448D02*
X118267D01*
X109667Y137348D02*
X118367D01*
X109667Y137248D02*
X118367D01*
X109667Y137148D02*
X118367D01*
X109667Y137048D02*
X118367D01*
X109667Y136948D02*
X118367D01*
X109567Y136848D02*
X118467D01*
X109567Y136748D02*
X118467D01*
X109567Y136648D02*
X118467D01*
X109567Y136548D02*
X118467D01*
X109567Y136448D02*
X118467D01*
X109467Y136348D02*
X118567D01*
X109467Y136248D02*
X118567D01*
X109467Y136148D02*
X118567D01*
X109467Y136048D02*
X118567D01*
X109467Y135948D02*
X118567D01*
X109467Y135848D02*
X118567D01*
X109367Y135748D02*
X118667D01*
X109367Y135648D02*
X118667D01*
X109367Y135548D02*
X118667D01*
X109367Y135448D02*
X118667D01*
X109367Y135348D02*
X118667D01*
X109267Y135248D02*
X118767D01*
X109267Y135148D02*
X118767D01*
X109267Y135048D02*
X118767D01*
X109267Y134948D02*
X118767D01*
X109267Y134848D02*
X118767D01*
X109167Y134748D02*
X118767D01*
X109167Y134648D02*
X118867D01*
X109167Y134548D02*
X118867D01*
X109167Y134448D02*
X118867D01*
X109167Y134348D02*
X118867D01*
X109167Y134248D02*
X118867D01*
X109067Y134148D02*
X118967D01*
X109067Y134048D02*
X118967D01*
X109067Y133948D02*
X118967D01*
X109067Y133848D02*
X118967D01*
X109067Y133748D02*
X118967D01*
X108967Y133648D02*
X119067D01*
X108967Y133548D02*
X119067D01*
X108967Y133448D02*
X119067D01*
X108967Y133348D02*
X119067D01*
X108967Y133248D02*
X119067D01*
X108967Y133148D02*
X119067D01*
X108867Y133048D02*
X119167D01*
X108867Y132948D02*
X119167D01*
X131767Y132848D02*
X132267D01*
X108867D02*
X119167D01*
X95767D02*
X96267D01*
X131567Y132748D02*
X132367D01*
X108867D02*
X119167D01*
X95667D02*
X96467D01*
X131467Y132648D02*
X132467D01*
X108867D02*
X119167D01*
X95567D02*
X96567D01*
X131267Y132548D02*
X132567D01*
X108767D02*
X119267D01*
X95467D02*
X96767D01*
X131167Y132448D02*
X132667D01*
X108767D02*
X119267D01*
X95367D02*
X96867D01*
X130967Y132348D02*
X132767D01*
X108767D02*
X119267D01*
X95267D02*
X97067D01*
X130867Y132248D02*
X132867D01*
X108767D02*
X119267D01*
X95167D02*
X97167D01*
X130767Y132148D02*
X132967D01*
X108767D02*
X119267D01*
X95067D02*
X97267D01*
X130567Y132048D02*
X133067D01*
X108667D02*
X119367D01*
X94967D02*
X97467D01*
X130467Y131948D02*
X133167D01*
X108667D02*
X119367D01*
X94867D02*
X97567D01*
X130267Y131848D02*
X133267D01*
X108667D02*
X119367D01*
X94767D02*
X97767D01*
X130167Y131748D02*
X133367D01*
X108667D02*
X119367D01*
X94667D02*
X97867D01*
X129967Y131648D02*
X133467D01*
X108667D02*
X119367D01*
X94567D02*
X98067D01*
X129867Y131548D02*
X133567D01*
X108667D02*
X119367D01*
X94467D02*
X98167D01*
X129667Y131448D02*
X133667D01*
X108567D02*
X119467D01*
X94367D02*
X98367D01*
X129567Y131348D02*
X133767D01*
X108567D02*
X119467D01*
X94267D02*
X98467D01*
X129367Y131248D02*
X133867D01*
X108567D02*
X119467D01*
X94167D02*
X98667D01*
X129267Y131148D02*
X133967D01*
X108567D02*
X119467D01*
X94067D02*
X98767D01*
X129167Y131048D02*
X134067D01*
X108567D02*
X119467D01*
X93967D02*
X98867D01*
X128967Y130948D02*
X134167D01*
X108467D02*
X119567D01*
X93867D02*
X99067D01*
X128867Y130848D02*
X134267D01*
X108467D02*
X119567D01*
X93767D02*
X99167D01*
X128667Y130748D02*
X134367D01*
X108367D02*
X119667D01*
X93667D02*
X99367D01*
X128567Y130648D02*
X134467D01*
X108167D02*
X119867D01*
X93567D02*
X99467D01*
X128367Y130548D02*
X134567D01*
X107967D02*
X120067D01*
X93467D02*
X99667D01*
X128267Y130448D02*
X134667D01*
X107767D02*
X120267D01*
X93367D02*
X99767D01*
X128067Y130348D02*
X134767D01*
X107467D02*
X120567D01*
X93267D02*
X99967D01*
X127967Y130248D02*
X134867D01*
X107267D02*
X120767D01*
X93167D02*
X100067D01*
X127767Y130148D02*
X134967D01*
X107067D02*
X120967D01*
X93067D02*
X100267D01*
X127667Y130048D02*
X135067D01*
X106767D02*
X121267D01*
X92967D02*
X100367D01*
X127467Y129948D02*
X135167D01*
X106567D02*
X121467D01*
X92867D02*
X100467D01*
X127367Y129848D02*
X135267D01*
X106267D02*
X121767D01*
X92767D02*
X100667D01*
X127267Y129748D02*
X135367D01*
X106067D02*
X121967D01*
X92667D02*
X100767D01*
X127067Y129648D02*
X135467D01*
X105767D02*
X122267D01*
X92567D02*
X100967D01*
X126967Y129548D02*
X135567D01*
X105567D02*
X122467D01*
X92467D02*
X101067D01*
X126767Y129448D02*
X135667D01*
X105267D02*
X122667D01*
X92367D02*
X101267D01*
X126667Y129348D02*
X135767D01*
X105067D02*
X122967D01*
X92267D02*
X101367D01*
X126467Y129248D02*
X135867D01*
X104867D02*
X123167D01*
X92167D02*
X101567D01*
X126367Y129148D02*
X135967D01*
X104567D02*
X123467D01*
X92067D02*
X101667D01*
X126167Y129048D02*
X136067D01*
X104367D02*
X123667D01*
X91967D02*
X101867D01*
X126067Y128948D02*
X136167D01*
X104067D02*
X123967D01*
X91867D02*
X101967D01*
X125867Y128848D02*
X136267D01*
X103867D02*
X124167D01*
X91767D02*
X102167D01*
X125767Y128748D02*
X136367D01*
X103567D02*
X124467D01*
X91667D02*
X102267D01*
X125667Y128648D02*
X136467D01*
X103367D02*
X124667D01*
X91567D02*
X102367D01*
X125467Y128548D02*
X136567D01*
X103167D02*
X124867D01*
X91467D02*
X102567D01*
X91367Y128448D02*
X136667D01*
X91267Y128348D02*
X136767D01*
X91167Y128248D02*
X136867D01*
X91067Y128148D02*
X136967D01*
X90967Y128048D02*
X137067D01*
X90867Y127948D02*
X137167D01*
X90767Y127848D02*
X137267D01*
X90667Y127748D02*
X137367D01*
X90567Y127648D02*
X137467D01*
X90467Y127548D02*
X137567D01*
X90367Y127348D02*
X137667D01*
X90367Y127248D02*
X137667D01*
X90467Y127148D02*
X137567D01*
X90467Y127048D02*
X137567D01*
X90567Y126948D02*
X137467D01*
X90667Y126848D02*
X137367D01*
X90667Y126748D02*
X137367D01*
X90767Y126648D02*
X137267D01*
X90867Y126548D02*
X137167D01*
X90867Y126448D02*
X137167D01*
X90967Y126348D02*
X137067D01*
X91067Y126248D02*
X136967D01*
X91067Y126148D02*
X136967D01*
X91167Y126048D02*
X136867D01*
X91267Y125948D02*
X136767D01*
X91267Y125848D02*
X136767D01*
X91367Y125748D02*
X136667D01*
X91467Y125648D02*
X136567D01*
X91467Y125548D02*
X136567D01*
X91567Y125448D02*
X136467D01*
X91667Y125348D02*
X136367D01*
X91767Y125248D02*
X136267D01*
X91767Y125148D02*
X136267D01*
X91867Y125048D02*
X136167D01*
X91967Y124948D02*
X136067D01*
X91967Y124848D02*
X136067D01*
X92067Y124748D02*
X135967D01*
X92167Y124648D02*
X135867D01*
X92167Y124548D02*
X135867D01*
X92267Y124448D02*
X135767D01*
X92367Y124348D02*
X135667D01*
X92367Y124248D02*
X135667D01*
X92467Y124148D02*
X135567D01*
X92567Y124048D02*
X135467D01*
X92567Y123948D02*
X135467D01*
X92667Y123848D02*
X135367D01*
X92767Y123748D02*
X135267D01*
X92767Y123648D02*
X135267D01*
X92867Y123548D02*
X135167D01*
X92967Y123448D02*
X135067D01*
X93067Y123348D02*
X134967D01*
X93067Y123248D02*
X134967D01*
X93167Y123148D02*
X134867D01*
X93267Y123048D02*
X134767D01*
X93267Y122948D02*
X134767D01*
X93367Y122848D02*
X134667D01*
X93467Y122748D02*
X134567D01*
X93467Y122648D02*
X134567D01*
X93567Y122548D02*
X134467D01*
X93667Y122448D02*
X134367D01*
X93667Y122348D02*
X134367D01*
X93767Y122248D02*
X134267D01*
X93867Y122148D02*
X134167D01*
X93867Y122048D02*
X134167D01*
X93967Y121948D02*
X134067D01*
X94067Y121848D02*
X133967D01*
X94167Y121748D02*
X133867D01*
X94167Y121648D02*
X133867D01*
X94267Y121548D02*
X133767D01*
X94367Y121448D02*
X133667D01*
X94367Y121348D02*
X133667D01*
X94467Y121248D02*
X133567D01*
X94567Y121148D02*
X133467D01*
X94567Y121048D02*
X133467D01*
X94667Y120948D02*
X133367D01*
X94667Y120848D02*
X133367D01*
X94767Y120748D02*
X133267D01*
X94767Y120648D02*
X133267D01*
X94767Y120548D02*
X133267D01*
X94767Y120448D02*
X133267D01*
X94667Y120348D02*
X133367D01*
X94667Y120248D02*
X133367D01*
X94667Y120148D02*
X133367D01*
X94567Y120048D02*
X133467D01*
X94567Y119948D02*
X133467D01*
X94467Y119848D02*
X133567D01*
X94467Y119748D02*
X133567D01*
X94367Y119648D02*
X133667D01*
X94367Y119548D02*
X133667D01*
X94367Y119448D02*
X133667D01*
X94267Y119348D02*
X133767D01*
X94267Y119248D02*
X133767D01*
X94167Y119148D02*
X133867D01*
X94167Y119048D02*
X133867D01*
X94067Y118948D02*
X133967D01*
X94067Y118848D02*
X133967D01*
X94067Y118748D02*
X133967D01*
X93967Y118648D02*
X134067D01*
X93967Y118548D02*
X134067D01*
X93867Y118448D02*
X134167D01*
X93867Y118348D02*
X134167D01*
X93767Y118248D02*
X134267D01*
X93767Y118148D02*
X134267D01*
X93767Y118048D02*
X134267D01*
X93667Y117948D02*
X134367D01*
X93667Y117848D02*
X134367D01*
X93567Y117748D02*
X134467D01*
X93567Y117648D02*
X134467D01*
X114567Y117548D02*
X134567D01*
X93467D02*
X113467D01*
X115367Y117448D02*
X134567D01*
X93467D02*
X112667D01*
X115867Y117348D02*
X134567D01*
X93467D02*
X112167D01*
X116267Y117248D02*
X134667D01*
X93367D02*
X111767D01*
X116667Y117148D02*
X134667D01*
X93367D02*
X111367D01*
X116867Y117048D02*
X134767D01*
X93267D02*
X111167D01*
X117167Y116948D02*
X134767D01*
X93267D02*
X110867D01*
X117367Y116848D02*
X134767D01*
X93267D02*
X110667D01*
X117567Y116748D02*
X134867D01*
X93167D02*
X110467D01*
X117767Y116648D02*
X134867D01*
X93167D02*
X110267D01*
X117967Y116548D02*
X134967D01*
X93067D02*
X110067D01*
X118167Y116448D02*
X134967D01*
X93067D02*
X109867D01*
X118367Y116348D02*
X135067D01*
X92967D02*
X109667D01*
X118467Y116248D02*
X135067D01*
X92967D02*
X109567D01*
X118667Y116148D02*
X135067D01*
X92967D02*
X109367D01*
X118767Y116048D02*
X135167D01*
X92867D02*
X109267D01*
X118967Y115948D02*
X135167D01*
X92867D02*
X109067D01*
X119067Y115848D02*
X135267D01*
X92767D02*
X108967D01*
X119167Y115748D02*
X135267D01*
X92767D02*
X108867D01*
X119367Y115648D02*
X135367D01*
X92667D02*
X108667D01*
X119467Y115548D02*
X135367D01*
X92667D02*
X108567D01*
X119567Y115448D02*
X135367D01*
X92667D02*
X108467D01*
X119667Y115348D02*
X135467D01*
X92567D02*
X108367D01*
X119767Y115248D02*
X135467D01*
X92567D02*
X108267D01*
X119867Y115148D02*
X135567D01*
X92467D02*
X108167D01*
X119967Y115048D02*
X135567D01*
X92467D02*
X108067D01*
X120067Y114948D02*
X135667D01*
X92367D02*
X107967D01*
X120167Y114848D02*
X135867D01*
X92167D02*
X107867D01*
X120267Y114748D02*
X136067D01*
X91967D02*
X107767D01*
X120367Y114648D02*
X136567D01*
X91467D02*
X107667D01*
X120467Y114548D02*
X137067D01*
X90967D02*
X107567D01*
X120467Y114448D02*
X137667D01*
X90367D02*
X107567D01*
X120567Y114348D02*
X138167D01*
X89867D02*
X107467D01*
X120667Y114248D02*
X138667D01*
X89367D02*
X107367D01*
X120767Y114148D02*
X139267D01*
X88767D02*
X107267D01*
X120767Y114048D02*
X139767D01*
X88267D02*
X107267D01*
X120867Y113948D02*
X140367D01*
X87667D02*
X107167D01*
X120967Y113848D02*
X140867D01*
X87167D02*
X107067D01*
X120967Y113748D02*
X141367D01*
X86667D02*
X107067D01*
X121067Y113648D02*
X141967D01*
X86067D02*
X106967D01*
X121167Y113548D02*
X142467D01*
X85567D02*
X106867D01*
X121167Y113448D02*
X142967D01*
X85067D02*
X106867D01*
X121267Y113348D02*
X143367D01*
X84667D02*
X106767D01*
X121267Y113248D02*
X143467D01*
X84567D02*
X106767D01*
X121367Y113148D02*
X143567D01*
X84467D02*
X106667D01*
X121367Y113048D02*
X143567D01*
X84467D02*
X106667D01*
X121467Y112948D02*
X143567D01*
X84467D02*
X106567D01*
X121467Y112848D02*
X143567D01*
X84467D02*
X106567D01*
X121567Y112748D02*
X143567D01*
X84467D02*
X106467D01*
X121567Y112648D02*
X143567D01*
X84467D02*
X106467D01*
X121667Y112548D02*
X143567D01*
X84467D02*
X106367D01*
X121667Y112448D02*
X143567D01*
X84467D02*
X106367D01*
X121767Y112348D02*
X143567D01*
X84467D02*
X106267D01*
X121767Y112248D02*
X143567D01*
X84467D02*
X106267D01*
X121767Y112148D02*
X143567D01*
X84467D02*
X106267D01*
X121867Y112048D02*
X143567D01*
X84467D02*
X106167D01*
X121867Y111948D02*
X143567D01*
X84467D02*
X106167D01*
X121867Y111848D02*
X143567D01*
X84467D02*
X106167D01*
X121967Y111748D02*
X143567D01*
X84467D02*
X106067D01*
X121967Y111648D02*
X143567D01*
X84467D02*
X106067D01*
X121967Y111548D02*
X143567D01*
X84467D02*
X106067D01*
X122067Y111448D02*
X143567D01*
X84467D02*
X105967D01*
X122067Y111348D02*
X143567D01*
X84467D02*
X105967D01*
X122067Y111248D02*
X143567D01*
X84467D02*
X105967D01*
X122067Y111148D02*
X143567D01*
X84467D02*
X105967D01*
X122167Y111048D02*
X143567D01*
X84467D02*
X105867D01*
X122167Y110948D02*
X143567D01*
X84467D02*
X105867D01*
X122167Y110848D02*
X143567D01*
X84467D02*
X105867D01*
X122167Y110748D02*
X143567D01*
X84467D02*
X105867D01*
X122167Y110648D02*
X143567D01*
X84467D02*
X105867D01*
X122167Y110548D02*
X143567D01*
X84467D02*
X105867D01*
X122267Y110448D02*
X143567D01*
X84467D02*
X105767D01*
X122267Y110348D02*
X143567D01*
X84467D02*
X105767D01*
X122267Y110248D02*
X143567D01*
X84467D02*
X105767D01*
X122267Y110148D02*
X143567D01*
X84467D02*
X105767D01*
X122267Y110048D02*
X143567D01*
X84467D02*
X105767D01*
X122267Y109948D02*
X143567D01*
X84467D02*
X105767D01*
X122267Y109848D02*
X143567D01*
X84467D02*
X105767D01*
X122267Y109748D02*
X143567D01*
X84467D02*
X105767D01*
X122267Y109648D02*
X143567D01*
X84467D02*
X105767D01*
X122267Y109548D02*
X143567D01*
X84467D02*
X105767D01*
X122267Y109448D02*
X143567D01*
X84467D02*
X105767D01*
X122267Y109348D02*
X143567D01*
X84467D02*
X105767D01*
X122367Y109248D02*
X143567D01*
X84467D02*
X105667D01*
X122267Y109148D02*
X143567D01*
X84467D02*
X105767D01*
X122267Y109048D02*
X143567D01*
X84467D02*
X105767D01*
X122267Y108948D02*
X143567D01*
X84467D02*
X105767D01*
X122267Y108848D02*
X143567D01*
X84467D02*
X105767D01*
X122267Y108748D02*
X143567D01*
X84467D02*
X105767D01*
X122267Y108648D02*
X143567D01*
X84467D02*
X105767D01*
X122267Y108548D02*
X143567D01*
X84467D02*
X105767D01*
X122267Y108448D02*
X143567D01*
X84467D02*
X105767D01*
X122267Y108348D02*
X143567D01*
X84467D02*
X105767D01*
X122267Y108248D02*
X143567D01*
X84467D02*
X105767D01*
X122267Y108148D02*
X143567D01*
X84467D02*
X105767D01*
X122267Y108048D02*
X143567D01*
X84467D02*
X105767D01*
X122167Y107948D02*
X143567D01*
X84467D02*
X105867D01*
X122167Y107848D02*
X143567D01*
X84467D02*
X105867D01*
X122167Y107748D02*
X143567D01*
X84467D02*
X105867D01*
X122167Y107648D02*
X143567D01*
X84467D02*
X105867D01*
X122167Y107548D02*
X143567D01*
X84467D02*
X105867D01*
X122067Y107448D02*
X143567D01*
X84467D02*
X105967D01*
X122067Y107348D02*
X143567D01*
X84467D02*
X105967D01*
X122067Y107248D02*
X143567D01*
X84467D02*
X105967D01*
X122067Y107148D02*
X143567D01*
X84467D02*
X105967D01*
X121967Y107048D02*
X143567D01*
X84467D02*
X106067D01*
X121967Y106948D02*
X143567D01*
X84467D02*
X106067D01*
X121967Y106848D02*
X143567D01*
X84467D02*
X106067D01*
X121867Y106748D02*
X143567D01*
X84467D02*
X106167D01*
X121867Y106648D02*
X143567D01*
X84467D02*
X106167D01*
X121867Y106548D02*
X143567D01*
X84467D02*
X106167D01*
X121767Y106448D02*
X143567D01*
X84467D02*
X106267D01*
X121767Y106348D02*
X143567D01*
X84467D02*
X106267D01*
X121767Y106248D02*
X143567D01*
X84467D02*
X106267D01*
X121667Y106148D02*
X143567D01*
X84467D02*
X106367D01*
X121667Y106048D02*
X143567D01*
X84467D02*
X106367D01*
X121667Y105948D02*
X143567D01*
X84467D02*
X106367D01*
X121567Y105848D02*
X143567D01*
X84467D02*
X106467D01*
X121567Y105748D02*
X143567D01*
X84467D02*
X106467D01*
X121467Y105648D02*
X143567D01*
X84467D02*
X106567D01*
X121467Y105548D02*
X143567D01*
X84467D02*
X106567D01*
X121367Y105448D02*
X143467D01*
X84567D02*
X106667D01*
X121367Y105348D02*
X143467D01*
X84567D02*
X106667D01*
X121267Y105248D02*
X143267D01*
X84767D02*
X106767D01*
X121267Y105148D02*
X142867D01*
X85167D02*
X106767D01*
X121167Y105048D02*
X142367D01*
X85667D02*
X106867D01*
X121067Y104948D02*
X141767D01*
X86267D02*
X106967D01*
X121067Y104848D02*
X141267D01*
X86767D02*
X106967D01*
X120967Y104748D02*
X140767D01*
X87267D02*
X107067D01*
X120867Y104648D02*
X140167D01*
X87867D02*
X107167D01*
X120867Y104548D02*
X139667D01*
X88367D02*
X107167D01*
X120767Y104448D02*
X139167D01*
X88867D02*
X107267D01*
X120667Y104348D02*
X138567D01*
X89467D02*
X107367D01*
X120667Y104248D02*
X138067D01*
X89967D02*
X107367D01*
X120567Y104148D02*
X137467D01*
X90567D02*
X107467D01*
X120467Y104048D02*
X136967D01*
X91067D02*
X107567D01*
X120367Y103948D02*
X136467D01*
X91567D02*
X107667D01*
X120267Y103848D02*
X136067D01*
X91967D02*
X107767D01*
X120167Y103748D02*
X135867D01*
X92167D02*
X107867D01*
X120167Y103648D02*
X135867D01*
X92167D02*
X107867D01*
X120067Y103548D02*
X135767D01*
X92267D02*
X107967D01*
X119967Y103448D02*
X135667D01*
X92367D02*
X108067D01*
X119867Y103348D02*
X135667D01*
X92367D02*
X108167D01*
X119667Y103248D02*
X135667D01*
X92367D02*
X108367D01*
X119567Y103148D02*
X135567D01*
X92467D02*
X108467D01*
X119467Y103048D02*
X135567D01*
X92467D02*
X108567D01*
X119367Y102948D02*
X135467D01*
X92567D02*
X108667D01*
X119267Y102848D02*
X135467D01*
X92567D02*
X108767D01*
X119167Y102748D02*
X135467D01*
X92567D02*
X108867D01*
X118967Y102648D02*
X135367D01*
X92667D02*
X109067D01*
X118867Y102548D02*
X135367D01*
X92667D02*
X109167D01*
X118767Y102448D02*
X135267D01*
X92767D02*
X109267D01*
X118567Y102348D02*
X135267D01*
X92767D02*
X109467D01*
X118467Y102248D02*
X135267D01*
X92767D02*
X109567D01*
X118367Y102148D02*
X135167D01*
X92867D02*
X109667D01*
X118167Y102048D02*
X135167D01*
X92867D02*
X109867D01*
X118067Y101948D02*
X135067D01*
X92967D02*
X109967D01*
X117867Y101848D02*
X135067D01*
X92967D02*
X110167D01*
X117767Y101748D02*
X135067D01*
X92967D02*
X110267D01*
X117567Y101648D02*
X134967D01*
X93067D02*
X110467D01*
X117467Y101548D02*
X134967D01*
X93067D02*
X110567D01*
X117367Y101448D02*
X134867D01*
X93167D02*
X110667D01*
X117267Y101348D02*
X134867D01*
X93167D02*
X110767D01*
X117267Y101248D02*
X134867D01*
X93167D02*
X110767D01*
X117267Y101148D02*
X134767D01*
X93267D02*
X110767D01*
X117367Y101048D02*
X134767D01*
X93267D02*
X110667D01*
X117367Y100948D02*
X134667D01*
X93367D02*
X110667D01*
X117467Y100848D02*
X134667D01*
X93367D02*
X110567D01*
X117467Y100748D02*
X134667D01*
X93367D02*
X110567D01*
X117467Y100648D02*
X134567D01*
X93467D02*
X110567D01*
X117567Y100548D02*
X134567D01*
X93467D02*
X110467D01*
X117567Y100448D02*
X134467D01*
X93567D02*
X110467D01*
X117667Y100348D02*
X134467D01*
X93567D02*
X110367D01*
X117667Y100248D02*
X134467D01*
X93567D02*
X110367D01*
X117767Y100148D02*
X134367D01*
X93667D02*
X110267D01*
X117767Y100048D02*
X134367D01*
X93667D02*
X110267D01*
X117767Y99948D02*
X134267D01*
X93767D02*
X110267D01*
X117867Y99848D02*
X134267D01*
X93767D02*
X110167D01*
X117867Y99748D02*
X134267D01*
X93767D02*
X110167D01*
X117967Y99648D02*
X134167D01*
X93867D02*
X110067D01*
X117967Y99548D02*
X134167D01*
X93867D02*
X110067D01*
X117967Y99448D02*
X134067D01*
X93967D02*
X110067D01*
X118067Y99348D02*
X134067D01*
X93967D02*
X109967D01*
X118067Y99248D02*
X134067D01*
X93967D02*
X109967D01*
X118167Y99148D02*
X133967D01*
X94067D02*
X109867D01*
X118167Y99048D02*
X133967D01*
X94067D02*
X109867D01*
X118267Y98948D02*
X133867D01*
X94167D02*
X109767D01*
X118267Y98848D02*
X133867D01*
X94167D02*
X109767D01*
X118267Y98748D02*
X133867D01*
X94167D02*
X109767D01*
X118367Y98648D02*
X133767D01*
X94267D02*
X109667D01*
X118367Y98548D02*
X133767D01*
X94267D02*
X109667D01*
X118467Y98448D02*
X133667D01*
X94367D02*
X109567D01*
X118467Y98348D02*
X133667D01*
X94367D02*
X109567D01*
X118467Y98248D02*
X133667D01*
X94367D02*
X109567D01*
X118567Y98148D02*
X133567D01*
X94467D02*
X109467D01*
X118567Y98048D02*
X133567D01*
X94467D02*
X109467D01*
X118667Y97948D02*
X133467D01*
X94567D02*
X109367D01*
X118667Y97848D02*
X133467D01*
X94567D02*
X109367D01*
X118667Y97748D02*
X133467D01*
X94567D02*
X109367D01*
X118767Y97648D02*
X133467D01*
X94567D02*
X109267D01*
X118767Y97548D02*
X133467D01*
X94567D02*
X109267D01*
X118867Y97448D02*
X133567D01*
X94467D02*
X109167D01*
X118867Y97348D02*
X133567D01*
X94467D02*
X109167D01*
X118967Y97248D02*
X133667D01*
X94367D02*
X109067D01*
X118967Y97148D02*
X133767D01*
X94267D02*
X109067D01*
X118967Y97048D02*
X133767D01*
X94267D02*
X109067D01*
X119067Y96948D02*
X133867D01*
X94167D02*
X108967D01*
X119067Y96848D02*
X133967D01*
X94067D02*
X108967D01*
X119167Y96748D02*
X133967D01*
X94067D02*
X108867D01*
X119167Y96648D02*
X134067D01*
X93967D02*
X108867D01*
X119167Y96548D02*
X134167D01*
X93867D02*
X108867D01*
X119267Y96448D02*
X134167D01*
X93867D02*
X108767D01*
X119267Y96348D02*
X134267D01*
X93767D02*
X108767D01*
X119367Y96248D02*
X134367D01*
X93667D02*
X108667D01*
X119367Y96148D02*
X134367D01*
X93667D02*
X108667D01*
X119467Y96048D02*
X134467D01*
X93567D02*
X108567D01*
X119467Y95948D02*
X134567D01*
X93467D02*
X108567D01*
X119467Y95848D02*
X134667D01*
X93367D02*
X108567D01*
X119567Y95748D02*
X134667D01*
X93367D02*
X108467D01*
X119567Y95648D02*
X134767D01*
X93267D02*
X108467D01*
X119667Y95548D02*
X134867D01*
X93167D02*
X108367D01*
X119667Y95448D02*
X134867D01*
X93167D02*
X108367D01*
X119667Y95348D02*
X134967D01*
X93067D02*
X108367D01*
X119767Y95248D02*
X135067D01*
X92967D02*
X108267D01*
X119767Y95148D02*
X135067D01*
X92967D02*
X108267D01*
X119867Y95048D02*
X135167D01*
X92867D02*
X108167D01*
X119867Y94948D02*
X135267D01*
X92767D02*
X108167D01*
X119867Y94848D02*
X135267D01*
X92767D02*
X108167D01*
X119967Y94748D02*
X135367D01*
X92667D02*
X108067D01*
X119967Y94648D02*
X135467D01*
X92567D02*
X108067D01*
X120067Y94548D02*
X135467D01*
X92567D02*
X107967D01*
X120067Y94448D02*
X135567D01*
X92467D02*
X107967D01*
X120167Y94348D02*
X135667D01*
X92367D02*
X107867D01*
X120167Y94248D02*
X135667D01*
X92367D02*
X107867D01*
X120167Y94148D02*
X135767D01*
X92267D02*
X107867D01*
X120267Y94048D02*
X135867D01*
X92167D02*
X107767D01*
X120267Y93948D02*
X135967D01*
X92067D02*
X107767D01*
X120367Y93848D02*
X135967D01*
X92067D02*
X107667D01*
X120367Y93748D02*
X136067D01*
X91967D02*
X107667D01*
X120367Y93648D02*
X136167D01*
X91867D02*
X107667D01*
X120467Y93548D02*
X136167D01*
X91867D02*
X107567D01*
X120467Y93448D02*
X136267D01*
X91767D02*
X107567D01*
X120567Y93348D02*
X136367D01*
X91667D02*
X107467D01*
X120567Y93248D02*
X136367D01*
X91667D02*
X107467D01*
X120667Y93148D02*
X136467D01*
X91567D02*
X107367D01*
X120667Y93048D02*
X136567D01*
X91467D02*
X107367D01*
X120667Y92948D02*
X136567D01*
X91467D02*
X107367D01*
X120767Y92848D02*
X136667D01*
X91367D02*
X107267D01*
X120767Y92748D02*
X136767D01*
X91267D02*
X107267D01*
X120867Y92648D02*
X136767D01*
X91267D02*
X107167D01*
X120867Y92548D02*
X136867D01*
X91167D02*
X107167D01*
X120867Y92448D02*
X136967D01*
X91067D02*
X107167D01*
X120967Y92348D02*
X137067D01*
X90967D02*
X107067D01*
X120967Y92248D02*
X137067D01*
X90967D02*
X107067D01*
X121067Y92148D02*
X137167D01*
X90867D02*
X106967D01*
X121067Y92048D02*
X137267D01*
X90767D02*
X106967D01*
X121067Y91948D02*
X137267D01*
X90767D02*
X106967D01*
X121167Y91848D02*
X137367D01*
X90667D02*
X106867D01*
X121167Y91748D02*
X137467D01*
X90567D02*
X106867D01*
X121267Y91648D02*
X137467D01*
X90567D02*
X106767D01*
X121267Y91548D02*
X137567D01*
X90467D02*
X106767D01*
X121367Y91448D02*
X137567D01*
X90467D02*
X106667D01*
X121367Y91348D02*
X137667D01*
X90367D02*
X106667D01*
X121367Y91248D02*
X137667D01*
X90367D02*
X106667D01*
X121467Y91148D02*
X137567D01*
X90467D02*
X106567D01*
X121467Y91048D02*
X137567D01*
X90467D02*
X106567D01*
X121567Y90948D02*
X137467D01*
X90567D02*
X106467D01*
X121567Y90848D02*
X137367D01*
X90667D02*
X106467D01*
X121567Y90748D02*
X137267D01*
X90767D02*
X106467D01*
X121667Y90648D02*
X137167D01*
X90867D02*
X106367D01*
X121667Y90548D02*
X137067D01*
X90967D02*
X106367D01*
X121767Y90448D02*
X136967D01*
X91067D02*
X106267D01*
X121767Y90348D02*
X136867D01*
X91167D02*
X106267D01*
X121867Y90248D02*
X136767D01*
X91267D02*
X106167D01*
X121867Y90148D02*
X136667D01*
X91367D02*
X106167D01*
X121867Y90048D02*
X136567D01*
X91467D02*
X106167D01*
X121967Y89948D02*
X136467D01*
X91567D02*
X106067D01*
X121967Y89848D02*
X136367D01*
X91667D02*
X106067D01*
X125867Y89748D02*
X136267D01*
X122067D02*
X125667D01*
X102367D02*
X105967D01*
X91767D02*
X102167D01*
X126067Y89648D02*
X136167D01*
X122067D02*
X125367D01*
X102667D02*
X105967D01*
X91867D02*
X101967D01*
X126267Y89548D02*
X136067D01*
X122067D02*
X125167D01*
X102867D02*
X105967D01*
X91967D02*
X101767D01*
X126367Y89448D02*
X135967D01*
X122167D02*
X124967D01*
X103067D02*
X105867D01*
X92067D02*
X101667D01*
X126567Y89348D02*
X135867D01*
X122167D02*
X124767D01*
X103267D02*
X105867D01*
X92167D02*
X101467D01*
X126667Y89248D02*
X135767D01*
X122267D02*
X124567D01*
X103467D02*
X105767D01*
X92267D02*
X101367D01*
X126867Y89148D02*
X135667D01*
X122267D02*
X124467D01*
X103567D02*
X105767D01*
X92367D02*
X101167D01*
X126967Y89048D02*
X135567D01*
X122267D02*
X124267D01*
X103767D02*
X105767D01*
X92467D02*
X101067D01*
X127067Y88948D02*
X135467D01*
X122367D02*
X124067D01*
X103967D02*
X105667D01*
X92567D02*
X100967D01*
X127267Y88848D02*
X135367D01*
X122367D02*
X123867D01*
X104167D02*
X105667D01*
X92667D02*
X100767D01*
X127367Y88748D02*
X135267D01*
X122467D02*
X123667D01*
X104367D02*
X105567D01*
X92767D02*
X100667D01*
X127567Y88648D02*
X135167D01*
X122467D02*
X123467D01*
X104567D02*
X105567D01*
X92867D02*
X100467D01*
X127667Y88548D02*
X135067D01*
X122567D02*
X123267D01*
X104767D02*
X105467D01*
X92967D02*
X100367D01*
X127867Y88448D02*
X134967D01*
X122567D02*
X123067D01*
X104967D02*
X105467D01*
X93067D02*
X100167D01*
X127967Y88348D02*
X134867D01*
X122667D02*
X122867D01*
X105167D02*
X105367D01*
X93167D02*
X100067D01*
X128167Y88248D02*
X134767D01*
X93267D02*
X99867D01*
X128267Y88148D02*
X134667D01*
X93367D02*
X99767D01*
X128467Y88048D02*
X134567D01*
X93467D02*
X99567D01*
X128567Y87948D02*
X134467D01*
X93567D02*
X99467D01*
X128667Y87848D02*
X134367D01*
X93667D02*
X99367D01*
X128867Y87748D02*
X134267D01*
X93767D02*
X99167D01*
X128967Y87648D02*
X134167D01*
X93867D02*
X99067D01*
X129167Y87548D02*
X134067D01*
X93967D02*
X98867D01*
X129267Y87448D02*
X133967D01*
X94067D02*
X98767D01*
X129467Y87348D02*
X133867D01*
X94167D02*
X98567D01*
X129567Y87248D02*
X133767D01*
X94267D02*
X98467D01*
X129767Y87148D02*
X133667D01*
X94367D02*
X98267D01*
X129867Y87048D02*
X133567D01*
X94467D02*
X98167D01*
X130067Y86948D02*
X133467D01*
X94567D02*
X97967D01*
X130167Y86848D02*
X133367D01*
X94667D02*
X97867D01*
X130267Y86748D02*
X133267D01*
X94767D02*
X97767D01*
X130467Y86648D02*
X133167D01*
X94867D02*
X97567D01*
X130567Y86548D02*
X133067D01*
X94967D02*
X97467D01*
X130767Y86448D02*
X132967D01*
X95067D02*
X97267D01*
X130867Y86348D02*
X132867D01*
X95167D02*
X97167D01*
X131067Y86248D02*
X132767D01*
X95267D02*
X96967D01*
X131167Y86148D02*
X132667D01*
X95367D02*
X96867D01*
X131367Y86048D02*
X132567D01*
X95467D02*
X96667D01*
X131467Y85948D02*
X132467D01*
X95567D02*
X96567D01*
X131667Y85848D02*
X132367D01*
X95667D02*
X96367D01*
X131767Y85748D02*
X132167D01*
X95867D02*
X96267D01*
X148067Y79448D02*
X149567D01*
X139867D02*
X141167D01*
X132767D02*
X134167D01*
X124567D02*
X125767D01*
X113767D02*
X115467D01*
X106467D02*
X107967D01*
X90267D02*
X91467D01*
X85067D02*
X86467D01*
X78567D02*
X79867D01*
X147767Y79348D02*
X149867D01*
X142567D02*
X144167D01*
X139567D02*
X141367D01*
X132467D02*
X134567D01*
X127267D02*
X128767D01*
X124267D02*
X126167D01*
X113367D02*
X115967D01*
X106167D02*
X108267D01*
X101067D02*
X102567D01*
X96267D02*
X97867D01*
X92967D02*
X94467D01*
X89967D02*
X91767D01*
X84767D02*
X86867D01*
X78167D02*
X80267D01*
X147467Y79248D02*
X150167D01*
X142567D02*
X144167D01*
X139367D02*
X141667D01*
X132167D02*
X134767D01*
X127267D02*
X128767D01*
X124067D02*
X126367D01*
X113067D02*
X116167D01*
X105867D02*
X108567D01*
X101067D02*
X102567D01*
X96267D02*
X97867D01*
X92967D02*
X94467D01*
X89767D02*
X92067D01*
X84467D02*
X87167D01*
X77967D02*
X80567D01*
X147267Y79148D02*
X150367D01*
X142567D02*
X144167D01*
X139167D02*
X141867D01*
X131967D02*
X134967D01*
X127267D02*
X128767D01*
X123867D02*
X126567D01*
X112767D02*
X116467D01*
X105667D02*
X108767D01*
X101067D02*
X102567D01*
X96267D02*
X97867D01*
X92967D02*
X94467D01*
X89567D02*
X92167D01*
X84167D02*
X87367D01*
X77767D02*
X80767D01*
X147067Y79048D02*
X150567D01*
X142567D02*
X144167D01*
X138967D02*
X142067D01*
X131767D02*
X135167D01*
X127267D02*
X128767D01*
X123667D02*
X126667D01*
X112567D02*
X116567D01*
X105467D02*
X108967D01*
X101067D02*
X102567D01*
X96267D02*
X97867D01*
X92967D02*
X94467D01*
X89367D02*
X92367D01*
X84067D02*
X87567D01*
X77567D02*
X80967D01*
X146867Y78948D02*
X150667D01*
X142567D02*
X144167D01*
X138867D02*
X142167D01*
X131667D02*
X135267D01*
X127267D02*
X128767D01*
X123567D02*
X126867D01*
X112367D02*
X116767D01*
X105367D02*
X109167D01*
X101067D02*
X102567D01*
X96267D02*
X97867D01*
X92967D02*
X94467D01*
X89267D02*
X92467D01*
X83867D02*
X87767D01*
X77367D02*
X81067D01*
X146767Y78848D02*
X150867D01*
X142567D02*
X144167D01*
X138767D02*
X142267D01*
X131467D02*
X135467D01*
X127267D02*
X128767D01*
X123367D02*
X126967D01*
X112167D02*
X116867D01*
X105167D02*
X109267D01*
X101067D02*
X102567D01*
X96267D02*
X97867D01*
X92967D02*
X94467D01*
X89267D02*
X92567D01*
X83767D02*
X87867D01*
X77267D02*
X81167D01*
X146667Y78748D02*
X150967D01*
X142567D02*
X144167D01*
X138667D02*
X142367D01*
X131367D02*
X135567D01*
X127267D02*
X128767D01*
X123367D02*
X127067D01*
X112067D02*
X116967D01*
X105067D02*
X109367D01*
X101067D02*
X102567D01*
X96267D02*
X97867D01*
X92967D02*
X94467D01*
X89367D02*
X92667D01*
X83567D02*
X88067D01*
X77167D02*
X81267D01*
X146567Y78648D02*
X151067D01*
X142567D02*
X144167D01*
X138567D02*
X142467D01*
X131267D02*
X135667D01*
X127267D02*
X128767D01*
X123267D02*
X127167D01*
X111867D02*
X117067D01*
X104967D02*
X109467D01*
X101067D02*
X102567D01*
X96267D02*
X97867D01*
X92967D02*
X94467D01*
X89467D02*
X92767D01*
X83467D02*
X88167D01*
X76967D02*
X81467D01*
X146467Y78548D02*
X151167D01*
X138467D02*
X144167D01*
X131167D02*
X135767D01*
X123167D02*
X128767D01*
X111767D02*
X117167D01*
X104867D02*
X109567D01*
X101067D02*
X102567D01*
X96267D02*
X97867D01*
X89567D02*
X94467D01*
X83367D02*
X88267D01*
X76867D02*
X81467D01*
X146367Y78448D02*
X151267D01*
X138367D02*
X144167D01*
X131067D02*
X135867D01*
X123067D02*
X128767D01*
X111667D02*
X117267D01*
X104767D02*
X109667D01*
X101067D02*
X102567D01*
X96267D02*
X97867D01*
X89667D02*
X94467D01*
X83267D02*
X88367D01*
X76867D02*
X81567D01*
X146267Y78348D02*
X151267D01*
X138367D02*
X144167D01*
X130967D02*
X135867D01*
X122967D02*
X128767D01*
X111767D02*
X117267D01*
X104767D02*
X109767D01*
X101067D02*
X102567D01*
X96267D02*
X97867D01*
X89767D02*
X94467D01*
X83167D02*
X88467D01*
X76767D02*
X81667D01*
X146167Y78248D02*
X151367D01*
X138267D02*
X144167D01*
X130867D02*
X135967D01*
X122967D02*
X128767D01*
X111867D02*
X117367D01*
X104667D02*
X109867D01*
X101067D02*
X102567D01*
X96267D02*
X97867D01*
X89767D02*
X94467D01*
X83067D02*
X88467D01*
X76667D02*
X81767D01*
X146167Y78148D02*
X151467D01*
X138167D02*
X144167D01*
X130767D02*
X136067D01*
X122867D02*
X128767D01*
X111967D02*
X117467D01*
X104567D02*
X109867D01*
X101067D02*
X102567D01*
X96267D02*
X97867D01*
X89867D02*
X94467D01*
X82967D02*
X88567D01*
X76567D02*
X81767D01*
X146067Y78048D02*
X151567D01*
X138167D02*
X144167D01*
X133867D02*
X136067D01*
X130767D02*
X133067D01*
X122867D02*
X128767D01*
X115067D02*
X117467D01*
X112067D02*
X114267D01*
X104467D02*
X109967D01*
X101067D02*
X102567D01*
X96267D02*
X97867D01*
X89967D02*
X94467D01*
X83167D02*
X88667D01*
X79667D02*
X81867D01*
X76467D02*
X78867D01*
X149167Y77948D02*
X151567D01*
X145967D02*
X148367D01*
X141467D02*
X144167D01*
X138067D02*
X140567D01*
X134167D02*
X136167D01*
X130667D02*
X132767D01*
X126067D02*
X128767D01*
X122767D02*
X125267D01*
X115567D02*
X117467D01*
X112067D02*
X113767D01*
X107667D02*
X110067D01*
X104467D02*
X106867D01*
X101067D02*
X102567D01*
X96267D02*
X97867D01*
X91767D02*
X94467D01*
X90067D02*
X90967D01*
X86267D02*
X88767D01*
X83267D02*
X85267D01*
X79967D02*
X81967D01*
X76467D02*
X78567D01*
X149467Y77848D02*
X151667D01*
X145967D02*
X148067D01*
X141667D02*
X144167D01*
X138067D02*
X140267D01*
X134367D02*
X136167D01*
X130667D02*
X132567D01*
X126367D02*
X128767D01*
X122767D02*
X124967D01*
X115767D02*
X117567D01*
X112167D02*
X113467D01*
X107967D02*
X110067D01*
X104367D02*
X106567D01*
X101067D02*
X102567D01*
X96267D02*
X97867D01*
X92067D02*
X94467D01*
X90167D02*
X90767D01*
X86567D02*
X88767D01*
X83367D02*
X84967D01*
X80167D02*
X81967D01*
X76367D02*
X78367D01*
X149667Y77748D02*
X151667D01*
X145867D02*
X147867D01*
X141867D02*
X144167D01*
X138067D02*
X140067D01*
X134467D02*
X136267D01*
X130567D02*
X132467D01*
X126567D02*
X128767D01*
X122667D02*
X124767D01*
X115867D02*
X117567D01*
X112267D02*
X113267D01*
X108167D02*
X110167D01*
X104367D02*
X106367D01*
X101067D02*
X102567D01*
X96267D02*
X97867D01*
X92267D02*
X94467D01*
X90267D02*
X90567D01*
X86767D02*
X88867D01*
X83467D02*
X84767D01*
X80267D02*
X81967D01*
X76367D02*
X78167D01*
X149867Y77648D02*
X151767D01*
X145867D02*
X147767D01*
X142067D02*
X144167D01*
X138067D02*
X139967D01*
X134667D02*
X136267D01*
X130567D02*
X132367D01*
X126667D02*
X128767D01*
X122667D02*
X124667D01*
X115967D02*
X117567D01*
X112367D02*
X113067D01*
X108267D02*
X110167D01*
X104267D02*
X106167D01*
X101067D02*
X102567D01*
X96267D02*
X97867D01*
X92367D02*
X94467D01*
X90267D02*
X90367D01*
X86967D02*
X88867D01*
X83567D02*
X84567D01*
X80367D02*
X82067D01*
X76267D02*
X78067D01*
X149967Y77548D02*
X151767D01*
X145867D02*
X147667D01*
X142167D02*
X144167D01*
X137967D02*
X139867D01*
X134767D02*
X136367D01*
X130467D02*
X132267D01*
X126767D02*
X128767D01*
X122667D02*
X124567D01*
X115967D02*
X117567D01*
X112467D02*
X112867D01*
X108367D02*
X110167D01*
X104267D02*
X106067D01*
X101067D02*
X102567D01*
X96267D02*
X97867D01*
X92467D02*
X94467D01*
X87067D02*
X88967D01*
X83667D02*
X84467D01*
X80467D02*
X82067D01*
X76267D02*
X77967D01*
X150067Y77448D02*
X151767D01*
X145767D02*
X147567D01*
X142167D02*
X144167D01*
X137967D02*
X139767D01*
X134767D02*
X136367D01*
X130467D02*
X132167D01*
X126867D02*
X128767D01*
X122567D02*
X124467D01*
X116067D02*
X117567D01*
X112567D02*
X112767D01*
X108467D02*
X110267D01*
X104267D02*
X105967D01*
X101067D02*
X102567D01*
X96267D02*
X97867D01*
X92567D02*
X94467D01*
X87167D02*
X88967D01*
X83767D02*
X84367D01*
X80567D02*
X82167D01*
X76267D02*
X77967D01*
X150167Y77348D02*
X151867D01*
X145767D02*
X147467D01*
X142267D02*
X144167D01*
X137967D02*
X139667D01*
X134867D02*
X136467D01*
X130467D02*
X132067D01*
X126967D02*
X128767D01*
X122567D02*
X124367D01*
X116067D02*
X117667D01*
X108567D02*
X110267D01*
X104167D02*
X105867D01*
X101067D02*
X102567D01*
X96267D02*
X97867D01*
X92667D02*
X94467D01*
X87267D02*
X88967D01*
X83867D02*
X84267D01*
X80667D02*
X82167D01*
X76167D02*
X77867D01*
X150167Y77248D02*
X151867D01*
X145767D02*
X147367D01*
X142367D02*
X144167D01*
X137967D02*
X139667D01*
X134967D02*
X136467D01*
X130367D02*
X132067D01*
X127067D02*
X128767D01*
X122567D02*
X124367D01*
X116067D02*
X117667D01*
X108667D02*
X110267D01*
X104167D02*
X105867D01*
X101067D02*
X102567D01*
X96267D02*
X97867D01*
X92767D02*
X94467D01*
X87367D02*
X89067D01*
X83967D02*
X84167D01*
X80667D02*
X82167D01*
X76167D02*
X77767D01*
X150267Y77148D02*
X151867D01*
X145667D02*
X147367D01*
X142367D02*
X144167D01*
X137967D02*
X139567D01*
X134967D02*
X136467D01*
X130367D02*
X131967D01*
X127067D02*
X128767D01*
X122567D02*
X124267D01*
X116067D02*
X117667D01*
X108667D02*
X110367D01*
X104167D02*
X105767D01*
X101067D02*
X102567D01*
X96267D02*
X97867D01*
X92767D02*
X94467D01*
X87467D02*
X89067D01*
X80767D02*
X82267D01*
X76167D02*
X77767D01*
X150267Y77048D02*
X151867D01*
X145667D02*
X147267D01*
X142367D02*
X144167D01*
X137967D02*
X139567D01*
X135067D02*
X136467D01*
X130367D02*
X131967D01*
X127167D02*
X128767D01*
X122567D02*
X124267D01*
X116067D02*
X117667D01*
X108767D02*
X110367D01*
X104167D02*
X105767D01*
X101067D02*
X102567D01*
X96267D02*
X97867D01*
X92867D02*
X94467D01*
X87467D02*
X89067D01*
X80767D02*
X82267D01*
X76067D02*
X77667D01*
X150367Y76948D02*
X151867D01*
X145667D02*
X147267D01*
X142467D02*
X144167D01*
X137967D02*
X139567D01*
X135067D02*
X136567D01*
X130367D02*
X131867D01*
X127167D02*
X128767D01*
X122567D02*
X124167D01*
X116067D02*
X117667D01*
X108767D02*
X110367D01*
X104167D02*
X105667D01*
X101067D02*
X102567D01*
X96267D02*
X97867D01*
X92867D02*
X94467D01*
X87567D02*
X89167D01*
X80867D02*
X82267D01*
X76067D02*
X77667D01*
X150367Y76848D02*
X151967D01*
X145667D02*
X147167D01*
X142467D02*
X144167D01*
X137867D02*
X139467D01*
X135067D02*
X136567D01*
X130267D02*
X131867D01*
X127167D02*
X128767D01*
X122567D02*
X124167D01*
X116067D02*
X117667D01*
X108867D02*
X110367D01*
X104067D02*
X105667D01*
X101067D02*
X102567D01*
X96267D02*
X97867D01*
X92867D02*
X94467D01*
X87567D02*
X89167D01*
X80867D02*
X82267D01*
X76067D02*
X77667D01*
X150367Y76748D02*
X151967D01*
X145667D02*
X147167D01*
X142467D02*
X144167D01*
X137867D02*
X139467D01*
X135167D02*
X136567D01*
X130267D02*
X131867D01*
X127267D02*
X128767D01*
X122567D02*
X124167D01*
X115967D02*
X117567D01*
X108867D02*
X110367D01*
X104067D02*
X105667D01*
X101067D02*
X102567D01*
X96267D02*
X97867D01*
X92967D02*
X94467D01*
X87567D02*
X89167D01*
X80867D02*
X82367D01*
X76067D02*
X77567D01*
X150467Y76648D02*
X151967D01*
X145667D02*
X147167D01*
X142567D02*
X144167D01*
X137867D02*
X139467D01*
X135167D02*
X136567D01*
X130267D02*
X131867D01*
X127267D02*
X128767D01*
X122567D02*
X124067D01*
X115967D02*
X117567D01*
X108867D02*
X110467D01*
X104067D02*
X105567D01*
X101067D02*
X102567D01*
X96267D02*
X97867D01*
X92967D02*
X94467D01*
X87667D02*
X89167D01*
X80867D02*
X82367D01*
X76067D02*
X77567D01*
X150467Y76548D02*
X151967D01*
X145567D02*
X147167D01*
X142567D02*
X144167D01*
X137867D02*
X139467D01*
X135167D02*
X136667D01*
X130267D02*
X131767D01*
X127267D02*
X128767D01*
X122567D02*
X124067D01*
X115767D02*
X117567D01*
X108867D02*
X110467D01*
X104067D02*
X105567D01*
X101067D02*
X102567D01*
X96267D02*
X97867D01*
X92967D02*
X94467D01*
X87667D02*
X89267D01*
X80867D02*
X82367D01*
X76067D02*
X77567D01*
X150467Y76448D02*
X151967D01*
X145567D02*
X147167D01*
X142567D02*
X144167D01*
X137867D02*
X139467D01*
X135167D02*
X136667D01*
X130267D02*
X131767D01*
X127267D02*
X128767D01*
X122567D02*
X124067D01*
X115567D02*
X117567D01*
X108867D02*
X110467D01*
X104067D02*
X105567D01*
X101067D02*
X102567D01*
X96267D02*
X97867D01*
X92967D02*
X94467D01*
X87667D02*
X89267D01*
X80967D02*
X82367D01*
X76067D02*
X77567D01*
X150467Y76348D02*
X151967D01*
X145567D02*
X147167D01*
X142567D02*
X144167D01*
X137867D02*
X139467D01*
X135167D02*
X136667D01*
X130267D02*
X131767D01*
X127267D02*
X128767D01*
X122567D02*
X124067D01*
X115267D02*
X117467D01*
X108967D02*
X110467D01*
X104067D02*
X105567D01*
X101067D02*
X102567D01*
X96267D02*
X97867D01*
X92967D02*
X94467D01*
X87667D02*
X89267D01*
X80967D02*
X82367D01*
X76067D02*
X77567D01*
X150467Y76248D02*
X151967D01*
X145567D02*
X147067D01*
X142567D02*
X144167D01*
X137867D02*
X139367D01*
X135167D02*
X136667D01*
X130267D02*
X131767D01*
X127267D02*
X128767D01*
X122567D02*
X124067D01*
X114167D02*
X117467D01*
X108967D02*
X110467D01*
X104067D02*
X105567D01*
X101067D02*
X102567D01*
X96267D02*
X97867D01*
X92967D02*
X94467D01*
X87767D02*
X89267D01*
X80967D02*
X82367D01*
X75967D02*
X77567D01*
X150467Y76148D02*
X151967D01*
X145567D02*
X147067D01*
X142567D02*
X144167D01*
X137867D02*
X139367D01*
X130267D02*
X136667D01*
X127267D02*
X128767D01*
X122567D02*
X124067D01*
X113267D02*
X117467D01*
X108967D02*
X110467D01*
X104067D02*
X105567D01*
X101067D02*
X102567D01*
X96267D02*
X97867D01*
X92967D02*
X94467D01*
X87767D02*
X89267D01*
X75967D02*
X82467D01*
X150467Y76048D02*
X151967D01*
X145567D02*
X147067D01*
X142567D02*
X144167D01*
X137867D02*
X139367D01*
X130267D02*
X136667D01*
X127267D02*
X128767D01*
X122567D02*
X124067D01*
X112867D02*
X117367D01*
X108967D02*
X110467D01*
X104067D02*
X105567D01*
X101067D02*
X102567D01*
X96267D02*
X97867D01*
X92967D02*
X94467D01*
X87767D02*
X89267D01*
X75967D02*
X82467D01*
X150467Y75948D02*
X151967D01*
X145567D02*
X147067D01*
X142567D02*
X144167D01*
X137867D02*
X139367D01*
X130267D02*
X136667D01*
X127267D02*
X128767D01*
X122567D02*
X124067D01*
X112667D02*
X117367D01*
X108967D02*
X110467D01*
X104067D02*
X105567D01*
X101067D02*
X102567D01*
X96267D02*
X97867D01*
X92967D02*
X94467D01*
X87767D02*
X89267D01*
X75967D02*
X82467D01*
X150467Y75848D02*
X151967D01*
X145567D02*
X147067D01*
X142567D02*
X144167D01*
X137867D02*
X139367D01*
X130267D02*
X136667D01*
X127267D02*
X128767D01*
X122567D02*
X124067D01*
X112467D02*
X117267D01*
X108967D02*
X110467D01*
X104067D02*
X105567D01*
X101067D02*
X102567D01*
X96267D02*
X97867D01*
X92967D02*
X94467D01*
X87767D02*
X89267D01*
X75967D02*
X82467D01*
X150467Y75748D02*
X152067D01*
X145567D02*
X147067D01*
X142567D02*
X144167D01*
X137867D02*
X139367D01*
X130267D02*
X136667D01*
X127267D02*
X128767D01*
X122567D02*
X124067D01*
X112267D02*
X117167D01*
X108967D02*
X110467D01*
X104067D02*
X105567D01*
X101067D02*
X102567D01*
X96267D02*
X97867D01*
X92967D02*
X94467D01*
X87767D02*
X89267D01*
X75967D02*
X82467D01*
X150467Y75648D02*
X152067D01*
X145567D02*
X147067D01*
X142567D02*
X144167D01*
X137867D02*
X139367D01*
X130267D02*
X136667D01*
X127267D02*
X128767D01*
X122567D02*
X124067D01*
X112167D02*
X117067D01*
X108967D02*
X110467D01*
X103967D02*
X105567D01*
X101067D02*
X102567D01*
X96267D02*
X97867D01*
X92967D02*
X94467D01*
X87767D02*
X89267D01*
X75967D02*
X82467D01*
X150467Y75548D02*
X152067D01*
X145567D02*
X147067D01*
X142567D02*
X144167D01*
X137867D02*
X139367D01*
X130267D02*
X136667D01*
X127267D02*
X128767D01*
X122567D02*
X124067D01*
X112067D02*
X116967D01*
X108967D02*
X110467D01*
X103967D02*
X105567D01*
X101067D02*
X102567D01*
X96267D02*
X97867D01*
X92967D02*
X94467D01*
X87767D02*
X89367D01*
X75967D02*
X82467D01*
X150467Y75448D02*
X152067D01*
X145567D02*
X147067D01*
X142567D02*
X144167D01*
X137867D02*
X139367D01*
X130267D02*
X136667D01*
X127267D02*
X128767D01*
X122567D02*
X124067D01*
X111967D02*
X116867D01*
X108967D02*
X110467D01*
X103967D02*
X105567D01*
X101067D02*
X102567D01*
X96267D02*
X97867D01*
X92967D02*
X94467D01*
X87767D02*
X89367D01*
X75967D02*
X82467D01*
X150467Y75348D02*
X152067D01*
X145567D02*
X147067D01*
X142567D02*
X144167D01*
X137867D02*
X139367D01*
X130267D02*
X136667D01*
X127267D02*
X128767D01*
X122567D02*
X124067D01*
X111867D02*
X116767D01*
X108967D02*
X110467D01*
X103967D02*
X105567D01*
X101067D02*
X102567D01*
X96267D02*
X97867D01*
X92967D02*
X94467D01*
X87767D02*
X89267D01*
X75967D02*
X82467D01*
X150467Y75248D02*
X152067D01*
X145567D02*
X147067D01*
X142567D02*
X144167D01*
X137867D02*
X139367D01*
X130267D02*
X136667D01*
X127267D02*
X128767D01*
X122567D02*
X124067D01*
X111867D02*
X116567D01*
X108967D02*
X110467D01*
X104067D02*
X105567D01*
X101067D02*
X102567D01*
X96267D02*
X97867D01*
X92967D02*
X94467D01*
X87767D02*
X89267D01*
X75967D02*
X82467D01*
X150467Y75148D02*
X151967D01*
X145567D02*
X147067D01*
X142567D02*
X144167D01*
X137867D02*
X139367D01*
X130267D02*
X136667D01*
X127267D02*
X128767D01*
X122567D02*
X124067D01*
X111767D02*
X116367D01*
X108967D02*
X110467D01*
X104067D02*
X105567D01*
X101067D02*
X102567D01*
X96267D02*
X97867D01*
X92967D02*
X94467D01*
X87767D02*
X89267D01*
X75967D02*
X82467D01*
X150467Y75048D02*
X151967D01*
X145567D02*
X147067D01*
X142567D02*
X144167D01*
X137867D02*
X139367D01*
X130267D02*
X136667D01*
X127267D02*
X128767D01*
X122567D02*
X124067D01*
X111667D02*
X116167D01*
X108967D02*
X110467D01*
X104067D02*
X105567D01*
X101067D02*
X102567D01*
X96267D02*
X97867D01*
X92967D02*
X94467D01*
X87767D02*
X89267D01*
X75967D02*
X82467D01*
X150467Y74948D02*
X151967D01*
X145567D02*
X147067D01*
X142567D02*
X144167D01*
X137867D02*
X139367D01*
X130267D02*
X136667D01*
X127267D02*
X128767D01*
X122567D02*
X124067D01*
X111667D02*
X115767D01*
X108967D02*
X110467D01*
X104067D02*
X105567D01*
X101067D02*
X102567D01*
X96267D02*
X97867D01*
X92967D02*
X94467D01*
X87767D02*
X89267D01*
X75967D02*
X82467D01*
X150467Y74848D02*
X151967D01*
X145567D02*
X147067D01*
X142567D02*
X144167D01*
X137867D02*
X139367D01*
X135167D02*
X136667D01*
X127267D02*
X128767D01*
X122567D02*
X124067D01*
X111667D02*
X114867D01*
X108967D02*
X110467D01*
X104067D02*
X105567D01*
X101067D02*
X102567D01*
X96267D02*
X97867D01*
X92967D02*
X94467D01*
X87767D02*
X89267D01*
X80967D02*
X82467D01*
X150467Y74748D02*
X151967D01*
X145567D02*
X147067D01*
X142567D02*
X144167D01*
X137867D02*
X139367D01*
X135167D02*
X136667D01*
X127267D02*
X128767D01*
X122567D02*
X124067D01*
X111567D02*
X113867D01*
X108967D02*
X110467D01*
X104067D02*
X105567D01*
X101067D02*
X102567D01*
X96267D02*
X97867D01*
X92967D02*
X94467D01*
X87767D02*
X89267D01*
X80967D02*
X82367D01*
X150467Y74648D02*
X151967D01*
X145567D02*
X147167D01*
X142567D02*
X144167D01*
X137867D02*
X139467D01*
X135167D02*
X136667D01*
X127267D02*
X128767D01*
X122567D02*
X124067D01*
X111567D02*
X113467D01*
X108967D02*
X110467D01*
X104067D02*
X105567D01*
X101067D02*
X102567D01*
X96267D02*
X97867D01*
X92967D02*
X94467D01*
X87667D02*
X89267D01*
X80967D02*
X82367D01*
X150467Y74548D02*
X151967D01*
X145567D02*
X147167D01*
X142567D02*
X144167D01*
X137867D02*
X139467D01*
X135167D02*
X136667D01*
X127267D02*
X128767D01*
X122567D02*
X124067D01*
X111567D02*
X113267D01*
X108867D02*
X110467D01*
X104067D02*
X105567D01*
X101067D02*
X102567D01*
X96267D02*
X97867D01*
X92967D02*
X94467D01*
X87667D02*
X89267D01*
X80967D02*
X82367D01*
X150467Y74448D02*
X151967D01*
X145567D02*
X147167D01*
X142567D02*
X144167D01*
X137867D02*
X139467D01*
X135167D02*
X136667D01*
X127267D02*
X128767D01*
X122567D02*
X124067D01*
X111467D02*
X113167D01*
X108867D02*
X110467D01*
X104067D02*
X105567D01*
X101067D02*
X102567D01*
X96267D02*
X97867D01*
X92967D02*
X94467D01*
X87667D02*
X89267D01*
X80867D02*
X82367D01*
X150467Y74348D02*
X151967D01*
X145667D02*
X147167D01*
X142567D02*
X144167D01*
X137867D02*
X139467D01*
X135167D02*
X136667D01*
X127267D02*
X128767D01*
X122567D02*
X124067D01*
X111467D02*
X113067D01*
X108867D02*
X110467D01*
X104067D02*
X105567D01*
X100967D02*
X102567D01*
X96267D02*
X97867D01*
X92967D02*
X94467D01*
X87667D02*
X89167D01*
X80867D02*
X82367D01*
X150367Y74248D02*
X151967D01*
X145667D02*
X147167D01*
X142467D02*
X144167D01*
X137867D02*
X139467D01*
X135067D02*
X136567D01*
X127267D02*
X128767D01*
X122567D02*
X124067D01*
X111467D02*
X113067D01*
X108867D02*
X110367D01*
X104067D02*
X105667D01*
X100967D02*
X102567D01*
X96267D02*
X97867D01*
X92967D02*
X94467D01*
X87567D02*
X89167D01*
X80867D02*
X82367D01*
X150367Y74148D02*
X151967D01*
X145667D02*
X147167D01*
X142467D02*
X144167D01*
X137867D02*
X139467D01*
X135067D02*
X136567D01*
X127267D02*
X128767D01*
X122567D02*
X124067D01*
X111467D02*
X113067D01*
X108867D02*
X110367D01*
X104067D02*
X105667D01*
X100967D02*
X102567D01*
X96267D02*
X97867D01*
X92967D02*
X94467D01*
X87567D02*
X89167D01*
X80867D02*
X82367D01*
X150367Y74048D02*
X151867D01*
X145667D02*
X147267D01*
X142467D02*
X144167D01*
X137967D02*
X139567D01*
X135067D02*
X136567D01*
X127267D02*
X128767D01*
X122567D02*
X124067D01*
X111467D02*
X112967D01*
X108767D02*
X110367D01*
X104167D02*
X105667D01*
X100967D02*
X102567D01*
X96267D02*
X97967D01*
X92967D02*
X94467D01*
X87567D02*
X89167D01*
X80767D02*
X82267D01*
X150267Y73948D02*
X151867D01*
X145667D02*
X147267D01*
X142467D02*
X144167D01*
X137967D02*
X139567D01*
X134967D02*
X136567D01*
X127267D02*
X128767D01*
X122567D02*
X124067D01*
X111467D02*
X112967D01*
X108767D02*
X110367D01*
X104167D02*
X105767D01*
X100867D02*
X102567D01*
X96267D02*
X97967D01*
X92967D02*
X94467D01*
X87467D02*
X89067D01*
X80767D02*
X82267D01*
X150267Y73848D02*
X151867D01*
X145667D02*
X147367D01*
X142367D02*
X144167D01*
X137967D02*
X139567D01*
X134967D02*
X136467D01*
X127267D02*
X128767D01*
X122567D02*
X124067D01*
X116967D02*
X117167D01*
X111467D02*
X112967D01*
X108667D02*
X110367D01*
X104167D02*
X105767D01*
X100867D02*
X102567D01*
X96267D02*
X98067D01*
X92967D02*
X94467D01*
X87467D02*
X89067D01*
X80667D02*
X82267D01*
X150167Y73748D02*
X151867D01*
X145767D02*
X147367D01*
X142367D02*
X144167D01*
X137967D02*
X139667D01*
X134867D02*
X136467D01*
X127267D02*
X128767D01*
X122567D02*
X124067D01*
X116867D02*
X117267D01*
X111467D02*
X112967D01*
X108667D02*
X110267D01*
X104167D02*
X105867D01*
X100767D02*
X102567D01*
X96267D02*
X98067D01*
X92967D02*
X94467D01*
X87367D02*
X89067D01*
X83967D02*
X84167D01*
X80667D02*
X82267D01*
X150167Y73648D02*
X151867D01*
X145767D02*
X147467D01*
X142267D02*
X144167D01*
X137967D02*
X139667D01*
X134867D02*
X136467D01*
X127267D02*
X128767D01*
X122567D02*
X124067D01*
X116767D02*
X117367D01*
X111467D02*
X113067D01*
X108567D02*
X110267D01*
X104167D02*
X105867D01*
X100767D02*
X102467D01*
X96267D02*
X98167D01*
X92967D02*
X94467D01*
X87267D02*
X89067D01*
X83867D02*
X84267D01*
X80567D02*
X82167D01*
X150067Y73548D02*
X151767D01*
X145767D02*
X147567D01*
X142167D02*
X144167D01*
X137967D02*
X139767D01*
X134767D02*
X136367D01*
X131367D02*
X131667D01*
X127267D02*
X128767D01*
X122567D02*
X124067D01*
X116667D02*
X117467D01*
X111467D02*
X113067D01*
X108467D02*
X110267D01*
X104267D02*
X105967D01*
X100667D02*
X102467D01*
X96267D02*
X98267D01*
X92967D02*
X94467D01*
X87167D02*
X88967D01*
X83767D02*
X84367D01*
X80567D02*
X82167D01*
X77167D02*
X77367D01*
X149967Y73448D02*
X151767D01*
X145867D02*
X147667D01*
X142167D02*
X144167D01*
X137967D02*
X139867D01*
X134667D02*
X136367D01*
X131267D02*
X131767D01*
X127267D02*
X128767D01*
X122567D02*
X124067D01*
X116467D02*
X117567D01*
X111467D02*
X113167D01*
X108367D02*
X110167D01*
X104267D02*
X106067D01*
X100567D02*
X102467D01*
X96267D02*
X98267D01*
X92967D02*
X94467D01*
X87067D02*
X88967D01*
X83667D02*
X84467D01*
X80467D02*
X82167D01*
X77067D02*
X77567D01*
X149867Y73348D02*
X151767D01*
X145867D02*
X147767D01*
X142067D02*
X144167D01*
X138067D02*
X139967D01*
X134567D02*
X136367D01*
X131167D02*
X131867D01*
X127267D02*
X128767D01*
X122567D02*
X124067D01*
X116367D02*
X117667D01*
X111567D02*
X113267D01*
X108267D02*
X110167D01*
X104267D02*
X106167D01*
X100467D02*
X102467D01*
X96267D02*
X98367D01*
X92967D02*
X94467D01*
X86967D02*
X88867D01*
X83567D02*
X84567D01*
X80367D02*
X82067D01*
X76967D02*
X77667D01*
X149667Y73248D02*
X151667D01*
X145867D02*
X147867D01*
X141967D02*
X144167D01*
X138067D02*
X140067D01*
X134467D02*
X136267D01*
X131067D02*
X132067D01*
X127267D02*
X128767D01*
X122567D02*
X124067D01*
X116167D02*
X117767D01*
X111567D02*
X113367D01*
X108167D02*
X110167D01*
X104367D02*
X106367D01*
X100367D02*
X102367D01*
X96267D02*
X98567D01*
X92967D02*
X94467D01*
X86767D02*
X88867D01*
X83467D02*
X84767D01*
X80167D02*
X82067D01*
X76767D02*
X77867D01*
X149567Y73148D02*
X151667D01*
X145967D02*
X148067D01*
X141767D02*
X144167D01*
X138067D02*
X140267D01*
X134267D02*
X136267D01*
X130967D02*
X132267D01*
X127267D02*
X128767D01*
X122567D02*
X124067D01*
X115967D02*
X117867D01*
X111567D02*
X113467D01*
X107967D02*
X110067D01*
X104367D02*
X106567D01*
X100167D02*
X102367D01*
X96267D02*
X98767D01*
X92967D02*
X94467D01*
X86567D02*
X88767D01*
X83367D02*
X84967D01*
X80067D02*
X81967D01*
X76667D02*
X77967D01*
X149267Y73048D02*
X151567D01*
X145967D02*
X148367D01*
X141467D02*
X144167D01*
X138067D02*
X140567D01*
X134067D02*
X136167D01*
X130767D02*
X132467D01*
X127267D02*
X128767D01*
X122567D02*
X124067D01*
X115567D02*
X117967D01*
X111667D02*
X113767D01*
X107667D02*
X110067D01*
X104467D02*
X106767D01*
X99867D02*
X102367D01*
X96267D02*
X99067D01*
X92967D02*
X94467D01*
X86267D02*
X88767D01*
X83267D02*
X85267D01*
X79867D02*
X81967D01*
X76567D02*
X78267D01*
X146067Y72948D02*
X151567D01*
X138167D02*
X144167D01*
X133767D02*
X136167D01*
X130667D02*
X132867D01*
X127267D02*
X128767D01*
X122567D02*
X124067D01*
X115167D02*
X118067D01*
X111667D02*
X114067D01*
X104467D02*
X109967D01*
X96267D02*
X102267D01*
X92967D02*
X94467D01*
X83167D02*
X88667D01*
X79467D02*
X81867D01*
X76467D02*
X78567D01*
X146167Y72848D02*
X151467D01*
X138167D02*
X144167D01*
X130567D02*
X136067D01*
X127267D02*
X128767D01*
X122567D02*
X124067D01*
X111667D02*
X118167D01*
X104567D02*
X109867D01*
X96267D02*
X102267D01*
X92967D02*
X94467D01*
X82967D02*
X88567D01*
X76367D02*
X81867D01*
X146167Y72748D02*
X151367D01*
X138267D02*
X144167D01*
X130467D02*
X135967D01*
X127267D02*
X128767D01*
X122567D02*
X124067D01*
X111767D02*
X117967D01*
X104667D02*
X109867D01*
X96267D02*
X102167D01*
X92967D02*
X94467D01*
X83067D02*
X88467D01*
X76167D02*
X81767D01*
X146267Y72648D02*
X151267D01*
X138367D02*
X144167D01*
X130467D02*
X135967D01*
X127267D02*
X128767D01*
X122567D02*
X124067D01*
X111867D02*
X117867D01*
X104767D02*
X109767D01*
X96267D02*
X102167D01*
X92967D02*
X94467D01*
X83167D02*
X88467D01*
X76267D02*
X81667D01*
X146367Y72548D02*
X151267D01*
X138367D02*
X144167D01*
X130567D02*
X135867D01*
X127267D02*
X128767D01*
X122567D02*
X124067D01*
X111967D02*
X117767D01*
X104767D02*
X109667D01*
X96267D02*
X102067D01*
X92967D02*
X94467D01*
X83267D02*
X88367D01*
X76367D02*
X81567D01*
X146467Y72448D02*
X151167D01*
X138467D02*
X144167D01*
X130667D02*
X135767D01*
X127267D02*
X128767D01*
X122567D02*
X124067D01*
X111967D02*
X117667D01*
X104867D02*
X109567D01*
X96267D02*
X101967D01*
X92967D02*
X94467D01*
X83367D02*
X88267D01*
X76467D02*
X81467D01*
X146567Y72348D02*
X151067D01*
X142567D02*
X144167D01*
X138567D02*
X142467D01*
X130867D02*
X135667D01*
X127267D02*
X128767D01*
X122567D02*
X124067D01*
X112067D02*
X117467D01*
X104967D02*
X109467D01*
X97967D02*
X101867D01*
X96267D02*
X97867D01*
X92967D02*
X94467D01*
X83467D02*
X88167D01*
X76567D02*
X81367D01*
X146667Y72248D02*
X150967D01*
X142567D02*
X144167D01*
X138667D02*
X142367D01*
X130967D02*
X135567D01*
X127267D02*
X128767D01*
X122567D02*
X124067D01*
X112267D02*
X117367D01*
X105067D02*
X109367D01*
X98067D02*
X101767D01*
X96267D02*
X97867D01*
X92967D02*
X94467D01*
X83567D02*
X88067D01*
X76667D02*
X81367D01*
X146767Y72148D02*
X150867D01*
X142567D02*
X144167D01*
X138767D02*
X142267D01*
X131067D02*
X135467D01*
X127267D02*
X128767D01*
X122567D02*
X124067D01*
X112367D02*
X117167D01*
X105167D02*
X109267D01*
X98167D02*
X101667D01*
X96267D02*
X97867D01*
X92967D02*
X94467D01*
X83667D02*
X87867D01*
X76767D02*
X81167D01*
X146867Y72048D02*
X150667D01*
X142567D02*
X144167D01*
X138867D02*
X142167D01*
X131267D02*
X135267D01*
X127267D02*
X128767D01*
X122567D02*
X124067D01*
X112467D02*
X116967D01*
X105367D02*
X109167D01*
X98267D02*
X101567D01*
X96267D02*
X97867D01*
X92967D02*
X94467D01*
X83867D02*
X87767D01*
X76967D02*
X81067D01*
X147067Y71948D02*
X150567D01*
X142567D02*
X144167D01*
X138967D02*
X141967D01*
X131367D02*
X135167D01*
X127267D02*
X128767D01*
X122567D02*
X124067D01*
X112667D02*
X116767D01*
X105467D02*
X108967D01*
X98367D02*
X101467D01*
X96267D02*
X97867D01*
X92967D02*
X94467D01*
X84067D02*
X87567D01*
X77167D02*
X80867D01*
X147267Y71848D02*
X150367D01*
X142567D02*
X144167D01*
X139167D02*
X141767D01*
X131567D02*
X134967D01*
X127267D02*
X128767D01*
X122567D02*
X124067D01*
X112867D02*
X116567D01*
X105667D02*
X108867D01*
X98567D02*
X101267D01*
X96267D02*
X97867D01*
X92967D02*
X94467D01*
X84167D02*
X87367D01*
X77367D02*
X80667D01*
X147467Y71748D02*
X150167D01*
X142567D02*
X144167D01*
X139267D02*
X141667D01*
X131767D02*
X134667D01*
X127267D02*
X128767D01*
X122567D02*
X124067D01*
X113067D02*
X116267D01*
X105867D02*
X108567D01*
X98767D02*
X101067D01*
X96267D02*
X97867D01*
X92967D02*
X94467D01*
X84467D02*
X87167D01*
X77567D02*
X80467D01*
X147767Y71648D02*
X149867D01*
X142567D02*
X144167D01*
X139567D02*
X141367D01*
X132067D02*
X134467D01*
X127267D02*
X128767D01*
X122567D02*
X124067D01*
X113367D02*
X115967D01*
X106167D02*
X108367D01*
X98967D02*
X100867D01*
X96267D02*
X97867D01*
X92967D02*
X94467D01*
X84667D02*
X86867D01*
X77867D02*
X80267D01*
X148067Y71548D02*
X149467D01*
X142567D02*
X144167D01*
X139867D02*
X141167D01*
X132467D02*
X134067D01*
X113867D02*
X115567D01*
X106567D02*
X107967D01*
X99267D02*
X100567D01*
X85067D02*
X86567D01*
X78167D02*
X79767D01*
X142567Y71448D02*
X144167D01*
X142567Y71348D02*
X144167D01*
X142567Y71248D02*
X144167D01*
X142567Y71148D02*
X144167D01*
X142567Y71048D02*
X144167D01*
X142567Y70948D02*
X144167D01*
X142567Y70848D02*
X144167D01*
X142567Y70748D02*
X144167D01*
X142567Y70648D02*
X144167D01*
X142567Y70548D02*
X144167D01*
X142567Y70448D02*
X144167D01*
X142567Y70348D02*
X144167D01*
X142567Y70248D02*
X144167D01*
X142567Y70148D02*
X144167D01*
X142567Y70048D02*
X144167D01*
X116867D02*
X118367D01*
X142567Y69948D02*
X144167D01*
X116867D02*
X118367D01*
X142567Y69848D02*
X144167D01*
X116867D02*
X118367D01*
X142567Y69748D02*
X144167D01*
X116867D02*
X118367D01*
X142567Y69648D02*
X144167D01*
X116867D02*
X118367D01*
X142567Y69548D02*
X144167D01*
X116867D02*
X118367D01*
X142567Y69448D02*
X144167D01*
X116867D02*
X118367D01*
X142567Y69348D02*
X144167D01*
X116867D02*
X118367D01*
X142567Y69248D02*
X144167D01*
X116867D02*
X118367D01*
X142567Y69148D02*
X144167D01*
X116867D02*
X118367D01*
X142567Y69048D02*
X144167D01*
X116867D02*
X118367D01*
X142567Y68948D02*
X144167D01*
X116867D02*
X118367D01*
X142567Y68848D02*
X144167D01*
X116867D02*
X118367D01*
X142567Y68748D02*
X144167D01*
X116867D02*
X118367D01*
X142567Y68648D02*
X144167D01*
X116867D02*
X118367D01*
X142567Y68548D02*
X144167D01*
X116867D02*
X118367D01*
X142567Y68448D02*
X144167D01*
X116867D02*
X118367D01*
X142567Y68348D02*
X144167D01*
X116867D02*
X118367D01*
X142567Y68248D02*
X144167D01*
X116867D02*
X118367D01*
X142567Y68148D02*
X144167D01*
X116867D02*
X118367D01*
X142567Y68048D02*
X144167D01*
X116867D02*
X118367D01*
X142567Y67948D02*
X144167D01*
X116867D02*
X118367D01*
X142567Y67848D02*
X144167D01*
X116867D02*
X118367D01*
X142567Y67748D02*
X144167D01*
X116867D02*
X118367D01*
X142567Y67648D02*
X144167D01*
X116867D02*
X118367D01*
X142567Y67548D02*
X144167D01*
X116867D02*
X118367D01*
X142567Y67448D02*
X144167D01*
X116867D02*
X118367D01*
X142567Y67348D02*
X144167D01*
X116867D02*
X118367D01*
X142567Y67248D02*
X144167D01*
X116867D02*
X118367D01*
X142567Y67148D02*
X144167D01*
X116867D02*
X118367D01*
X142567Y67048D02*
X144167D01*
X116867D02*
X118367D01*
X142567Y66948D02*
X144167D01*
X140067D02*
X140867D01*
X132867D02*
X134167D01*
X124467D02*
X125267D01*
X120167D02*
X120867D01*
X116867D02*
X118367D01*
X100767D02*
X102067D01*
X92367D02*
X93167D01*
X87467D02*
X88267D01*
X142567Y66848D02*
X144167D01*
X139667D02*
X141367D01*
X132267D02*
X134767D01*
X126967D02*
X128567D01*
X124067D02*
X125767D01*
X119767D02*
X121367D01*
X116867D02*
X118367D01*
X114367D02*
X115967D01*
X109767D02*
X110967D01*
X104867D02*
X106467D01*
X100167D02*
X102667D01*
X94967D02*
X96467D01*
X92067D02*
X93667D01*
X86967D02*
X88767D01*
X142567Y66748D02*
X144167D01*
X139467D02*
X141667D01*
X131967D02*
X135067D01*
X126967D02*
X128567D01*
X123867D02*
X126067D01*
X119467D02*
X121567D01*
X116867D02*
X118367D01*
X114267D02*
X115867D01*
X109767D02*
X110967D01*
X104867D02*
X106467D01*
X99867D02*
X103067D01*
X94967D02*
X96467D01*
X91767D02*
X93967D01*
X86567D02*
X89067D01*
X142567Y66648D02*
X144167D01*
X139267D02*
X141767D01*
X131667D02*
X135367D01*
X126967D02*
X128567D01*
X123667D02*
X126167D01*
X119267D02*
X121767D01*
X116867D02*
X118367D01*
X114267D02*
X115867D01*
X109767D02*
X110967D01*
X104867D02*
X106467D01*
X99567D02*
X103267D01*
X94967D02*
X96467D01*
X91567D02*
X94167D01*
X86367D02*
X89267D01*
X142567Y66548D02*
X144167D01*
X139067D02*
X141967D01*
X131467D02*
X135467D01*
X126967D02*
X128567D01*
X123467D02*
X126367D01*
X119067D02*
X121967D01*
X116867D02*
X118367D01*
X114267D02*
X115867D01*
X109667D02*
X111067D01*
X104967D02*
X106567D01*
X99467D02*
X103467D01*
X94967D02*
X96467D01*
X91367D02*
X94267D01*
X86167D02*
X89467D01*
X142567Y66448D02*
X144167D01*
X138967D02*
X142167D01*
X131267D02*
X135667D01*
X126967D02*
X128567D01*
X123367D02*
X126567D01*
X118967D02*
X122067D01*
X116867D02*
X118367D01*
X114167D02*
X115767D01*
X109667D02*
X111067D01*
X104967D02*
X106567D01*
X99267D02*
X103567D01*
X94967D02*
X96467D01*
X91267D02*
X94467D01*
X86067D02*
X89667D01*
X142567Y66348D02*
X144167D01*
X138767D02*
X142267D01*
X131167D02*
X135767D01*
X126967D02*
X128567D01*
X123367D02*
X126667D01*
X118767D02*
X122267D01*
X116867D02*
X118367D01*
X114167D02*
X115767D01*
X109667D02*
X111067D01*
X104967D02*
X106567D01*
X99067D02*
X103767D01*
X94967D02*
X96467D01*
X91267D02*
X94567D01*
X85867D02*
X89767D01*
X142567Y66248D02*
X144167D01*
X138667D02*
X142367D01*
X131067D02*
X135867D01*
X126967D02*
X128567D01*
X123367D02*
X126767D01*
X118667D02*
X122367D01*
X116867D02*
X118367D01*
X114167D02*
X115767D01*
X109567D02*
X111167D01*
X104967D02*
X106567D01*
X98967D02*
X103867D01*
X94967D02*
X96467D01*
X91367D02*
X94667D01*
X85767D02*
X89867D01*
X142567Y66148D02*
X144167D01*
X138567D02*
X142467D01*
X130967D02*
X136067D01*
X126967D02*
X128567D01*
X123467D02*
X126867D01*
X118567D02*
X122467D01*
X116867D02*
X118367D01*
X114167D02*
X115667D01*
X109567D02*
X111167D01*
X105067D02*
X106667D01*
X98867D02*
X103967D01*
X94967D02*
X96467D01*
X91467D02*
X94767D01*
X85667D02*
X89967D01*
X138467Y66048D02*
X144167D01*
X130867D02*
X136067D01*
X123567D02*
X128567D01*
X116867D02*
X122567D01*
X114067D02*
X115667D01*
X109567D02*
X111167D01*
X105067D02*
X106667D01*
X98767D02*
X104067D01*
X91467D02*
X96467D01*
X85567D02*
X90067D01*
X138367Y65948D02*
X144167D01*
X130767D02*
X136167D01*
X123667D02*
X128567D01*
X116867D02*
X122567D01*
X114067D02*
X115667D01*
X109567D02*
X111267D01*
X105067D02*
X106667D01*
X98767D02*
X104067D01*
X91567D02*
X96467D01*
X85467D02*
X90167D01*
X138367Y65848D02*
X144167D01*
X130767D02*
X136267D01*
X123767D02*
X128567D01*
X116867D02*
X122667D01*
X114067D02*
X115567D01*
X109467D02*
X111267D01*
X105167D02*
X106667D01*
X98667D02*
X104167D01*
X91667D02*
X96467D01*
X85367D02*
X90267D01*
X138267Y65748D02*
X144167D01*
X130667D02*
X136067D01*
X123867D02*
X128567D01*
X116867D02*
X122767D01*
X114067D02*
X115567D01*
X109467D02*
X111267D01*
X105167D02*
X106767D01*
X98567D02*
X104067D01*
X91767D02*
X96467D01*
X85267D02*
X90267D01*
X138267Y65648D02*
X144167D01*
X130567D02*
X135967D01*
X123867D02*
X128567D01*
X116867D02*
X122767D01*
X113967D02*
X115567D01*
X109467D02*
X111367D01*
X105167D02*
X106767D01*
X98567D02*
X103867D01*
X91867D02*
X96467D01*
X85167D02*
X90367D01*
X138167Y65548D02*
X144167D01*
X133667D02*
X135867D01*
X130567D02*
X133467D01*
X123967D02*
X128567D01*
X116867D02*
X122867D01*
X113967D02*
X115467D01*
X109367D02*
X111367D01*
X105267D02*
X106767D01*
X101667D02*
X103767D01*
X98467D02*
X101367D01*
X91967D02*
X96467D01*
X87967D02*
X90467D01*
X85167D02*
X87767D01*
X141167Y65448D02*
X144167D01*
X138067D02*
X140767D01*
X134367D02*
X135667D01*
X130567D02*
X132667D01*
X125567D02*
X128567D01*
X124067D02*
X125267D01*
X120167D02*
X122867D01*
X116867D02*
X119867D01*
X113967D02*
X115467D01*
X109367D02*
X111367D01*
X105267D02*
X106867D01*
X102367D02*
X103667D01*
X98467D02*
X100567D01*
X93567D02*
X96467D01*
X91967D02*
X93167D01*
X88467D02*
X90467D01*
X85067D02*
X87267D01*
X141667Y65348D02*
X144167D01*
X138067D02*
X140367D01*
X134667D02*
X135567D01*
X130467D02*
X132367D01*
X126067D02*
X128567D01*
X124167D02*
X124867D01*
X120667D02*
X122967D01*
X116867D02*
X119367D01*
X113867D02*
X115467D01*
X109367D02*
X111467D01*
X105267D02*
X106867D01*
X102567D02*
X103467D01*
X98467D02*
X100267D01*
X93967D02*
X96467D01*
X92067D02*
X92767D01*
X88667D02*
X90567D01*
X85067D02*
X87067D01*
X141867Y65248D02*
X144167D01*
X138067D02*
X140167D01*
X134767D02*
X135467D01*
X130467D02*
X132167D01*
X126267D02*
X128567D01*
X124267D02*
X124667D01*
X120867D02*
X122967D01*
X116867D02*
X119167D01*
X113867D02*
X115467D01*
X109267D02*
X111467D01*
X105367D02*
X106867D01*
X102767D02*
X103367D01*
X98367D02*
X100167D01*
X94167D02*
X96467D01*
X92167D02*
X92567D01*
X88867D02*
X90567D01*
X84967D02*
X86867D01*
X141967Y65148D02*
X144167D01*
X137967D02*
X140067D01*
X134867D02*
X135267D01*
X130467D02*
X132067D01*
X126367D02*
X128567D01*
X124367D02*
X124467D01*
X121067D02*
X122967D01*
X116867D02*
X119067D01*
X113867D02*
X115367D01*
X109267D02*
X111467D01*
X105367D02*
X106867D01*
X102867D02*
X103267D01*
X98367D02*
X99967D01*
X94367D02*
X96467D01*
X92267D02*
X92467D01*
X88967D02*
X90667D01*
X84967D02*
X86767D01*
X142067Y65048D02*
X144167D01*
X137967D02*
X139867D01*
X134967D02*
X135167D01*
X130467D02*
X132067D01*
X126567D02*
X128567D01*
X121167D02*
X122967D01*
X116867D02*
X118867D01*
X113867D02*
X115367D01*
X109267D02*
X111567D01*
X105367D02*
X106967D01*
X102867D02*
X103067D01*
X98367D02*
X99967D01*
X94467D02*
X96467D01*
X89067D02*
X90667D01*
X84867D02*
X86667D01*
X142167Y64948D02*
X144167D01*
X137967D02*
X139767D01*
X130367D02*
X131967D01*
X126567D02*
X128567D01*
X121267D02*
X123067D01*
X116867D02*
X118867D01*
X113767D02*
X115367D01*
X109167D02*
X111567D01*
X105467D02*
X106967D01*
X98367D02*
X99867D01*
X94567D02*
X96467D01*
X89167D02*
X90767D01*
X84867D02*
X86567D01*
X142267Y64848D02*
X144167D01*
X137967D02*
X139767D01*
X130367D02*
X131967D01*
X126667D02*
X128567D01*
X121267D02*
X123067D01*
X116867D02*
X118767D01*
X113767D02*
X115267D01*
X109167D02*
X111567D01*
X105467D02*
X106967D01*
X98367D02*
X99867D01*
X94667D02*
X96467D01*
X89267D02*
X90767D01*
X84767D02*
X86467D01*
X142367Y64748D02*
X144167D01*
X137967D02*
X139667D01*
X130367D02*
X131867D01*
X126767D02*
X128567D01*
X121367D02*
X123067D01*
X116867D02*
X118667D01*
X113767D02*
X115267D01*
X109167D02*
X111667D01*
X105467D02*
X106967D01*
X98367D02*
X99867D01*
X94667D02*
X96467D01*
X89267D02*
X90867D01*
X84767D02*
X86467D01*
X142367Y64648D02*
X144167D01*
X137867D02*
X139567D01*
X130367D02*
X131867D01*
X126767D02*
X128567D01*
X121367D02*
X123067D01*
X116867D02*
X118667D01*
X113767D02*
X115267D01*
X109067D02*
X111667D01*
X105567D02*
X107067D01*
X98267D02*
X99867D01*
X94767D02*
X96467D01*
X89367D02*
X90867D01*
X84767D02*
X86367D01*
X142467Y64548D02*
X144167D01*
X137867D02*
X139567D01*
X130367D02*
X131867D01*
X126867D02*
X128567D01*
X121467D02*
X123067D01*
X116867D02*
X118567D01*
X113667D02*
X115167D01*
X110467D02*
X111667D01*
X109067D02*
X110367D01*
X105567D02*
X107067D01*
X98267D02*
X99767D01*
X94767D02*
X96467D01*
X89367D02*
X90867D01*
X84767D02*
X86367D01*
X142467Y64448D02*
X144167D01*
X137867D02*
X139467D01*
X130367D02*
X131867D01*
X126867D02*
X128567D01*
X121467D02*
X123067D01*
X116867D02*
X118567D01*
X113667D02*
X115167D01*
X110467D02*
X111767D01*
X109067D02*
X110267D01*
X105567D02*
X107067D01*
X98267D02*
X99767D01*
X94867D02*
X96467D01*
X89467D02*
X90867D01*
X84667D02*
X86267D01*
X142467Y64348D02*
X144167D01*
X137867D02*
X139467D01*
X130367D02*
X131867D01*
X126967D02*
X128567D01*
X121467D02*
X123067D01*
X116867D02*
X118567D01*
X113667D02*
X115167D01*
X110467D02*
X111767D01*
X108967D02*
X110267D01*
X105667D02*
X107167D01*
X98267D02*
X99767D01*
X94867D02*
X96467D01*
X89467D02*
X90967D01*
X84667D02*
X86267D01*
X142567Y64248D02*
X144167D01*
X137867D02*
X139467D01*
X130367D02*
X131867D01*
X126967D02*
X128567D01*
X121567D02*
X123067D01*
X116867D02*
X118467D01*
X113567D02*
X115067D01*
X110567D02*
X111767D01*
X108967D02*
X110267D01*
X105667D02*
X107167D01*
X98267D02*
X99767D01*
X94867D02*
X96467D01*
X89467D02*
X90967D01*
X84667D02*
X86267D01*
X142567Y64148D02*
X144167D01*
X137867D02*
X139467D01*
X130367D02*
X131867D01*
X126967D02*
X128567D01*
X121567D02*
X123167D01*
X116867D02*
X118467D01*
X113567D02*
X115067D01*
X110567D02*
X111867D01*
X108967D02*
X110167D01*
X105667D02*
X107167D01*
X98267D02*
X99767D01*
X94867D02*
X96467D01*
X89467D02*
X90967D01*
X84667D02*
X86167D01*
X142567Y64048D02*
X144167D01*
X137867D02*
X139467D01*
X130367D02*
X131867D01*
X126967D02*
X128567D01*
X121567D02*
X123167D01*
X116867D02*
X118467D01*
X113567D02*
X115067D01*
X110567D02*
X111867D01*
X108867D02*
X110167D01*
X105767D02*
X107167D01*
X98267D02*
X99767D01*
X94967D02*
X96467D01*
X89567D02*
X90967D01*
X84667D02*
X86167D01*
X142567Y63948D02*
X144167D01*
X137867D02*
X139367D01*
X130367D02*
X131867D01*
X126967D02*
X128567D01*
X121567D02*
X123167D01*
X116867D02*
X118467D01*
X113567D02*
X114967D01*
X110567D02*
X111867D01*
X108867D02*
X110167D01*
X105767D02*
X107267D01*
X98267D02*
X99767D01*
X94967D02*
X96467D01*
X89567D02*
X90967D01*
X84667D02*
X86167D01*
X142567Y63848D02*
X144167D01*
X137867D02*
X139367D01*
X130367D02*
X131867D01*
X126967D02*
X128567D01*
X121567D02*
X123167D01*
X116867D02*
X118467D01*
X113467D02*
X114967D01*
X110667D02*
X111967D01*
X108867D02*
X110167D01*
X105767D02*
X107267D01*
X98267D02*
X99767D01*
X94967D02*
X96467D01*
X89567D02*
X90967D01*
X84667D02*
X86167D01*
X142567Y63748D02*
X144167D01*
X137867D02*
X139367D01*
X130367D02*
X131867D01*
X126967D02*
X128567D01*
X121567D02*
X123167D01*
X116867D02*
X118467D01*
X113467D02*
X114967D01*
X110667D02*
X111967D01*
X108767D02*
X110067D01*
X105767D02*
X107267D01*
X98267D02*
X99767D01*
X94967D02*
X96467D01*
X89567D02*
X91067D01*
X84667D02*
X86167D01*
X142567Y63648D02*
X144167D01*
X137867D02*
X139367D01*
X130367D02*
X131967D01*
X126967D02*
X128567D01*
X121567D02*
X123167D01*
X116867D02*
X118467D01*
X113467D02*
X114867D01*
X110667D02*
X111967D01*
X108767D02*
X110067D01*
X105867D02*
X107267D01*
X98267D02*
X99867D01*
X94967D02*
X96467D01*
X89567D02*
X91067D01*
X84667D02*
X86167D01*
X142567Y63548D02*
X144167D01*
X137867D02*
X139367D01*
X130367D02*
X134867D01*
X126967D02*
X128567D01*
X121567D02*
X123167D01*
X116867D02*
X118467D01*
X113467D02*
X114867D01*
X110767D02*
X111967D01*
X108767D02*
X110067D01*
X105867D02*
X107367D01*
X98267D02*
X102767D01*
X94967D02*
X96467D01*
X84567D02*
X91067D01*
X142567Y63448D02*
X144167D01*
X137867D02*
X139367D01*
X130367D02*
X135267D01*
X126967D02*
X128567D01*
X121567D02*
X123167D01*
X116867D02*
X118467D01*
X113367D02*
X114867D01*
X110767D02*
X112067D01*
X108667D02*
X109967D01*
X105867D02*
X107367D01*
X98267D02*
X103167D01*
X94967D02*
X96467D01*
X84567D02*
X91067D01*
X142567Y63348D02*
X144167D01*
X137867D02*
X139367D01*
X130367D02*
X135467D01*
X126967D02*
X128567D01*
X121567D02*
X123167D01*
X116867D02*
X118467D01*
X113367D02*
X114767D01*
X110767D02*
X112067D01*
X108667D02*
X109967D01*
X105967D02*
X107367D01*
X98267D02*
X103367D01*
X94967D02*
X96467D01*
X84567D02*
X91067D01*
X142567Y63248D02*
X144167D01*
X137867D02*
X139367D01*
X130367D02*
X135667D01*
X126967D02*
X128567D01*
X121667D02*
X123167D01*
X116867D02*
X118467D01*
X113367D02*
X114767D01*
X110867D02*
X112067D01*
X108667D02*
X109967D01*
X105967D02*
X107467D01*
X98267D02*
X103567D01*
X94967D02*
X96467D01*
X84567D02*
X91067D01*
X142567Y63148D02*
X144167D01*
X137867D02*
X139367D01*
X130367D02*
X135767D01*
X126967D02*
X128567D01*
X121667D02*
X123167D01*
X116867D02*
X118367D01*
X113267D02*
X114767D01*
X110867D02*
X112167D01*
X108567D02*
X109867D01*
X105967D02*
X107467D01*
X98267D02*
X103667D01*
X94967D02*
X96467D01*
X84567D02*
X91067D01*
X142567Y63048D02*
X144167D01*
X137867D02*
X139367D01*
X130367D02*
X135867D01*
X126967D02*
X128567D01*
X121667D02*
X123167D01*
X116867D02*
X118367D01*
X113267D02*
X114767D01*
X110867D02*
X112167D01*
X108567D02*
X109867D01*
X106067D02*
X107467D01*
X98267D02*
X103867D01*
X94967D02*
X96467D01*
X84567D02*
X91067D01*
X142567Y62948D02*
X144167D01*
X137867D02*
X139367D01*
X130367D02*
X136067D01*
X126967D02*
X128567D01*
X121667D02*
X123167D01*
X116867D02*
X118367D01*
X113267D02*
X114667D01*
X110867D02*
X112167D01*
X108567D02*
X109867D01*
X106067D02*
X107467D01*
X98267D02*
X103967D01*
X94967D02*
X96467D01*
X84667D02*
X91067D01*
X142567Y62848D02*
X144167D01*
X137867D02*
X139367D01*
X130367D02*
X136067D01*
X126967D02*
X128567D01*
X121667D02*
X123167D01*
X116867D02*
X118367D01*
X113267D02*
X114667D01*
X110967D02*
X112267D01*
X108467D02*
X109867D01*
X106067D02*
X107567D01*
X98267D02*
X104067D01*
X94967D02*
X96467D01*
X84567D02*
X91067D01*
X142567Y62748D02*
X144167D01*
X137867D02*
X139367D01*
X130367D02*
X136167D01*
X126967D02*
X128567D01*
X121667D02*
X123167D01*
X116867D02*
X118367D01*
X113167D02*
X114667D01*
X110967D02*
X112267D01*
X108467D02*
X109767D01*
X106167D02*
X107567D01*
X98267D02*
X104167D01*
X94967D02*
X96467D01*
X84567D02*
X91067D01*
X142567Y62648D02*
X144167D01*
X137867D02*
X139367D01*
X130367D02*
X136267D01*
X126967D02*
X128567D01*
X121567D02*
X123167D01*
X116867D02*
X118467D01*
X113167D02*
X114567D01*
X110967D02*
X112267D01*
X108467D02*
X109767D01*
X106167D02*
X107567D01*
X98267D02*
X104167D01*
X94967D02*
X96467D01*
X84567D02*
X91067D01*
X142567Y62548D02*
X144167D01*
X137867D02*
X139367D01*
X130367D02*
X136367D01*
X126967D02*
X128567D01*
X121567D02*
X123167D01*
X116867D02*
X118467D01*
X113167D02*
X114567D01*
X111067D02*
X112367D01*
X108467D02*
X109767D01*
X106167D02*
X107567D01*
X98267D02*
X104267D01*
X94967D02*
X96467D01*
X84567D02*
X91067D01*
X142567Y62448D02*
X144167D01*
X137867D02*
X139367D01*
X130367D02*
X136367D01*
X126967D02*
X128567D01*
X121567D02*
X123167D01*
X116867D02*
X118467D01*
X113167D02*
X114567D01*
X111067D02*
X112367D01*
X108367D02*
X109667D01*
X106267D02*
X107667D01*
X98267D02*
X104367D01*
X94967D02*
X96467D01*
X84567D02*
X91067D01*
X142567Y62348D02*
X144167D01*
X137867D02*
X139367D01*
X134267D02*
X136467D01*
X130367D02*
X131867D01*
X126967D02*
X128567D01*
X121567D02*
X123167D01*
X116867D02*
X118467D01*
X113067D02*
X114467D01*
X111067D02*
X112367D01*
X108367D02*
X109667D01*
X106267D02*
X107667D01*
X102167D02*
X104367D01*
X98267D02*
X99867D01*
X94967D02*
X96467D01*
X89567D02*
X91067D01*
X142567Y62248D02*
X144167D01*
X137867D02*
X139367D01*
X134667D02*
X136467D01*
X130367D02*
X131867D01*
X126967D02*
X128567D01*
X121567D02*
X123167D01*
X116867D02*
X118467D01*
X113067D02*
X114467D01*
X111167D02*
X112467D01*
X108367D02*
X109667D01*
X106267D02*
X107667D01*
X102567D02*
X104467D01*
X98267D02*
X99767D01*
X94967D02*
X96467D01*
X89567D02*
X91067D01*
X142567Y62148D02*
X144167D01*
X137867D02*
X139367D01*
X134867D02*
X136567D01*
X130367D02*
X131867D01*
X126967D02*
X128567D01*
X121567D02*
X123167D01*
X116867D02*
X118467D01*
X113067D02*
X114467D01*
X111167D02*
X112467D01*
X108267D02*
X109567D01*
X106367D02*
X107767D01*
X102767D02*
X104467D01*
X98267D02*
X99767D01*
X94967D02*
X96467D01*
X89567D02*
X91067D01*
X142567Y62048D02*
X144167D01*
X137867D02*
X139367D01*
X134967D02*
X136567D01*
X130367D02*
X131867D01*
X126967D02*
X128567D01*
X121567D02*
X123167D01*
X116867D02*
X118467D01*
X112967D02*
X114367D01*
X111167D02*
X112467D01*
X108267D02*
X109567D01*
X106367D02*
X107767D01*
X102867D02*
X104467D01*
X98267D02*
X99767D01*
X94967D02*
X96467D01*
X89567D02*
X90967D01*
X142567Y61948D02*
X144167D01*
X137867D02*
X139367D01*
X135067D02*
X136567D01*
X130367D02*
X131867D01*
X126967D02*
X128567D01*
X121567D02*
X123167D01*
X116867D02*
X118467D01*
X112967D02*
X114367D01*
X111167D02*
X112567D01*
X108267D02*
X109567D01*
X106367D02*
X107767D01*
X102967D02*
X104467D01*
X98267D02*
X99767D01*
X94967D02*
X96467D01*
X89567D02*
X90967D01*
X142567Y61848D02*
X144167D01*
X137867D02*
X139367D01*
X135167D02*
X136567D01*
X130367D02*
X131867D01*
X126967D02*
X128567D01*
X121567D02*
X123167D01*
X116867D02*
X118467D01*
X112967D02*
X114367D01*
X111267D02*
X112567D01*
X108167D02*
X109567D01*
X106467D02*
X107767D01*
X103067D02*
X104567D01*
X98267D02*
X99767D01*
X94967D02*
X96467D01*
X89467D02*
X90967D01*
X142567Y61748D02*
X144167D01*
X137867D02*
X139367D01*
X135167D02*
X136667D01*
X130367D02*
X131867D01*
X126967D02*
X128567D01*
X121567D02*
X123167D01*
X116867D02*
X118467D01*
X112967D02*
X114267D01*
X111267D02*
X112567D01*
X108167D02*
X109467D01*
X106467D02*
X107867D01*
X103067D02*
X104567D01*
X98267D02*
X99767D01*
X94967D02*
X96467D01*
X89467D02*
X90967D01*
X142567Y61648D02*
X144167D01*
X137867D02*
X139367D01*
X135167D02*
X136667D01*
X130367D02*
X131867D01*
X126967D02*
X128567D01*
X121567D02*
X123067D01*
X116867D02*
X118567D01*
X112867D02*
X114267D01*
X111267D02*
X112667D01*
X108167D02*
X109467D01*
X106467D02*
X107867D01*
X103167D02*
X104567D01*
X98267D02*
X99867D01*
X94967D02*
X96467D01*
X89467D02*
X90967D01*
X142567Y61548D02*
X144167D01*
X137867D02*
X139367D01*
X135167D02*
X136667D01*
X130367D02*
X131867D01*
X126967D02*
X128567D01*
X121467D02*
X123067D01*
X116867D02*
X118567D01*
X112867D02*
X114267D01*
X111367D02*
X112667D01*
X108067D02*
X109467D01*
X106467D02*
X107867D01*
X103167D02*
X104567D01*
X98267D02*
X99867D01*
X94967D02*
X96467D01*
X89467D02*
X90967D01*
X142567Y61448D02*
X144167D01*
X137867D02*
X139367D01*
X135267D02*
X136667D01*
X130367D02*
X131867D01*
X126967D02*
X128567D01*
X121467D02*
X123067D01*
X116867D02*
X118567D01*
X112867D02*
X114167D01*
X111367D02*
X112667D01*
X108067D02*
X109367D01*
X106567D02*
X107867D01*
X103167D02*
X104567D01*
X98267D02*
X99867D01*
X94967D02*
X96467D01*
X89367D02*
X90867D01*
X142567Y61348D02*
X144167D01*
X137867D02*
X139367D01*
X135267D02*
X136667D01*
X130367D02*
X131867D01*
X126967D02*
X128567D01*
X121467D02*
X123067D01*
X116867D02*
X118567D01*
X111367D02*
X114167D01*
X106567D02*
X109367D01*
X103167D02*
X104567D01*
X98267D02*
X99867D01*
X94967D02*
X96467D01*
X89367D02*
X90867D01*
X142567Y61248D02*
X144167D01*
X137867D02*
X139367D01*
X135167D02*
X136667D01*
X130367D02*
X131967D01*
X126967D02*
X128567D01*
X121367D02*
X123067D01*
X116867D02*
X118667D01*
X111467D02*
X114167D01*
X106567D02*
X109367D01*
X103167D02*
X104567D01*
X98267D02*
X99867D01*
X94967D02*
X96467D01*
X89267D02*
X90867D01*
X142567Y61148D02*
X144167D01*
X137867D02*
X139367D01*
X135167D02*
X136667D01*
X130367D02*
X131967D01*
X126967D02*
X128567D01*
X121367D02*
X123067D01*
X116867D02*
X118767D01*
X111467D02*
X114067D01*
X106667D02*
X109267D01*
X103067D02*
X104567D01*
X98267D02*
X99867D01*
X94967D02*
X96467D01*
X89267D02*
X90867D01*
X142567Y61048D02*
X144167D01*
X137867D02*
X139367D01*
X135167D02*
X136667D01*
X130367D02*
X131967D01*
X126967D02*
X128567D01*
X121267D02*
X123067D01*
X116867D02*
X118767D01*
X111467D02*
X114067D01*
X106667D02*
X109267D01*
X103067D02*
X104567D01*
X98267D02*
X99867D01*
X94967D02*
X96467D01*
X89167D02*
X90767D01*
X85767D02*
X85967D01*
X142567Y60948D02*
X144167D01*
X137867D02*
X139367D01*
X135167D02*
X136667D01*
X130367D02*
X132067D01*
X126967D02*
X128567D01*
X121167D02*
X123067D01*
X116867D02*
X118867D01*
X111467D02*
X114067D01*
X106667D02*
X109267D01*
X103067D02*
X104567D01*
X98267D02*
X99967D01*
X94967D02*
X96467D01*
X89067D02*
X90767D01*
X85667D02*
X86067D01*
X142567Y60848D02*
X144167D01*
X137867D02*
X139367D01*
X135067D02*
X136667D01*
X130367D02*
X132067D01*
X126967D02*
X128567D01*
X121067D02*
X122967D01*
X116867D02*
X118967D01*
X111567D02*
X113967D01*
X106767D02*
X109267D01*
X102967D02*
X104567D01*
X98267D02*
X99967D01*
X94967D02*
X96467D01*
X88967D02*
X90667D01*
X85567D02*
X86267D01*
X142567Y60748D02*
X144167D01*
X137867D02*
X139367D01*
X134967D02*
X136567D01*
X130367D02*
X132167D01*
X126967D02*
X128567D01*
X120967D02*
X122967D01*
X116867D02*
X119067D01*
X111567D02*
X113967D01*
X106767D02*
X109167D01*
X102867D02*
X104567D01*
X98267D02*
X100067D01*
X94967D02*
X96467D01*
X88867D02*
X90667D01*
X85467D02*
X86367D01*
X142567Y60648D02*
X144167D01*
X137867D02*
X139367D01*
X134867D02*
X136567D01*
X130367D02*
X132267D01*
X126967D02*
X128567D01*
X120867D02*
X122967D01*
X116867D02*
X119167D01*
X111567D02*
X113967D01*
X106767D02*
X109167D01*
X102767D02*
X104467D01*
X98267D02*
X100167D01*
X94967D02*
X96467D01*
X88767D02*
X90567D01*
X85367D02*
X86567D01*
X142567Y60548D02*
X144167D01*
X137867D02*
X139367D01*
X134667D02*
X136567D01*
X130367D02*
X132367D01*
X126967D02*
X128567D01*
X120567D02*
X122867D01*
X116867D02*
X119467D01*
X111667D02*
X113967D01*
X106867D02*
X109167D01*
X102567D02*
X104467D01*
X98267D02*
X100367D01*
X94967D02*
X96467D01*
X88567D02*
X90567D01*
X85267D02*
X86767D01*
X142567Y60448D02*
X144167D01*
X137867D02*
X139367D01*
X134367D02*
X136467D01*
X130367D02*
X132667D01*
X126967D02*
X128567D01*
X116867D02*
X122867D01*
X111667D02*
X113867D01*
X106867D02*
X109067D01*
X102367D02*
X104467D01*
X98267D02*
X100567D01*
X94967D02*
X96467D01*
X88267D02*
X90467D01*
X85067D02*
X87067D01*
X142567Y60348D02*
X144167D01*
X137867D02*
X139367D01*
X130367D02*
X136467D01*
X126967D02*
X128567D01*
X116867D02*
X122867D01*
X111667D02*
X113867D01*
X106867D02*
X109067D01*
X98267D02*
X104367D01*
X94967D02*
X96467D01*
X84967D02*
X90467D01*
X142567Y60248D02*
X144167D01*
X137867D02*
X139367D01*
X130367D02*
X136367D01*
X126967D02*
X128567D01*
X116867D02*
X122767D01*
X111667D02*
X113867D01*
X106967D02*
X109067D01*
X98267D02*
X104367D01*
X94967D02*
X96467D01*
X84867D02*
X90367D01*
X142567Y60148D02*
X144167D01*
X137867D02*
X139367D01*
X130367D02*
X136367D01*
X126967D02*
X128567D01*
X116867D02*
X122667D01*
X111767D02*
X113767D01*
X106967D02*
X108967D01*
X98267D02*
X104267D01*
X94967D02*
X96467D01*
X84867D02*
X90267D01*
X142567Y60048D02*
X144167D01*
X137867D02*
X139367D01*
X130367D02*
X136267D01*
X126967D02*
X128567D01*
X116867D02*
X122667D01*
X111767D02*
X113767D01*
X106967D02*
X108967D01*
X98267D02*
X104267D01*
X94967D02*
X96467D01*
X84967D02*
X90267D01*
X142567Y59948D02*
X144167D01*
X137867D02*
X139367D01*
X130367D02*
X136267D01*
X126967D02*
X128567D01*
X116867D02*
X122567D01*
X111767D02*
X113767D01*
X107067D02*
X108967D01*
X98267D02*
X104167D01*
X94967D02*
X96467D01*
X85067D02*
X90167D01*
X142567Y59848D02*
X144167D01*
X137867D02*
X139367D01*
X130367D02*
X136167D01*
X126967D02*
X128567D01*
X116867D02*
X122467D01*
X111867D02*
X113667D01*
X107067D02*
X108967D01*
X98267D02*
X104067D01*
X94967D02*
X96467D01*
X85167D02*
X90067D01*
X142567Y59748D02*
X144167D01*
X137867D02*
X139367D01*
X130367D02*
X136067D01*
X126967D02*
X128567D01*
X118567D02*
X122367D01*
X116867D02*
X118367D01*
X111867D02*
X113667D01*
X107067D02*
X108867D01*
X98267D02*
X103967D01*
X94967D02*
X96467D01*
X85267D02*
X89967D01*
X142567Y59648D02*
X144167D01*
X137867D02*
X139367D01*
X132067D02*
X135967D01*
X130367D02*
X131867D01*
X126967D02*
X128567D01*
X118667D02*
X122267D01*
X116867D02*
X118367D01*
X111867D02*
X113667D01*
X107167D02*
X108867D01*
X99967D02*
X103867D01*
X98267D02*
X99767D01*
X94967D02*
X96467D01*
X85367D02*
X89867D01*
X142567Y59548D02*
X144167D01*
X137867D02*
X139367D01*
X132167D02*
X135867D01*
X130367D02*
X131867D01*
X126967D02*
X128567D01*
X118767D02*
X122167D01*
X116867D02*
X118367D01*
X111967D02*
X113567D01*
X107167D02*
X108867D01*
X100067D02*
X103767D01*
X98267D02*
X99767D01*
X94967D02*
X96467D01*
X85567D02*
X89667D01*
X142567Y59448D02*
X144167D01*
X137867D02*
X139367D01*
X132167D02*
X135667D01*
X130367D02*
X131867D01*
X126967D02*
X128567D01*
X118967D02*
X122067D01*
X116867D02*
X118367D01*
X111967D02*
X113567D01*
X107167D02*
X108767D01*
X100167D02*
X103667D01*
X98267D02*
X99767D01*
X94967D02*
X96467D01*
X85667D02*
X89567D01*
X142567Y59348D02*
X144167D01*
X137867D02*
X139367D01*
X132267D02*
X135567D01*
X130367D02*
X131867D01*
X126967D02*
X128567D01*
X119067D02*
X121967D01*
X116867D02*
X118367D01*
X111967D02*
X113567D01*
X107267D02*
X108767D01*
X100267D02*
X103467D01*
X98267D02*
X99767D01*
X94967D02*
X96467D01*
X85867D02*
X89367D01*
X142567Y59248D02*
X144167D01*
X137867D02*
X139367D01*
X132467D02*
X135367D01*
X130367D02*
X131867D01*
X126967D02*
X128567D01*
X119267D02*
X121767D01*
X116867D02*
X118367D01*
X111967D02*
X113467D01*
X107267D02*
X108767D01*
X100367D02*
X103267D01*
X98267D02*
X99767D01*
X94967D02*
X96467D01*
X86067D02*
X89167D01*
X142567Y59148D02*
X144167D01*
X137867D02*
X139367D01*
X132667D02*
X135167D01*
X130367D02*
X131867D01*
X126967D02*
X128567D01*
X119467D02*
X121567D01*
X116867D02*
X118367D01*
X112067D02*
X113467D01*
X107267D02*
X108667D01*
X100567D02*
X103067D01*
X98267D02*
X99767D01*
X94967D02*
X96467D01*
X86367D02*
X88967D01*
X142567Y59048D02*
X144167D01*
X137867D02*
X139367D01*
X132967D02*
X134767D01*
X130367D02*
X131867D01*
X126967D02*
X128567D01*
X119767D02*
X121267D01*
X116867D02*
X118367D01*
X112067D02*
X113467D01*
X107267D02*
X108667D01*
X100867D02*
X102767D01*
X98267D02*
X99767D01*
X94967D02*
X96467D01*
X86667D02*
X88567D01*
X133667Y58948D02*
X134067D01*
X120367D02*
X120567D01*
X101667D02*
X101967D01*
X87467D02*
X87767D01*
X90467Y127448D02*
X137567D01*
M02*
