M48
;Layer_Color=9474304
;FILE_FORMAT=2:5
INCH,TZ
;TYPE=PLATED
T1F00S00C0.01181
T2F00S00C0.01968
T3F00S00C0.03543
%
T01
X143319Y105000
Y108937
T02
X163819Y25000
X158319Y68000
X168504Y69685
X171819Y88250
X132819Y75650
X117819Y87000
X116319Y103000
X103319Y72500
X114669Y58000
X106819Y18000
X124409Y18504
X132319Y18000
X84319Y29224
X60819Y67000
Y71500
X50819Y112500
Y116500
Y120500
X61197Y133858
X107819Y132500
X112319
Y137000
X107819
Y141500
X112319
X111069Y149500
X112205Y127953
X107819Y128000
Y123500
X112205Y123228
X116319Y116500
X134819Y141000
X138819
X145069Y154500
Y160500
X162075Y109500
T03
X188819Y8500
X198819
Y18500
X188819
Y28500
X198819
Y38500
X188819
Y48500
X198819
Y58500
X188819
Y68500
X198819
Y78500
X188819
Y88500
X198819
Y98500
X188819
X18819
Y88500
Y78500
Y68500
Y58500
Y48500
Y38500
Y28500
Y18500
Y8500
X8819
Y18500
Y28500
Y38500
Y48500
Y58500
Y68500
Y78500
Y88500
Y98500
Y108500
X18819
Y118500
X8819
Y128500
X18819
Y138500
X8819
Y148500
X18819
Y158500
X8819
Y168500
X18819
X59449Y158071
X76772
X188819Y158500
Y148500
Y138500
Y128500
Y118500
Y108500
X198819
Y118500
Y128500
Y138500
Y148500
Y158500
Y168500
X188819
M30
