G04 Layer_Physical_Order=1*
G04 Layer_Color=255*
%FSLAX25Y25*%
%MOIN*%
G70*
G01*
G75*
%ADD10R,0.01969X0.09843*%
%ADD11R,0.07874X0.09843*%
%ADD12R,0.07874X0.11811*%
%ADD13R,0.15748X0.11024*%
%ADD14R,0.06299X0.02362*%
%ADD15R,0.09488X0.23622*%
%ADD16R,0.08661X0.07874*%
%ADD17R,0.04331X0.05512*%
%ADD18R,0.09449X0.08661*%
%ADD19R,0.06890X0.05512*%
%ADD20R,0.05906X0.02165*%
%ADD21R,0.02165X0.05906*%
%ADD22R,0.03543X0.04724*%
%ADD23R,0.04724X0.03543*%
%ADD24R,0.07874X0.08661*%
%ADD25C,0.03937*%
%ADD26C,0.01969*%
%ADD27C,0.03543*%
%ADD28R,0.05906X0.05906*%
%ADD29C,0.05906*%
%ADD30O,0.03937X0.02362*%
%ADD31C,0.03937*%
G36*
X226154Y1405D02*
X1405D01*
Y175095D01*
X226154D01*
Y1405D01*
D02*
G37*
%LPC*%
G36*
X103016Y153240D02*
X96716D01*
Y145760D01*
X96888D01*
Y141665D01*
X95457D01*
Y137335D01*
X96612D01*
Y136665D01*
X95457D01*
Y132335D01*
X103724D01*
Y136665D01*
X102569D01*
Y137335D01*
X103724D01*
Y141665D01*
X102844D01*
Y145760D01*
X103016D01*
Y153240D01*
D02*
G37*
G36*
X55709Y153740D02*
X45866D01*
Y141929D01*
X55709D01*
Y153740D01*
D02*
G37*
G36*
X90354D02*
X80512D01*
Y141929D01*
X90354D01*
Y153740D01*
D02*
G37*
G36*
X100575Y25091D02*
X95063D01*
Y24722D01*
X91575D01*
Y25091D01*
X86063D01*
Y22807D01*
X85942Y22515D01*
X85841Y21744D01*
X85942Y20973D01*
X86063Y20682D01*
Y18398D01*
X91575D01*
Y18766D01*
X95063D01*
Y18398D01*
X100575D01*
Y20682D01*
X100696Y20973D01*
X100797Y21744D01*
X100696Y22515D01*
X100575Y22807D01*
Y25091D01*
D02*
G37*
G36*
X118575Y32866D02*
X113063D01*
Y32203D01*
X109575D01*
Y32571D01*
X104063D01*
Y32203D01*
X100575D01*
Y32571D01*
X95063D01*
Y30287D01*
X94942Y29995D01*
X94841Y29224D01*
X94942Y28454D01*
X95063Y28162D01*
Y25878D01*
X100575D01*
Y26246D01*
X104063D01*
Y25878D01*
X109575D01*
Y26246D01*
X112841D01*
Y24339D01*
X112942Y23568D01*
X113240Y22850D01*
X113713Y22233D01*
X115776Y20170D01*
X116393Y19696D01*
X117111Y19399D01*
X117497Y19348D01*
X117882Y19297D01*
X117882Y19297D01*
X121341D01*
Y18595D01*
X121442Y17824D01*
X121740Y17105D01*
X122213Y16489D01*
X122303Y16398D01*
X122303Y16398D01*
X122920Y15925D01*
X123639Y15627D01*
X124409Y15526D01*
X125180Y15627D01*
X125899Y15925D01*
X126515Y16398D01*
X126989Y17015D01*
X127286Y17733D01*
X127388Y18504D01*
X127297Y19192D01*
Y22276D01*
X127196Y23046D01*
X127075Y23338D01*
Y25622D01*
X121563D01*
Y25254D01*
X119115D01*
X118797Y25572D01*
Y29520D01*
X118696Y30290D01*
X118575Y30582D01*
Y32866D01*
D02*
G37*
G36*
X75197Y153766D02*
X75003Y153740D01*
X62992D01*
Y141929D01*
X72219D01*
Y134622D01*
X72320Y133851D01*
X72618Y133133D01*
X73091Y132516D01*
X79455Y126152D01*
Y123496D01*
X73575D01*
Y110504D01*
X91291D01*
Y114022D01*
X95819D01*
X96590Y114123D01*
X97308Y114421D01*
X97925Y114894D01*
X101697Y118666D01*
X101697Y118666D01*
X102170Y119282D01*
X102467Y120001D01*
X102569Y120772D01*
Y122335D01*
X103724D01*
Y126665D01*
X102569D01*
Y127335D01*
X103724D01*
Y131665D01*
X95457D01*
Y127335D01*
X96612D01*
Y126665D01*
X95457D01*
Y122335D01*
X96235D01*
X96442Y121835D01*
X94585Y119978D01*
X91291D01*
Y123496D01*
X85411D01*
Y127386D01*
X85310Y128157D01*
X85012Y128875D01*
X84539Y129492D01*
X78175Y135856D01*
Y150787D01*
X78074Y151558D01*
X77776Y152277D01*
X77303Y152893D01*
X76686Y153367D01*
X76378Y153494D01*
Y153740D01*
X75390D01*
X75197Y153766D01*
D02*
G37*
G36*
X90354Y173425D02*
X80512D01*
Y159646D01*
X90354D01*
Y173425D01*
D02*
G37*
G36*
X198819Y172471D02*
X197791Y172336D01*
X196833Y171939D01*
X196011Y171308D01*
X195380Y170485D01*
X194983Y169528D01*
X194848Y168500D01*
X194983Y167472D01*
X195380Y166515D01*
X196011Y165692D01*
X196833Y165061D01*
X197791Y164664D01*
X198819Y164529D01*
X199847Y164664D01*
X200804Y165061D01*
X201627Y165692D01*
X202258Y166515D01*
X202655Y167472D01*
X202790Y168500D01*
X202655Y169528D01*
X202258Y170485D01*
X201627Y171308D01*
X200804Y171939D01*
X199847Y172336D01*
X198819Y172471D01*
D02*
G37*
G36*
X188819D02*
X187791Y172336D01*
X186833Y171939D01*
X186011Y171308D01*
X185380Y170485D01*
X184983Y169528D01*
X184848Y168500D01*
X184983Y167472D01*
X185380Y166515D01*
X186011Y165692D01*
X186833Y165061D01*
X187791Y164664D01*
X188819Y164529D01*
X189847Y164664D01*
X190804Y165061D01*
X191627Y165692D01*
X192258Y166515D01*
X192655Y167472D01*
X192790Y168500D01*
X192655Y169528D01*
X192258Y170485D01*
X191627Y171308D01*
X190804Y171939D01*
X189847Y172336D01*
X188819Y172471D01*
D02*
G37*
G36*
X18819D02*
X17791Y172336D01*
X16833Y171939D01*
X16233Y171478D01*
X11405D01*
X10804Y171939D01*
X9847Y172336D01*
X8819Y172471D01*
X7791Y172336D01*
X6833Y171939D01*
X6011Y171308D01*
X5380Y170485D01*
X4983Y169528D01*
X4848Y168500D01*
X4983Y167472D01*
X5380Y166515D01*
X6011Y165692D01*
X6833Y165061D01*
X7791Y164664D01*
X8819Y164529D01*
X9847Y164664D01*
X10804Y165061D01*
X11405Y165522D01*
X16233D01*
X16833Y165061D01*
X17791Y164664D01*
X18819Y164529D01*
X19847Y164664D01*
X20804Y165061D01*
X21627Y165692D01*
X22241Y166493D01*
X24763D01*
X41300Y149956D01*
Y137402D01*
X41388Y136961D01*
X40927Y136715D01*
X39802Y137839D01*
Y146457D01*
X39650Y147225D01*
X39215Y147876D01*
X27171Y159919D01*
X26520Y160354D01*
X25752Y160507D01*
X22241D01*
X21627Y161308D01*
X20804Y161939D01*
X19847Y162336D01*
X18819Y162471D01*
X17791Y162336D01*
X16833Y161939D01*
X16233Y161478D01*
X11405D01*
X10804Y161939D01*
X9847Y162336D01*
X8819Y162471D01*
X7791Y162336D01*
X6833Y161939D01*
X6011Y161308D01*
X5380Y160485D01*
X4983Y159528D01*
X4848Y158500D01*
X4983Y157472D01*
X5380Y156515D01*
X6011Y155692D01*
X6833Y155061D01*
X7791Y154664D01*
X8819Y154529D01*
X9847Y154664D01*
X10804Y155061D01*
X11405Y155522D01*
X16233D01*
X16833Y155061D01*
X17791Y154664D01*
X18819Y154529D01*
X19847Y154664D01*
X20804Y155061D01*
X21627Y155692D01*
X22241Y156493D01*
X24921D01*
X35788Y145625D01*
Y137008D01*
X35876Y136567D01*
X35415Y136321D01*
X22722Y149014D01*
X22655Y149528D01*
X22258Y150486D01*
X21627Y151308D01*
X20804Y151939D01*
X19847Y152336D01*
X18819Y152471D01*
X17791Y152336D01*
X16833Y151939D01*
X16233Y151478D01*
X11405D01*
X10804Y151939D01*
X9847Y152336D01*
X8819Y152471D01*
X7791Y152336D01*
X6833Y151939D01*
X6011Y151308D01*
X5380Y150486D01*
X4983Y149528D01*
X4848Y148500D01*
X4983Y147472D01*
X5380Y146514D01*
X6011Y145692D01*
X6833Y145061D01*
X7791Y144664D01*
X8819Y144529D01*
X9847Y144664D01*
X10804Y145061D01*
X11405Y145522D01*
X16233D01*
X16833Y145061D01*
X17791Y144664D01*
X18819Y144529D01*
X19847Y144664D01*
X20804Y145061D01*
X20914Y145145D01*
X40753Y125306D01*
X40716Y125035D01*
X40186Y124857D01*
X25124Y139919D01*
X24473Y140354D01*
X23705Y140507D01*
X22241D01*
X21627Y141308D01*
X20804Y141939D01*
X19847Y142336D01*
X18819Y142471D01*
X17791Y142336D01*
X16833Y141939D01*
X16233Y141478D01*
X11405D01*
X10804Y141939D01*
X9847Y142336D01*
X8819Y142471D01*
X7791Y142336D01*
X6833Y141939D01*
X6011Y141308D01*
X5380Y140486D01*
X4983Y139528D01*
X4848Y138500D01*
X4983Y137472D01*
X5380Y136514D01*
X6011Y135692D01*
X6833Y135061D01*
X7791Y134664D01*
X8819Y134529D01*
X9847Y134664D01*
X10804Y135061D01*
X11405Y135522D01*
X16233D01*
X16833Y135061D01*
X17791Y134664D01*
X18819Y134529D01*
X19847Y134664D01*
X20804Y135061D01*
X21627Y135692D01*
X22241Y136493D01*
X22873D01*
X37363Y122003D01*
Y119726D01*
X36863Y119519D01*
X26463Y129919D01*
X25811Y130354D01*
X25043Y130507D01*
X22241D01*
X21627Y131308D01*
X20804Y131939D01*
X19847Y132336D01*
X18819Y132471D01*
X17791Y132336D01*
X16833Y131939D01*
X16233Y131478D01*
X11405D01*
X10804Y131939D01*
X9847Y132336D01*
X8819Y132471D01*
X7791Y132336D01*
X6833Y131939D01*
X6011Y131308D01*
X5380Y130485D01*
X4983Y129528D01*
X4848Y128500D01*
X4983Y127472D01*
X5380Y126514D01*
X6011Y125692D01*
X6833Y125061D01*
X7791Y124664D01*
X8819Y124529D01*
X9847Y124664D01*
X10804Y125061D01*
X11405Y125522D01*
X16233D01*
X16833Y125061D01*
X17791Y124664D01*
X18819Y124529D01*
X19847Y124664D01*
X20804Y125061D01*
X21627Y125692D01*
X22241Y126493D01*
X24212D01*
X33820Y116885D01*
Y114554D01*
X33358Y114363D01*
X27801Y119919D01*
X27150Y120354D01*
X26382Y120507D01*
X22241D01*
X21627Y121308D01*
X20804Y121939D01*
X19847Y122336D01*
X18819Y122471D01*
X17791Y122336D01*
X16833Y121939D01*
X16233Y121478D01*
X11405D01*
X10804Y121939D01*
X9847Y122336D01*
X8819Y122471D01*
X7791Y122336D01*
X6833Y121939D01*
X6011Y121308D01*
X5380Y120485D01*
X4983Y119528D01*
X4848Y118500D01*
X4983Y117472D01*
X5380Y116515D01*
X6011Y115692D01*
X6833Y115061D01*
X7791Y114664D01*
X8819Y114529D01*
X9847Y114664D01*
X10804Y115061D01*
X11405Y115522D01*
X16233D01*
X16833Y115061D01*
X17791Y114664D01*
X18819Y114529D01*
X19847Y114664D01*
X20804Y115061D01*
X21627Y115692D01*
X22241Y116493D01*
X25550D01*
X30670Y111373D01*
Y106680D01*
X30208Y106489D01*
X26777Y109919D01*
X26126Y110354D01*
X25358Y110507D01*
X22241D01*
X21627Y111308D01*
X20804Y111939D01*
X19847Y112336D01*
X18819Y112471D01*
X17791Y112336D01*
X16833Y111939D01*
X16233Y111478D01*
X11405D01*
X10804Y111939D01*
X9847Y112336D01*
X8819Y112471D01*
X7791Y112336D01*
X6833Y111939D01*
X6011Y111308D01*
X5380Y110485D01*
X4983Y109528D01*
X4848Y108500D01*
X4983Y107472D01*
X5380Y106515D01*
X6011Y105692D01*
X6833Y105061D01*
X7791Y104664D01*
X8819Y104529D01*
X9847Y104664D01*
X10804Y105061D01*
X11405Y105522D01*
X16233D01*
X16833Y105061D01*
X17791Y104664D01*
X18819Y104529D01*
X19847Y104664D01*
X20804Y105061D01*
X21627Y105692D01*
X22241Y106493D01*
X24527D01*
X30051Y100969D01*
X29860Y100507D01*
X22241D01*
X21627Y101308D01*
X20804Y101939D01*
X19847Y102336D01*
X18819Y102471D01*
X17791Y102336D01*
X16833Y101939D01*
X16233Y101478D01*
X11405D01*
X10804Y101939D01*
X9847Y102336D01*
X8819Y102471D01*
X7791Y102336D01*
X6833Y101939D01*
X6011Y101308D01*
X5380Y100486D01*
X4983Y99528D01*
X4848Y98500D01*
X4983Y97472D01*
X5380Y96514D01*
X6011Y95692D01*
X6833Y95061D01*
X7791Y94664D01*
X8819Y94529D01*
X9847Y94664D01*
X10804Y95061D01*
X11405Y95522D01*
X16233D01*
X16833Y95061D01*
X17791Y94664D01*
X18819Y94529D01*
X19847Y94664D01*
X20804Y95061D01*
X21627Y95692D01*
X22241Y96493D01*
X29803D01*
X35326Y90969D01*
X35135Y90507D01*
X22241D01*
X21627Y91308D01*
X20804Y91939D01*
X19847Y92336D01*
X18819Y92471D01*
X17791Y92336D01*
X16833Y91939D01*
X16233Y91478D01*
X11405D01*
X10804Y91939D01*
X9847Y92336D01*
X8819Y92471D01*
X7791Y92336D01*
X6833Y91939D01*
X6011Y91308D01*
X5380Y90486D01*
X4983Y89528D01*
X4848Y88500D01*
X4983Y87472D01*
X5380Y86515D01*
X6011Y85692D01*
X6833Y85061D01*
X7791Y84664D01*
X8819Y84529D01*
X9847Y84664D01*
X10804Y85061D01*
X11405Y85522D01*
X16233D01*
X16833Y85061D01*
X17791Y84664D01*
X18819Y84529D01*
X19847Y84664D01*
X20804Y85061D01*
X21627Y85692D01*
X22241Y86493D01*
X35078D01*
X45990Y75581D01*
X46641Y75146D01*
X47409Y74993D01*
X72771D01*
X73197Y74815D01*
X73197Y74493D01*
Y64185D01*
X81151D01*
X81401Y63685D01*
X81266Y63507D01*
X47599D01*
X31187Y79919D01*
X30536Y80354D01*
X29768Y80507D01*
X22241D01*
X21627Y81308D01*
X20804Y81939D01*
X19847Y82336D01*
X18819Y82471D01*
X17791Y82336D01*
X16833Y81939D01*
X16233Y81478D01*
X11405D01*
X10804Y81939D01*
X9847Y82336D01*
X8819Y82471D01*
X7791Y82336D01*
X6833Y81939D01*
X6011Y81308D01*
X5380Y80485D01*
X4983Y79528D01*
X4848Y78500D01*
X4983Y77472D01*
X5380Y76515D01*
X6011Y75692D01*
X6833Y75061D01*
X7791Y74664D01*
X8819Y74529D01*
X9847Y74664D01*
X10804Y75061D01*
X11405Y75522D01*
X16233D01*
X16833Y75061D01*
X17791Y74664D01*
X18819Y74529D01*
X19847Y74664D01*
X20804Y75061D01*
X21627Y75692D01*
X22241Y76493D01*
X28936D01*
X34422Y71007D01*
X34215Y70507D01*
X22241D01*
X21627Y71308D01*
X20804Y71939D01*
X19847Y72336D01*
X18819Y72471D01*
X17791Y72336D01*
X16833Y71939D01*
X16233Y71478D01*
X11405D01*
X10804Y71939D01*
X9847Y72336D01*
X8819Y72471D01*
X7791Y72336D01*
X6833Y71939D01*
X6011Y71308D01*
X5380Y70486D01*
X4983Y69528D01*
X4848Y68500D01*
X4983Y67472D01*
X5380Y66514D01*
X6011Y65692D01*
X6833Y65061D01*
X7791Y64664D01*
X8819Y64529D01*
X9847Y64664D01*
X10804Y65061D01*
X11405Y65522D01*
X16233D01*
X16833Y65061D01*
X17791Y64664D01*
X18819Y64529D01*
X19847Y64664D01*
X20804Y65061D01*
X21627Y65692D01*
X22241Y66493D01*
X33818D01*
X39304Y61007D01*
X39097Y60507D01*
X22241D01*
X21627Y61308D01*
X20804Y61939D01*
X19847Y62336D01*
X18819Y62471D01*
X17791Y62336D01*
X16833Y61939D01*
X16233Y61478D01*
X11405D01*
X10804Y61939D01*
X9847Y62336D01*
X8819Y62471D01*
X7791Y62336D01*
X6833Y61939D01*
X6011Y61308D01*
X5380Y60486D01*
X4983Y59528D01*
X4848Y58500D01*
X4983Y57472D01*
X5380Y56515D01*
X6011Y55692D01*
X6833Y55061D01*
X7791Y54664D01*
X8819Y54529D01*
X9847Y54664D01*
X10804Y55061D01*
X11405Y55522D01*
X16233D01*
X16833Y55061D01*
X17791Y54664D01*
X18819Y54529D01*
X19847Y54664D01*
X20804Y55061D01*
X21627Y55692D01*
X22241Y56493D01*
X38700D01*
X41986Y53207D01*
X42006Y52746D01*
X41955Y52585D01*
X41707Y52419D01*
X39795Y50507D01*
X22241D01*
X21627Y51308D01*
X20804Y51939D01*
X19847Y52336D01*
X18819Y52471D01*
X17791Y52336D01*
X16833Y51939D01*
X16233Y51478D01*
X11405D01*
X10804Y51939D01*
X9847Y52336D01*
X8819Y52471D01*
X7791Y52336D01*
X6833Y51939D01*
X6011Y51308D01*
X5380Y50485D01*
X4983Y49528D01*
X4848Y48500D01*
X4983Y47472D01*
X5380Y46514D01*
X6011Y45692D01*
X6833Y45061D01*
X7791Y44664D01*
X8819Y44529D01*
X9847Y44664D01*
X10804Y45061D01*
X11405Y45522D01*
X16233D01*
X16833Y45061D01*
X17791Y44664D01*
X18819Y44529D01*
X19847Y44664D01*
X20804Y45061D01*
X21627Y45692D01*
X22241Y46493D01*
X39852D01*
X40043Y46031D01*
X34519Y40507D01*
X22241D01*
X21627Y41308D01*
X20804Y41939D01*
X19847Y42336D01*
X18819Y42471D01*
X17791Y42336D01*
X16833Y41939D01*
X16233Y41478D01*
X11405D01*
X10804Y41939D01*
X9847Y42336D01*
X8819Y42471D01*
X7791Y42336D01*
X6833Y41939D01*
X6011Y41308D01*
X5380Y40486D01*
X4983Y39528D01*
X4848Y38500D01*
X4983Y37472D01*
X5380Y36514D01*
X6011Y35692D01*
X6833Y35061D01*
X7791Y34664D01*
X8819Y34529D01*
X9847Y34664D01*
X10804Y35061D01*
X11405Y35522D01*
X16233D01*
X16833Y35061D01*
X17791Y34664D01*
X18819Y34529D01*
X19847Y34664D01*
X20804Y35061D01*
X21627Y35692D01*
X22241Y36493D01*
X35350D01*
X35791Y36581D01*
X36037Y36120D01*
X30424Y30507D01*
X22241D01*
X21627Y31308D01*
X20804Y31939D01*
X19847Y32336D01*
X18819Y32471D01*
X17791Y32336D01*
X16833Y31939D01*
X16233Y31478D01*
X11405D01*
X10804Y31939D01*
X9847Y32336D01*
X8819Y32471D01*
X7791Y32336D01*
X6833Y31939D01*
X6011Y31308D01*
X5380Y30485D01*
X4983Y29528D01*
X4848Y28500D01*
X4983Y27472D01*
X5380Y26515D01*
X6011Y25692D01*
X6833Y25061D01*
X7791Y24664D01*
X8819Y24529D01*
X9847Y24664D01*
X10804Y25061D01*
X11405Y25522D01*
X16233D01*
X16833Y25061D01*
X17791Y24664D01*
X18819Y24529D01*
X19847Y24664D01*
X20804Y25061D01*
X21627Y25692D01*
X22241Y26493D01*
X31256D01*
X31696Y26581D01*
X31943Y26120D01*
X26330Y20507D01*
X22241D01*
X21627Y21308D01*
X20804Y21939D01*
X19847Y22336D01*
X18819Y22471D01*
X17791Y22336D01*
X16833Y21939D01*
X16233Y21478D01*
X11405D01*
X10804Y21939D01*
X9847Y22336D01*
X8819Y22471D01*
X7791Y22336D01*
X6833Y21939D01*
X6011Y21308D01*
X5380Y20485D01*
X4983Y19528D01*
X4848Y18500D01*
X4983Y17472D01*
X5380Y16514D01*
X6011Y15692D01*
X6833Y15061D01*
X7791Y14664D01*
X8819Y14529D01*
X9847Y14664D01*
X10804Y15061D01*
X11405Y15522D01*
X16233D01*
X16833Y15061D01*
X17791Y14664D01*
X18819Y14529D01*
X19847Y14664D01*
X20804Y15061D01*
X21627Y15692D01*
X22241Y16493D01*
X27161D01*
X27929Y16646D01*
X28581Y17081D01*
X49993Y38493D01*
X51089D01*
X51296Y37993D01*
X23810Y10507D01*
X22756D01*
Y12437D01*
X14882D01*
Y11478D01*
X11405D01*
X10804Y11939D01*
X9847Y12336D01*
X8819Y12471D01*
X7791Y12336D01*
X6833Y11939D01*
X6011Y11308D01*
X5380Y10486D01*
X4983Y9528D01*
X4848Y8500D01*
X4983Y7472D01*
X5380Y6515D01*
X6011Y5692D01*
X6833Y5061D01*
X7791Y4664D01*
X8819Y4529D01*
X9847Y4664D01*
X10804Y5061D01*
X11405Y5522D01*
X14882D01*
Y4563D01*
X22756D01*
Y6493D01*
X24642D01*
X25410Y6646D01*
X26061Y7081D01*
X53973Y34993D01*
X106819D01*
X107587Y35146D01*
X108238Y35581D01*
X112563Y39906D01*
X113063Y39699D01*
Y33654D01*
X118575D01*
Y38231D01*
X119075Y38280D01*
X119114Y38082D01*
X119549Y37431D01*
X122312Y34669D01*
Y33102D01*
X121563D01*
Y26410D01*
X127075D01*
Y29493D01*
X129563D01*
Y26378D01*
X135075D01*
Y29493D01*
X140532D01*
Y28740D01*
X138110D01*
Y21260D01*
X146968D01*
Y28740D01*
X144546D01*
Y29493D01*
X173180D01*
X175946Y26728D01*
Y19366D01*
X176099Y18598D01*
X176533Y17947D01*
X184980Y9501D01*
X184848Y8500D01*
X184983Y7472D01*
X185380Y6515D01*
X186011Y5692D01*
X186833Y5061D01*
X187791Y4664D01*
X188819Y4529D01*
X189847Y4664D01*
X190804Y5061D01*
X191405Y5522D01*
X194882D01*
Y4563D01*
X202756D01*
Y12437D01*
X194882D01*
Y11478D01*
X191405D01*
X190804Y11939D01*
X189847Y12336D01*
X188819Y12471D01*
X187818Y12339D01*
X184164Y15993D01*
X184371Y16493D01*
X185397D01*
X186011Y15692D01*
X186833Y15061D01*
X187791Y14664D01*
X188819Y14529D01*
X189847Y14664D01*
X190804Y15061D01*
X191405Y15522D01*
X196233D01*
X196833Y15061D01*
X197791Y14664D01*
X198819Y14529D01*
X199847Y14664D01*
X200804Y15061D01*
X201627Y15692D01*
X202258Y16514D01*
X202655Y17472D01*
X202790Y18500D01*
X202655Y19528D01*
X202258Y20485D01*
X201627Y21308D01*
X200804Y21939D01*
X199847Y22336D01*
X198819Y22471D01*
X197791Y22336D01*
X196833Y21939D01*
X196233Y21478D01*
X191405D01*
X190804Y21939D01*
X189847Y22336D01*
X188819Y22471D01*
X187791Y22336D01*
X186833Y21939D01*
X186011Y21308D01*
X185397Y20507D01*
X184694D01*
X183897Y21304D01*
Y28740D01*
X183744Y29508D01*
X183309Y30159D01*
X177700Y35769D01*
X177877Y36298D01*
X178145Y36336D01*
X184980Y29501D01*
X184848Y28500D01*
X184983Y27472D01*
X185380Y26515D01*
X186011Y25692D01*
X186833Y25061D01*
X187791Y24664D01*
X188819Y24529D01*
X189847Y24664D01*
X190804Y25061D01*
X191405Y25522D01*
X196233D01*
X196833Y25061D01*
X197791Y24664D01*
X198819Y24529D01*
X199847Y24664D01*
X200804Y25061D01*
X201627Y25692D01*
X202258Y26515D01*
X202655Y27472D01*
X202790Y28500D01*
X202655Y29528D01*
X202258Y30485D01*
X201627Y31308D01*
X200804Y31939D01*
X199847Y32336D01*
X198819Y32471D01*
X197791Y32336D01*
X196833Y31939D01*
X196233Y31478D01*
X191405D01*
X190804Y31939D01*
X189847Y32336D01*
X188819Y32471D01*
X187818Y32339D01*
X180664Y39493D01*
X180871Y39993D01*
X184488D01*
X184980Y39501D01*
X184848Y38500D01*
X184983Y37472D01*
X185380Y36514D01*
X186011Y35692D01*
X186833Y35061D01*
X187791Y34664D01*
X188819Y34529D01*
X189847Y34664D01*
X190804Y35061D01*
X191405Y35522D01*
X196233D01*
X196833Y35061D01*
X197791Y34664D01*
X198819Y34529D01*
X199847Y34664D01*
X200804Y35061D01*
X201627Y35692D01*
X202258Y36514D01*
X202655Y37472D01*
X202790Y38500D01*
X202655Y39528D01*
X202258Y40486D01*
X201627Y41308D01*
X200804Y41939D01*
X199847Y42336D01*
X198819Y42471D01*
X197791Y42336D01*
X196833Y41939D01*
X196233Y41478D01*
X191405D01*
X190804Y41939D01*
X189847Y42336D01*
X188819Y42471D01*
X187818Y42339D01*
X186902Y43255D01*
X186898Y43782D01*
X186943Y43884D01*
X187238Y44081D01*
X187818Y44661D01*
X188819Y44529D01*
X189847Y44664D01*
X190804Y45061D01*
X191405Y45522D01*
X196233D01*
X196833Y45061D01*
X197791Y44664D01*
X198819Y44529D01*
X199847Y44664D01*
X200804Y45061D01*
X201627Y45692D01*
X202258Y46514D01*
X202655Y47472D01*
X202790Y48500D01*
X202655Y49528D01*
X202258Y50485D01*
X201627Y51308D01*
X200804Y51939D01*
X199847Y52336D01*
X198819Y52471D01*
X197791Y52336D01*
X196833Y51939D01*
X196233Y51478D01*
X191405D01*
X190804Y51939D01*
X189847Y52336D01*
X188819Y52471D01*
X187791Y52336D01*
X186833Y51939D01*
X186011Y51308D01*
X185380Y50485D01*
X184983Y49528D01*
X184848Y48500D01*
X184929Y47883D01*
X184599Y47507D01*
X181371D01*
X181164Y48007D01*
X187818Y54661D01*
X188819Y54529D01*
X189847Y54664D01*
X190804Y55061D01*
X191405Y55522D01*
X196233D01*
X196833Y55061D01*
X197791Y54664D01*
X198819Y54529D01*
X199847Y54664D01*
X200804Y55061D01*
X201627Y55692D01*
X202258Y56515D01*
X202655Y57472D01*
X202790Y58500D01*
X202655Y59528D01*
X202258Y60486D01*
X201627Y61308D01*
X200804Y61939D01*
X199847Y62336D01*
X198819Y62471D01*
X197791Y62336D01*
X196833Y61939D01*
X196233Y61478D01*
X191405D01*
X190804Y61939D01*
X189847Y62336D01*
X188819Y62471D01*
X187791Y62336D01*
X186833Y61939D01*
X186011Y61308D01*
X185578Y60743D01*
X185078Y60913D01*
Y61921D01*
X187818Y64661D01*
X188819Y64529D01*
X189847Y64664D01*
X190804Y65061D01*
X191405Y65522D01*
X196233D01*
X196833Y65061D01*
X197791Y64664D01*
X198819Y64529D01*
X199847Y64664D01*
X200804Y65061D01*
X201627Y65692D01*
X202258Y66514D01*
X202655Y67472D01*
X202790Y68500D01*
X202655Y69528D01*
X202258Y70486D01*
X201627Y71308D01*
X200804Y71939D01*
X199847Y72336D01*
X198819Y72471D01*
X197791Y72336D01*
X196833Y71939D01*
X196233Y71478D01*
X191405D01*
X190804Y71939D01*
X189847Y72336D01*
X188819Y72471D01*
X188584Y72440D01*
X188350Y72914D01*
X190238Y74801D01*
X190261Y74836D01*
X190804Y75061D01*
X191405Y75522D01*
X196233D01*
X196833Y75061D01*
X197791Y74664D01*
X198819Y74529D01*
X199847Y74664D01*
X200804Y75061D01*
X201627Y75692D01*
X202258Y76515D01*
X202655Y77472D01*
X202790Y78500D01*
X202655Y79528D01*
X202258Y80485D01*
X201627Y81308D01*
X200804Y81939D01*
X199847Y82336D01*
X198819Y82471D01*
X197791Y82336D01*
X196833Y81939D01*
X196233Y81478D01*
X191405D01*
X190804Y81939D01*
X189847Y82336D01*
X188819Y82471D01*
X187791Y82336D01*
X186833Y81939D01*
X186011Y81308D01*
X185380Y80485D01*
X184983Y79528D01*
X184848Y78500D01*
X184983Y77472D01*
X185380Y76515D01*
X185768Y76008D01*
X184753Y74993D01*
X184291Y75184D01*
Y81133D01*
X187818Y84661D01*
X188819Y84529D01*
X189847Y84664D01*
X190804Y85061D01*
X191405Y85522D01*
X196233D01*
X196833Y85061D01*
X197791Y84664D01*
X198819Y84529D01*
X199847Y84664D01*
X200804Y85061D01*
X201627Y85692D01*
X202258Y86515D01*
X202655Y87472D01*
X202790Y88500D01*
X202655Y89528D01*
X202258Y90486D01*
X201627Y91308D01*
X200804Y91939D01*
X199847Y92336D01*
X198819Y92471D01*
X197791Y92336D01*
X196833Y91939D01*
X196233Y91478D01*
X191405D01*
X190804Y91939D01*
X189847Y92336D01*
X188819Y92471D01*
X187791Y92336D01*
X186833Y91939D01*
X186011Y91308D01*
X185380Y90486D01*
X184983Y89528D01*
X184848Y88500D01*
X184980Y87499D01*
X180864Y83384D01*
X180723Y83172D01*
X180043Y83050D01*
X179960Y83110D01*
Y86803D01*
X187818Y94661D01*
X188819Y94529D01*
X189847Y94664D01*
X190804Y95061D01*
X191405Y95522D01*
X196233D01*
X196833Y95061D01*
X197791Y94664D01*
X198819Y94529D01*
X199847Y94664D01*
X200804Y95061D01*
X201627Y95692D01*
X202258Y96514D01*
X202655Y97472D01*
X202790Y98500D01*
X202655Y99528D01*
X202258Y100486D01*
X201627Y101308D01*
X200804Y101939D01*
X199847Y102336D01*
X198819Y102471D01*
X197791Y102336D01*
X196833Y101939D01*
X196233Y101478D01*
X191405D01*
X190804Y101939D01*
X189847Y102336D01*
X188819Y102471D01*
X187791Y102336D01*
X186833Y101939D01*
X186011Y101308D01*
X185380Y100486D01*
X184983Y99528D01*
X184848Y98500D01*
X184980Y97499D01*
X176533Y89053D01*
X176099Y88402D01*
X175946Y87634D01*
Y76028D01*
X175037Y75119D01*
X174575Y75311D01*
Y80122D01*
X169063D01*
Y78783D01*
X168375D01*
X167006Y80151D01*
X166355Y80587D01*
X165587Y80739D01*
X165028D01*
Y84047D01*
X154358D01*
X154166Y84509D01*
X157238Y87581D01*
X157673Y88232D01*
X157826Y89000D01*
Y89953D01*
X165028D01*
Y93348D01*
X165355Y93413D01*
X166006Y93849D01*
X168690Y96532D01*
X169063Y96378D01*
Y96378D01*
X174575D01*
Y103071D01*
X170881D01*
X170690Y103533D01*
X173650Y106493D01*
X185397D01*
X186011Y105692D01*
X186833Y105061D01*
X187791Y104664D01*
X188819Y104529D01*
X189847Y104664D01*
X190804Y105061D01*
X191405Y105522D01*
X196233D01*
X196833Y105061D01*
X197791Y104664D01*
X198819Y104529D01*
X199847Y104664D01*
X200804Y105061D01*
X201627Y105692D01*
X202258Y106515D01*
X202655Y107472D01*
X202790Y108500D01*
X202655Y109528D01*
X202258Y110485D01*
X201627Y111308D01*
X200804Y111939D01*
X199847Y112336D01*
X198819Y112471D01*
X197791Y112336D01*
X196833Y111939D01*
X196233Y111478D01*
X191405D01*
X190804Y111939D01*
X189847Y112336D01*
X188819Y112471D01*
X187791Y112336D01*
X186833Y111939D01*
X186011Y111308D01*
X185397Y110507D01*
X172819D01*
X172051Y110354D01*
X171400Y109919D01*
X164988Y103507D01*
X157941D01*
Y108256D01*
X151248D01*
Y107007D01*
X147811D01*
X147659Y107507D01*
X147675Y107518D01*
X150775Y110618D01*
X151248Y110744D01*
Y110744D01*
X151248Y110744D01*
X157941D01*
Y115993D01*
X185780D01*
X186011Y115692D01*
X186833Y115061D01*
X187791Y114664D01*
X188819Y114529D01*
X189847Y114664D01*
X190804Y115061D01*
X191405Y115522D01*
X196233D01*
X196833Y115061D01*
X197791Y114664D01*
X198819Y114529D01*
X199847Y114664D01*
X200804Y115061D01*
X201627Y115692D01*
X202258Y116515D01*
X202655Y117472D01*
X202790Y118500D01*
X202655Y119528D01*
X202258Y120485D01*
X201627Y121308D01*
X200804Y121939D01*
X199847Y122336D01*
X198819Y122471D01*
X197791Y122336D01*
X196833Y121939D01*
X196233Y121478D01*
X191405D01*
X190804Y121939D01*
X189847Y122336D01*
X188819Y122471D01*
X187791Y122336D01*
X186833Y121939D01*
X186011Y121308D01*
X185380Y120485D01*
X185182Y120007D01*
X183871D01*
X183664Y120507D01*
X187818Y124661D01*
X188819Y124529D01*
X189847Y124664D01*
X190804Y125061D01*
X191405Y125522D01*
X196233D01*
X196833Y125061D01*
X197791Y124664D01*
X198819Y124529D01*
X199847Y124664D01*
X200804Y125061D01*
X201627Y125692D01*
X202258Y126514D01*
X202655Y127472D01*
X202790Y128500D01*
X202655Y129528D01*
X202258Y130485D01*
X201627Y131308D01*
X200804Y131939D01*
X199847Y132336D01*
X198819Y132471D01*
X197791Y132336D01*
X196833Y131939D01*
X196233Y131478D01*
X191405D01*
X190804Y131939D01*
X189847Y132336D01*
X188819Y132471D01*
X187791Y132336D01*
X186833Y131939D01*
X186011Y131308D01*
X185380Y130485D01*
X184983Y129528D01*
X184848Y128500D01*
X184980Y127499D01*
X180988Y123507D01*
X177372D01*
X177164Y124007D01*
X187818Y134661D01*
X188819Y134529D01*
X189847Y134664D01*
X190804Y135061D01*
X191405Y135522D01*
X196233D01*
X196833Y135061D01*
X197791Y134664D01*
X198819Y134529D01*
X199847Y134664D01*
X200804Y135061D01*
X201627Y135692D01*
X202258Y136514D01*
X202655Y137472D01*
X202790Y138500D01*
X202655Y139528D01*
X202258Y140486D01*
X201627Y141308D01*
X200804Y141939D01*
X199847Y142336D01*
X198819Y142471D01*
X197791Y142336D01*
X196833Y141939D01*
X196233Y141478D01*
X191405D01*
X190804Y141939D01*
X189847Y142336D01*
X188819Y142471D01*
X187791Y142336D01*
X186833Y141939D01*
X186011Y141308D01*
X185380Y140486D01*
X184983Y139528D01*
X184848Y138500D01*
X184980Y137499D01*
X174488Y127007D01*
X170871D01*
X170664Y127507D01*
X187818Y144661D01*
X188819Y144529D01*
X189847Y144664D01*
X190804Y145061D01*
X191405Y145522D01*
X196233D01*
X196833Y145061D01*
X197791Y144664D01*
X198819Y144529D01*
X199847Y144664D01*
X200804Y145061D01*
X201627Y145692D01*
X202258Y146514D01*
X202655Y147472D01*
X202790Y148500D01*
X202655Y149528D01*
X202258Y150486D01*
X201627Y151308D01*
X200804Y151939D01*
X199847Y152336D01*
X198819Y152471D01*
X197791Y152336D01*
X196833Y151939D01*
X196233Y151478D01*
X191405D01*
X190804Y151939D01*
X189847Y152336D01*
X188819Y152471D01*
X187791Y152336D01*
X186833Y151939D01*
X186011Y151308D01*
X185380Y150486D01*
X184983Y149528D01*
X184848Y148500D01*
X184980Y147499D01*
X167988Y130507D01*
X151372D01*
X151164Y131007D01*
X154738Y134581D01*
X155173Y135232D01*
X155326Y136000D01*
Y140279D01*
X158634D01*
Y150122D01*
X148004D01*
Y140279D01*
X151312D01*
Y136831D01*
X148488Y134007D01*
X138319D01*
X138064Y133956D01*
X137495Y134348D01*
X137478Y134447D01*
X138925Y135894D01*
X138925Y135894D01*
X139398Y136511D01*
X139696Y137229D01*
X139797Y138000D01*
X139797Y138000D01*
Y138209D01*
X140308Y138421D01*
X140925Y138894D01*
X141398Y139511D01*
X141696Y140229D01*
X141702Y140279D01*
X142134D01*
Y150122D01*
X131504D01*
Y140279D01*
X131936D01*
X131942Y140229D01*
X132240Y139511D01*
X132713Y138894D01*
X132858Y138783D01*
X132891Y138284D01*
X130768Y136161D01*
X130308Y136408D01*
X130326Y136500D01*
Y148000D01*
X130173Y148768D01*
X129738Y149419D01*
X128238Y150919D01*
X127587Y151354D01*
X126819Y151507D01*
X125421D01*
Y153240D01*
X119122D01*
Y145760D01*
X125421D01*
Y147493D01*
X125988D01*
X126312Y147169D01*
Y137331D01*
X125671Y136690D01*
X125181Y136665D01*
Y136665D01*
X116913D01*
Y132335D01*
X118679D01*
X118914Y131835D01*
X118773Y131665D01*
X116913D01*
Y127335D01*
X118773D01*
X118914Y127165D01*
X118679Y126665D01*
X116913D01*
Y122335D01*
X125181D01*
Y122493D01*
X130266D01*
X130473Y121993D01*
X119549Y111069D01*
X119114Y110418D01*
X118961Y109650D01*
Y108622D01*
X113563D01*
Y105586D01*
X113063Y105434D01*
X112939Y105620D01*
X107640Y110919D01*
X106989Y111354D01*
X106220Y111507D01*
X95819D01*
X95051Y111354D01*
X94400Y110919D01*
X92488Y109007D01*
X74146D01*
X72873Y110280D01*
Y124409D01*
X72720Y125178D01*
X72285Y125829D01*
X69529Y128585D01*
X68878Y129020D01*
X68110Y129172D01*
X54375D01*
X45314Y138233D01*
Y150787D01*
X45161Y151556D01*
X44726Y152207D01*
X27014Y169919D01*
X26363Y170354D01*
X25594Y170507D01*
X22241D01*
X21627Y171308D01*
X20804Y171939D01*
X19847Y172336D01*
X18819Y172471D01*
D02*
G37*
G36*
X59449Y160851D02*
X58729Y160756D01*
X58059Y160478D01*
X57483Y160036D01*
X57042Y159461D01*
X56764Y158790D01*
X56669Y158071D01*
X56764Y157351D01*
X57042Y156681D01*
X57483Y156105D01*
X58059Y155664D01*
X58729Y155386D01*
X59449Y155291D01*
X60168Y155386D01*
X60839Y155664D01*
X61414Y156105D01*
X61856Y156681D01*
X62134Y157351D01*
X62229Y158071D01*
X62134Y158790D01*
X61856Y159461D01*
X61414Y160036D01*
X60839Y160478D01*
X60168Y160756D01*
X59449Y160851D01*
D02*
G37*
G36*
X76772D02*
X76052Y160756D01*
X75382Y160478D01*
X74806Y160036D01*
X74364Y159461D01*
X74087Y158790D01*
X73992Y158071D01*
X74087Y157351D01*
X74364Y156681D01*
X74806Y156105D01*
X75382Y155664D01*
X76052Y155386D01*
X76772Y155291D01*
X77491Y155386D01*
X78162Y155664D01*
X78737Y156105D01*
X79179Y156681D01*
X79457Y157351D01*
X79551Y158071D01*
X79457Y158790D01*
X79179Y159461D01*
X78737Y160036D01*
X78162Y160478D01*
X77491Y160756D01*
X76772Y160851D01*
D02*
G37*
G36*
X55709Y173425D02*
X45866D01*
Y159646D01*
X55709D01*
Y173425D01*
D02*
G37*
%LPD*%
G36*
X166124Y75356D02*
X166775Y74921D01*
X167543Y74769D01*
X169063D01*
Y73429D01*
X172693D01*
X172885Y72967D01*
X172203Y72285D01*
X171768Y71634D01*
X171615Y70866D01*
Y65005D01*
X171117Y64507D01*
X157150D01*
X156741Y64916D01*
X157024Y65340D01*
X157548Y65123D01*
X158319Y65022D01*
X159090Y65123D01*
X159381Y65244D01*
X164441D01*
Y70756D01*
X159381D01*
X159090Y70877D01*
X158319Y70978D01*
X157548Y70877D01*
X156830Y70579D01*
X156404Y70253D01*
X153740Y72917D01*
X153947Y73417D01*
X165028D01*
Y75800D01*
X165489Y75991D01*
X166124Y75356D01*
D02*
G37*
G36*
X149473Y102493D02*
X146400Y99419D01*
X145965Y98768D01*
X145812Y98000D01*
Y87831D01*
X145086Y87106D01*
X144197D01*
Y90315D01*
X142267D01*
Y96610D01*
X144738Y99081D01*
X145173Y99732D01*
X145326Y100500D01*
Y102993D01*
X149266D01*
X149473Y102493D01*
D02*
G37*
G36*
X52124Y125746D02*
X52775Y125311D01*
X53543Y125158D01*
X67279D01*
X68859Y123578D01*
Y109449D01*
X69012Y108681D01*
X69447Y108030D01*
X71896Y105581D01*
X72006Y105507D01*
X71854Y105007D01*
X54918D01*
X48464Y111461D01*
Y128347D01*
X48376Y128787D01*
X48837Y129033D01*
X52124Y125746D01*
D02*
G37*
G36*
X150748Y115493D02*
X150051Y115354D01*
X149400Y114919D01*
X145425Y110944D01*
X145000D01*
X144951Y110977D01*
X144106Y111145D01*
X142532D01*
X141687Y110977D01*
X141638Y110944D01*
X140808D01*
X140601Y111444D01*
X145150Y115993D01*
X150699D01*
X150748Y115493D01*
D02*
G37*
G36*
X153610Y89953D02*
X153610D01*
X153485Y89505D01*
X150176Y86195D01*
X149715Y86441D01*
X149826Y87000D01*
Y97169D01*
X152150Y99493D01*
X153610D01*
Y89953D01*
D02*
G37*
G36*
X140438Y105573D02*
X140324Y105000D01*
X140492Y104155D01*
X140970Y103439D01*
X141312Y103211D01*
Y101331D01*
X138841Y98860D01*
X138406Y98209D01*
X138253Y97441D01*
Y90315D01*
X136323D01*
Y86181D01*
Y83031D01*
Y79882D01*
Y76732D01*
X144197D01*
Y76792D01*
X153610D01*
Y73754D01*
X153110Y73547D01*
X152738Y73919D01*
X152087Y74354D01*
X151319Y74507D01*
X144197D01*
Y74567D01*
X136323D01*
Y70433D01*
Y67283D01*
Y64134D01*
Y60984D01*
Y57835D01*
Y54685D01*
X138253D01*
Y53559D01*
X138406Y52791D01*
X138556Y52566D01*
X138288Y52066D01*
X135634D01*
Y53996D01*
X115752D01*
Y46271D01*
X114400Y44919D01*
X114027Y44361D01*
X113564Y44429D01*
X113527Y44444D01*
Y46122D01*
X113587D01*
Y53996D01*
X100004D01*
Y52066D01*
X99319D01*
X98551Y51913D01*
X97900Y51478D01*
X95929Y49507D01*
X94871D01*
X94664Y50007D01*
X96797Y52140D01*
X97232Y52791D01*
X97385Y53559D01*
Y54685D01*
X99315D01*
Y57835D01*
Y60984D01*
Y64134D01*
Y67283D01*
Y71417D01*
X91441D01*
Y71358D01*
X83039D01*
Y74234D01*
X83539Y74441D01*
X83750Y74230D01*
X84401Y73795D01*
X85169Y73642D01*
X91441D01*
Y73583D01*
X99315D01*
Y76732D01*
Y79882D01*
Y83031D01*
Y86181D01*
Y90315D01*
X97162D01*
X96797Y90860D01*
X95223Y92434D01*
X95431Y92934D01*
X100004D01*
Y91004D01*
X116736D01*
Y98878D01*
X116676D01*
Y99519D01*
X117415Y100258D01*
X117808Y100421D01*
X118425Y100894D01*
X118461Y100942D01*
X118961Y100772D01*
Y98878D01*
X118902D01*
Y91004D01*
X135634D01*
Y98878D01*
X135574D01*
Y101417D01*
X139977Y105820D01*
X140438Y105573D01*
D02*
G37*
D10*
X61811Y147835D02*
D03*
X64961D02*
D03*
X68110D02*
D03*
X71260D02*
D03*
X74410D02*
D03*
D11*
X50787D02*
D03*
X85433D02*
D03*
D12*
X50787Y166535D02*
D03*
X85433D02*
D03*
D13*
X82433Y117000D02*
D03*
X59205D02*
D03*
D14*
X121047Y124500D02*
D03*
Y129500D02*
D03*
Y134500D02*
D03*
Y139500D02*
D03*
X99591Y124500D02*
D03*
Y129500D02*
D03*
Y134500D02*
D03*
Y139500D02*
D03*
D15*
X110319Y132000D02*
D03*
D16*
X153319Y157799D02*
D03*
Y145201D02*
D03*
X136819Y157799D02*
D03*
Y145201D02*
D03*
D17*
X116366Y149500D02*
D03*
X122272D02*
D03*
X105772Y149500D02*
D03*
X99866D02*
D03*
D18*
X159319Y78732D02*
D03*
Y95268D02*
D03*
D19*
X142539Y25000D02*
D03*
X170098D02*
D03*
D20*
X95378Y88248D02*
D03*
Y85098D02*
D03*
Y81949D02*
D03*
Y78799D02*
D03*
Y75650D02*
D03*
Y72500D02*
D03*
Y69350D02*
D03*
Y66201D02*
D03*
Y63051D02*
D03*
Y59902D02*
D03*
Y56752D02*
D03*
X140260D02*
D03*
Y59902D02*
D03*
Y63051D02*
D03*
Y66201D02*
D03*
Y69350D02*
D03*
Y72500D02*
D03*
Y75650D02*
D03*
Y78799D02*
D03*
Y81949D02*
D03*
Y85098D02*
D03*
Y88248D02*
D03*
D21*
X102071Y50059D02*
D03*
X105220D02*
D03*
X108370D02*
D03*
X111520D02*
D03*
X114669D02*
D03*
X117819D02*
D03*
X120968D02*
D03*
X124118D02*
D03*
X127268D02*
D03*
X130417D02*
D03*
X133567D02*
D03*
Y94941D02*
D03*
X130417D02*
D03*
X127268D02*
D03*
X124118D02*
D03*
X120968D02*
D03*
X117819D02*
D03*
X114669D02*
D03*
X111520D02*
D03*
X108370D02*
D03*
X105220D02*
D03*
X102071D02*
D03*
D22*
X124319Y29756D02*
D03*
Y22276D02*
D03*
X132319Y22244D02*
D03*
Y29724D02*
D03*
X116319Y112756D02*
D03*
Y105276D02*
D03*
X106819Y21744D02*
D03*
Y29224D02*
D03*
X171819Y84256D02*
D03*
Y76776D02*
D03*
Y92244D02*
D03*
Y99724D02*
D03*
X115819Y37000D02*
D03*
Y29520D02*
D03*
X97819Y21744D02*
D03*
Y29224D02*
D03*
X88819D02*
D03*
Y21744D02*
D03*
D23*
X168575Y68000D02*
D03*
X161094D02*
D03*
X162075Y105500D02*
D03*
X154595D02*
D03*
X162075Y113500D02*
D03*
X154595D02*
D03*
D24*
X65520Y69500D02*
D03*
X78118D02*
D03*
D25*
X75197Y134622D02*
Y150787D01*
Y134622D02*
X82433Y127386D01*
X128319Y129500D02*
X136819Y138000D01*
X121047Y129500D02*
X128319D01*
X82433Y117000D02*
Y127386D01*
X99591Y120772D02*
Y124500D01*
X95819Y117000D02*
X99591Y120772D01*
X82433Y117000D02*
X95819D01*
X99866Y139776D02*
Y149500D01*
X99591Y135827D02*
Y139500D01*
Y124500D02*
Y128347D01*
X84319Y29224D02*
X88819D01*
Y21744D02*
X97819D01*
Y29224D02*
X106819D01*
X115524D01*
X117882Y22276D02*
X124319D01*
X188819Y148500D02*
X198819D01*
X188819Y138500D02*
X198819D01*
X188819Y128500D02*
X198819D01*
X188819Y118500D02*
X198819D01*
X188819Y108500D02*
X198819D01*
X188819Y8500D02*
X198819D01*
X188819Y18500D02*
X198819D01*
X188819Y28500D02*
X198819D01*
X188819Y38500D02*
X198819D01*
X188819Y48500D02*
X198819D01*
X188819Y58500D02*
X198819D01*
X188819Y68500D02*
X198819D01*
X188819Y98500D02*
X198819D01*
X188819Y88500D02*
X198819D01*
X188819Y78500D02*
X198819D01*
X8819Y168500D02*
X18819D01*
X8819Y158500D02*
X18819D01*
X8819Y148500D02*
X18819D01*
X8819Y138500D02*
X18819D01*
X8819Y128500D02*
X18819D01*
X8819Y118500D02*
X18819D01*
X8819Y108500D02*
X18819D01*
X8819Y98500D02*
X18819D01*
X8819Y88500D02*
X18819D01*
X8819Y78500D02*
X18819D01*
X8819Y68500D02*
X18819D01*
X8819Y58500D02*
X18819D01*
X8819Y48500D02*
X18819D01*
X8819Y38500D02*
X18819D01*
X8819Y28500D02*
X18819D01*
X8819Y18500D02*
X18819D01*
X8819Y8500D02*
X18819D01*
X115819Y24339D02*
Y29520D01*
Y24339D02*
X117882Y22276D01*
X124319Y18595D02*
Y22276D01*
Y18595D02*
X124409Y18504D01*
X80799Y29224D02*
X84319D01*
X75984Y24409D02*
X80799Y29224D01*
X75984Y19685D02*
Y24409D01*
Y19685D02*
X84252Y11417D01*
X138902D01*
X136819Y138000D02*
Y141000D01*
D26*
X145069Y154500D02*
Y157799D01*
Y160500D01*
X153319Y136000D02*
Y145201D01*
X149319Y132000D02*
X153319Y136000D01*
X138319Y132000D02*
X149319D01*
X130819Y124500D02*
X138319Y132000D01*
X121047Y124500D02*
X130819D01*
X151319Y101500D02*
X165819D01*
X147819Y98000D02*
X151319Y101500D01*
X147819Y87000D02*
Y98000D01*
X114669Y62850D02*
X117819Y66000D01*
X61197Y133858D02*
Y151575D01*
X111069Y149500D02*
X116366D01*
X105772D02*
X111069D01*
X121047Y134500D02*
X126319D01*
X128319Y136500D01*
Y148000D01*
X126819Y149500D02*
X128319Y148000D01*
X122272Y149500D02*
X126819D01*
X110047Y139500D02*
X121047D01*
X116366Y139547D02*
Y149500D01*
X93319Y107000D02*
X95819Y109500D01*
X106220D01*
X111520Y104201D01*
Y94941D02*
Y104201D01*
X95319Y103000D02*
X97819Y105500D01*
X104319D01*
X108370Y101449D01*
X97819Y99000D02*
X100319Y101500D01*
X102819D01*
X105220Y99098D01*
Y94941D02*
Y99098D01*
X93319Y91500D02*
X95378Y89441D01*
Y88248D02*
Y89441D01*
X88319Y87500D02*
X90720Y85098D01*
X86819Y84000D02*
X88870Y81949D01*
X85319Y80500D02*
X87020Y78799D01*
X83819Y77000D02*
X85169Y75650D01*
X43126Y51000D02*
X92819D01*
X44350Y47500D02*
X96760D01*
X99319Y50059D01*
X92819Y51000D02*
X95378Y53559D01*
Y56752D01*
X108370Y94941D02*
Y101449D01*
X116319Y112756D02*
Y116500D01*
X120968Y109650D02*
X139819Y128500D01*
X124118Y107799D02*
X141319Y125000D01*
X127268Y105949D02*
X142819Y121500D01*
X130417Y104098D02*
X144319Y118000D01*
X120968Y94941D02*
Y109650D01*
X124118Y94941D02*
Y107799D01*
X127268Y94941D02*
Y105949D01*
X130417Y94941D02*
Y104098D01*
X106819Y18000D02*
Y21744D01*
X78268Y69350D02*
X95378D01*
X85169Y75650D02*
X95378D01*
X87020Y78799D02*
X95378D01*
X88870Y81949D02*
X95378D01*
X90720Y85098D02*
X95378D01*
X82319Y61500D02*
X87020Y66201D01*
X95378D01*
X83819Y58000D02*
X88870Y63051D01*
X95378D01*
X85319Y54500D02*
X90720Y59902D01*
X95378D01*
X99319Y50059D02*
X102071D01*
X115524Y29224D02*
X115819Y29520D01*
X163819Y25000D02*
X170098D01*
X132319Y18000D02*
Y22244D01*
X124319Y31500D02*
X142319D01*
X142539Y31280D01*
Y25000D02*
Y31280D01*
X124319Y29756D02*
Y31500D01*
X120968Y38850D02*
X124319Y35500D01*
Y29756D02*
Y35500D01*
X115819Y37000D02*
Y43500D01*
X53142Y37000D02*
X106819D01*
X111520Y41701D01*
Y50059D01*
X49161Y40500D02*
X105319D01*
X108370Y43551D01*
Y50059D01*
X46756Y44000D02*
X103819D01*
X105220Y45402D01*
Y50059D01*
X115819Y43500D02*
X117819Y45500D01*
Y50059D01*
X120968Y38850D02*
Y50059D01*
X124118Y40701D02*
X129819Y35000D01*
X124118Y40701D02*
Y50059D01*
X127268Y43051D02*
X131819Y38500D01*
X127268Y43051D02*
Y50059D01*
X130417Y45402D02*
X133819Y42000D01*
X130417Y45402D02*
Y50059D01*
X138760D02*
X143319Y45500D01*
X133567Y50059D02*
X138760D01*
X114669Y100350D02*
X116319Y102000D01*
X114669Y94941D02*
Y100350D01*
X140260Y53559D02*
X144819Y49000D01*
X140260Y53559D02*
Y56752D01*
X140256Y108937D02*
X143319D01*
X133567Y102248D02*
X140256Y108937D01*
X133567Y94941D02*
Y102248D01*
X150819Y113500D02*
X154595D01*
X146256Y108937D02*
X150819Y113500D01*
X143319Y108937D02*
X146256D01*
X154095Y105000D02*
X154595Y105500D01*
X143319Y105000D02*
X154095D01*
X140260Y97441D02*
X143319Y100500D01*
Y105000D01*
X140260Y88248D02*
Y97441D01*
X169043Y99724D02*
X171819D01*
X164587Y95268D02*
X169043Y99724D01*
X159319Y95268D02*
X164587D01*
X167543Y76776D02*
X171819D01*
X165587Y78732D02*
X167543Y76776D01*
X159319Y78732D02*
X165587D01*
X145917Y85098D02*
X147819Y87000D01*
X140260Y85098D02*
X145917D01*
X155819Y89000D02*
Y96500D01*
X148768Y81949D02*
X155819Y89000D01*
X140260Y81949D02*
X148768D01*
X159252Y78799D02*
X159319Y78732D01*
X140260Y78799D02*
X159252D01*
X151319Y72500D02*
X155819Y68000D01*
X140260Y72500D02*
X151319D01*
X149469Y69350D02*
X156319Y62500D01*
X140260Y69350D02*
X149469D01*
X147618Y66201D02*
X154819Y59000D01*
X140260Y66201D02*
X147618D01*
X145768Y63051D02*
X153319Y55500D01*
X140260Y63051D02*
X145768D01*
X144417Y59902D02*
X151819Y52500D01*
X140260Y59902D02*
X144417D01*
X145069Y157799D02*
X153319D01*
X139819Y128500D02*
X168819D01*
X188819Y148500D01*
X141319Y125000D02*
X175319D01*
X188819Y138500D01*
X142819Y121500D02*
X181819D01*
X188819Y128500D01*
X144319Y118000D02*
X188319D01*
X188819Y118500D01*
X165819Y101500D02*
X172819Y108500D01*
X188819D01*
X183862Y18500D02*
X188819D01*
X131819Y38500D02*
X178819D01*
X188819Y28500D01*
X129819Y35000D02*
X175630D01*
X181890Y20472D02*
X183862Y18500D01*
X181890Y20472D02*
Y28740D01*
X175630Y35000D02*
X181890Y28740D01*
X177953Y19366D02*
X188819Y8500D01*
X142319Y31500D02*
X174012D01*
X177953Y27559D01*
Y19366D02*
Y27559D01*
X133819Y42000D02*
X185319D01*
X188819Y38500D01*
X143319Y45500D02*
X185819D01*
X188819Y48500D01*
X144819Y49000D02*
X179319D01*
X188819Y58500D01*
X151819Y52500D02*
X177697D01*
X183071Y57874D01*
Y62752D01*
X188819Y68500D01*
X153319Y55500D02*
X176366D01*
X179921Y59055D01*
X156319Y62500D02*
X171949D01*
X173622Y64173D01*
X188819Y76221D02*
Y78500D01*
X179921Y67323D02*
X188819Y76221D01*
X179921Y59055D02*
Y67323D01*
X173622Y64173D02*
Y70866D01*
X177953Y75197D01*
Y87634D01*
X188819Y98500D01*
X176772Y68898D02*
X182283Y74409D01*
Y81965D01*
X188819Y88500D01*
X154819Y59000D02*
X173961D01*
X176772Y61811D01*
Y68898D01*
X73315Y107000D02*
X93319D01*
X54087Y103000D02*
X95319D01*
X70866Y109449D02*
X73315Y107000D01*
X70866Y109449D02*
Y124409D01*
X68110Y127165D02*
X70866Y124409D01*
X53543Y127165D02*
X68110D01*
X43307Y137402D02*
X53543Y127165D01*
X46457Y110630D02*
X54087Y103000D01*
X42913Y109449D02*
X53362Y99000D01*
X97819D01*
X39370Y108268D02*
X52697Y94941D01*
X102071D01*
X18819Y118500D02*
X26382D01*
X32677Y112205D01*
X18819Y48500D02*
X40626D01*
X43126Y51000D01*
X18819Y38500D02*
X35350D01*
X44350Y47500D01*
X18819Y28500D02*
X31256D01*
X46756Y44000D01*
X18819Y18500D02*
X27161D01*
X49161Y40500D01*
X18819Y8500D02*
X24642D01*
X53142Y37000D01*
X18819Y128500D02*
X25043D01*
X35827Y117717D01*
X18819Y138500D02*
X23705D01*
X39370Y122835D01*
Y108268D02*
Y122835D01*
X18819Y158500D02*
X25752D01*
X18819Y168500D02*
X25594D01*
X43307Y150787D01*
Y137402D02*
Y150787D01*
X25752Y158500D02*
X37795Y146457D01*
X18819Y148500D02*
X20398D01*
X42913Y125984D01*
Y109449D02*
Y125984D01*
X37795Y137008D02*
Y146457D01*
Y137008D02*
X46457Y128347D01*
Y110630D02*
Y128347D01*
X18819Y88500D02*
X35909D01*
X47409Y77000D01*
X83819D01*
X18819Y98500D02*
X30634D01*
X48634Y80500D01*
X85319D01*
X18819Y108500D02*
X25358D01*
X49858Y84000D01*
X86819D01*
X32677Y105512D02*
Y112205D01*
Y105512D02*
X50689Y87500D01*
X88319D01*
X35827Y107087D02*
Y117717D01*
Y107087D02*
X51413Y91500D01*
X93319D01*
X18819Y58500D02*
X39531D01*
X43532Y54500D01*
X85319D01*
X18819Y68500D02*
X34650D01*
X45150Y58000D01*
X83819D01*
X18819Y78500D02*
X29768D01*
X46768Y61500D01*
X82319D01*
X95378Y72500D02*
X103319D01*
X117319D01*
X114098Y157799D02*
X136819D01*
X111069Y154770D02*
X114098Y157799D01*
X111069Y149500D02*
Y154770D01*
X136819Y157799D02*
X145069D01*
X170098Y17343D02*
Y25000D01*
X164173Y11417D02*
X170098Y17343D01*
X138902Y11417D02*
X164173D01*
X132319Y18000D02*
X138902Y11417D01*
X106819Y11543D02*
Y18000D01*
X155819Y68000D02*
X158319D01*
X161094D01*
X116319Y102000D02*
Y103000D01*
Y105276D01*
X110319Y115272D02*
X112835Y112756D01*
X116319D01*
X110319Y115272D02*
Y132000D01*
X117819Y66000D02*
Y87000D01*
Y94941D01*
X114669Y50059D02*
Y58000D01*
Y62850D01*
X117968Y75650D02*
X132819D01*
X140260D01*
X171819Y84256D02*
Y88250D01*
Y92244D01*
X162075Y105500D02*
Y109500D01*
Y113500D01*
D27*
X76772Y158071D02*
D03*
X59449D02*
D03*
D28*
X18819Y8500D02*
D03*
X198819D02*
D03*
D29*
X8819D02*
D03*
X18819Y18500D02*
D03*
X8819D02*
D03*
X18819Y28500D02*
D03*
X8819D02*
D03*
X18819Y38500D02*
D03*
X8819D02*
D03*
X18819Y48500D02*
D03*
X8819D02*
D03*
X18819Y58500D02*
D03*
X8819D02*
D03*
X18819Y68500D02*
D03*
X8819D02*
D03*
X18819Y78500D02*
D03*
X8819D02*
D03*
X18819Y88500D02*
D03*
X8819D02*
D03*
X18819Y98500D02*
D03*
X8819D02*
D03*
X18819Y108500D02*
D03*
X8819D02*
D03*
X18819Y118500D02*
D03*
X8819D02*
D03*
X18819Y128500D02*
D03*
X8819D02*
D03*
X18819Y138500D02*
D03*
X8819D02*
D03*
X18819Y148500D02*
D03*
X8819D02*
D03*
X18819Y158500D02*
D03*
X8819D02*
D03*
X18819Y168500D02*
D03*
X8819D02*
D03*
X188819Y8500D02*
D03*
X198819Y18500D02*
D03*
X188819D02*
D03*
X198819Y28500D02*
D03*
X188819D02*
D03*
X198819Y38500D02*
D03*
X188819D02*
D03*
X198819Y48500D02*
D03*
X188819D02*
D03*
X198819Y58500D02*
D03*
X188819D02*
D03*
X198819Y68500D02*
D03*
X188819D02*
D03*
X198819Y78500D02*
D03*
X188819D02*
D03*
X198819Y88500D02*
D03*
X188819D02*
D03*
X198819Y98500D02*
D03*
X188819D02*
D03*
X198819Y108500D02*
D03*
X188819D02*
D03*
X198819Y118500D02*
D03*
X188819D02*
D03*
X198819Y128500D02*
D03*
X188819D02*
D03*
X198819Y138500D02*
D03*
X188819D02*
D03*
X198819Y148500D02*
D03*
X188819D02*
D03*
X198819Y158500D02*
D03*
X188819D02*
D03*
X198819Y168500D02*
D03*
X188819D02*
D03*
D30*
X143319Y108937D02*
D03*
Y105000D02*
D03*
D31*
X50819Y112500D02*
D03*
Y116500D02*
D03*
Y120500D02*
D03*
X145069Y160500D02*
D03*
Y154500D02*
D03*
X138819Y141000D02*
D03*
X134819D02*
D03*
X103319Y72500D02*
D03*
X114669Y58000D02*
D03*
X132819Y75650D02*
D03*
X117819Y87000D02*
D03*
X112319Y132500D02*
D03*
X107819Y123500D02*
D03*
Y128000D02*
D03*
Y132500D02*
D03*
X112319Y137000D02*
D03*
X107819D02*
D03*
X112319Y141500D02*
D03*
X107819D02*
D03*
X111069Y149500D02*
D03*
X60819Y67000D02*
D03*
Y71500D02*
D03*
X116319Y103000D02*
D03*
X158319Y68000D02*
D03*
X116319Y116500D02*
D03*
X106819Y18000D02*
D03*
X84319Y29224D02*
D03*
X163819Y25000D02*
D03*
X132319Y18000D02*
D03*
X162075Y109500D02*
D03*
X168504Y69685D02*
D03*
X171819Y88250D02*
D03*
X61197Y133858D02*
D03*
X124409Y18504D02*
D03*
X112205Y127953D02*
D03*
Y123228D02*
D03*
M02*
