G04 Layer_Color=255*
%FSLAX25Y25*%
%MOIN*%
G70*
G01*
G75*
%ADD10R,0.01969X0.09843*%
%ADD11R,0.07874X0.09843*%
%ADD12R,0.07874X0.11811*%
%ADD13R,0.15748X0.11024*%
%ADD14R,0.06299X0.02362*%
%ADD15R,0.09488X0.23622*%
%ADD16R,0.08661X0.07874*%
%ADD17R,0.04331X0.05512*%
%ADD18R,0.09449X0.08661*%
%ADD19R,0.06890X0.05512*%
%ADD20R,0.05906X0.02165*%
%ADD21R,0.02165X0.05906*%
%ADD22R,0.03543X0.04724*%
%ADD23R,0.04724X0.03543*%
%ADD24R,0.07874X0.08661*%
%ADD27C,0.03543*%
%ADD28R,0.05906X0.05906*%
%ADD29C,0.05906*%
%ADD30O,0.03937X0.02362*%
D10*
X61811Y147835D02*
D03*
X64961D02*
D03*
X68110D02*
D03*
X71260D02*
D03*
X74410D02*
D03*
D11*
X50787D02*
D03*
X85433D02*
D03*
D12*
X50787Y166535D02*
D03*
X85433D02*
D03*
D13*
X82433Y117000D02*
D03*
X59205D02*
D03*
D14*
X121047Y124500D02*
D03*
Y129500D02*
D03*
Y134500D02*
D03*
Y139500D02*
D03*
X99591Y124500D02*
D03*
Y129500D02*
D03*
Y134500D02*
D03*
Y139500D02*
D03*
D15*
X110319Y132000D02*
D03*
D16*
X153319Y157799D02*
D03*
Y145201D02*
D03*
X136819Y157799D02*
D03*
Y145201D02*
D03*
D17*
X116366Y149500D02*
D03*
X122272D02*
D03*
X105772Y149500D02*
D03*
X99866D02*
D03*
D18*
X159319Y78732D02*
D03*
Y95268D02*
D03*
D19*
X142539Y25000D02*
D03*
X170098D02*
D03*
D20*
X95378Y88248D02*
D03*
Y85098D02*
D03*
Y81949D02*
D03*
Y78799D02*
D03*
Y75650D02*
D03*
Y72500D02*
D03*
Y69350D02*
D03*
Y66201D02*
D03*
Y63051D02*
D03*
Y59902D02*
D03*
Y56752D02*
D03*
X140260D02*
D03*
Y59902D02*
D03*
Y63051D02*
D03*
Y66201D02*
D03*
Y69350D02*
D03*
Y72500D02*
D03*
Y75650D02*
D03*
Y78799D02*
D03*
Y81949D02*
D03*
Y85098D02*
D03*
Y88248D02*
D03*
D21*
X102071Y50059D02*
D03*
X105220D02*
D03*
X108370D02*
D03*
X111520D02*
D03*
X114669D02*
D03*
X117819D02*
D03*
X120968D02*
D03*
X124118D02*
D03*
X127268D02*
D03*
X130417D02*
D03*
X133567D02*
D03*
Y94941D02*
D03*
X130417D02*
D03*
X127268D02*
D03*
X124118D02*
D03*
X120968D02*
D03*
X117819D02*
D03*
X114669D02*
D03*
X111520D02*
D03*
X108370D02*
D03*
X105220D02*
D03*
X102071D02*
D03*
D22*
X124319Y29756D02*
D03*
Y22276D02*
D03*
X132319Y22244D02*
D03*
Y29724D02*
D03*
X116319Y112756D02*
D03*
Y105276D02*
D03*
X106819Y21744D02*
D03*
Y29224D02*
D03*
X171819Y84256D02*
D03*
Y76776D02*
D03*
Y92244D02*
D03*
Y99724D02*
D03*
X115819Y37000D02*
D03*
Y29520D02*
D03*
X97819Y21744D02*
D03*
Y29224D02*
D03*
X88819D02*
D03*
Y21744D02*
D03*
D23*
X168575Y68000D02*
D03*
X161094D02*
D03*
X162075Y105500D02*
D03*
X154595D02*
D03*
X162075Y113500D02*
D03*
X154595D02*
D03*
D24*
X65520Y69500D02*
D03*
X78118D02*
D03*
D27*
X76772Y158071D02*
D03*
X59449D02*
D03*
D28*
X18819Y8500D02*
D03*
X198819D02*
D03*
D29*
X8819D02*
D03*
X18819Y18500D02*
D03*
X8819D02*
D03*
X18819Y28500D02*
D03*
X8819D02*
D03*
X18819Y38500D02*
D03*
X8819D02*
D03*
X18819Y48500D02*
D03*
X8819D02*
D03*
X18819Y58500D02*
D03*
X8819D02*
D03*
X18819Y68500D02*
D03*
X8819D02*
D03*
X18819Y78500D02*
D03*
X8819D02*
D03*
X18819Y88500D02*
D03*
X8819D02*
D03*
X18819Y98500D02*
D03*
X8819D02*
D03*
X18819Y108500D02*
D03*
X8819D02*
D03*
X18819Y118500D02*
D03*
X8819D02*
D03*
X18819Y128500D02*
D03*
X8819D02*
D03*
X18819Y138500D02*
D03*
X8819D02*
D03*
X18819Y148500D02*
D03*
X8819D02*
D03*
X18819Y158500D02*
D03*
X8819D02*
D03*
X18819Y168500D02*
D03*
X8819D02*
D03*
X188819Y8500D02*
D03*
X198819Y18500D02*
D03*
X188819D02*
D03*
X198819Y28500D02*
D03*
X188819D02*
D03*
X198819Y38500D02*
D03*
X188819D02*
D03*
X198819Y48500D02*
D03*
X188819D02*
D03*
X198819Y58500D02*
D03*
X188819D02*
D03*
X198819Y68500D02*
D03*
X188819D02*
D03*
X198819Y78500D02*
D03*
X188819D02*
D03*
X198819Y88500D02*
D03*
X188819D02*
D03*
X198819Y98500D02*
D03*
X188819D02*
D03*
X198819Y108500D02*
D03*
X188819D02*
D03*
X198819Y118500D02*
D03*
X188819D02*
D03*
X198819Y128500D02*
D03*
X188819D02*
D03*
X198819Y138500D02*
D03*
X188819D02*
D03*
X198819Y148500D02*
D03*
X188819D02*
D03*
X198819Y158500D02*
D03*
X188819D02*
D03*
X198819Y168500D02*
D03*
X188819D02*
D03*
D30*
X143319Y108937D02*
D03*
Y105000D02*
D03*
M02*
