G04 Layer_Color=8388736*
%FSLAX25Y25*%
%MOIN*%
G70*
G01*
G75*
%ADD37R,0.02769X0.10642*%
%ADD38R,0.08674X0.10642*%
%ADD39R,0.08674X0.12611*%
%ADD40R,0.16548X0.11824*%
%ADD41R,0.07099X0.03162*%
%ADD42R,0.10288X0.24422*%
%ADD43R,0.09461X0.08674*%
%ADD44R,0.05131X0.06312*%
%ADD45R,0.10249X0.09461*%
%ADD46R,0.07690X0.06312*%
%ADD47R,0.06706X0.02965*%
%ADD48R,0.02965X0.06706*%
%ADD49R,0.04343X0.05524*%
%ADD50R,0.05524X0.04343*%
%ADD51R,0.08674X0.09461*%
%ADD52C,0.04343*%
%ADD53R,0.06706X0.06706*%
%ADD54C,0.06706*%
%ADD55O,0.04737X0.03162*%
%ADD56C,0.04737*%
D37*
X61811Y147835D02*
D03*
X64961D02*
D03*
X68110D02*
D03*
X71260D02*
D03*
X74410D02*
D03*
D38*
X50787D02*
D03*
X85433D02*
D03*
D39*
X50787Y166535D02*
D03*
X85433D02*
D03*
D40*
X82433Y117000D02*
D03*
X59205D02*
D03*
D41*
X121047Y124500D02*
D03*
Y129500D02*
D03*
Y134500D02*
D03*
Y139500D02*
D03*
X99591Y124500D02*
D03*
Y129500D02*
D03*
Y134500D02*
D03*
Y139500D02*
D03*
D42*
X110319Y132000D02*
D03*
D43*
X153319Y157799D02*
D03*
Y145201D02*
D03*
X136819Y157799D02*
D03*
Y145201D02*
D03*
D44*
X116366Y149500D02*
D03*
X122272D02*
D03*
X105772Y149500D02*
D03*
X99866D02*
D03*
D45*
X159319Y78732D02*
D03*
Y95268D02*
D03*
D46*
X142539Y25000D02*
D03*
X170098D02*
D03*
D47*
X95378Y88248D02*
D03*
Y85098D02*
D03*
Y81949D02*
D03*
Y78799D02*
D03*
Y75650D02*
D03*
Y72500D02*
D03*
Y69350D02*
D03*
Y66201D02*
D03*
Y63051D02*
D03*
Y59902D02*
D03*
Y56752D02*
D03*
X140260D02*
D03*
Y59902D02*
D03*
Y63051D02*
D03*
Y66201D02*
D03*
Y69350D02*
D03*
Y72500D02*
D03*
Y75650D02*
D03*
Y78799D02*
D03*
Y81949D02*
D03*
Y85098D02*
D03*
Y88248D02*
D03*
D48*
X102071Y50059D02*
D03*
X105220D02*
D03*
X108370D02*
D03*
X111520D02*
D03*
X114669D02*
D03*
X117819D02*
D03*
X120968D02*
D03*
X124118D02*
D03*
X127268D02*
D03*
X130417D02*
D03*
X133567D02*
D03*
Y94941D02*
D03*
X130417D02*
D03*
X127268D02*
D03*
X124118D02*
D03*
X120968D02*
D03*
X117819D02*
D03*
X114669D02*
D03*
X111520D02*
D03*
X108370D02*
D03*
X105220D02*
D03*
X102071D02*
D03*
D49*
X124319Y29756D02*
D03*
Y22276D02*
D03*
X132319Y22244D02*
D03*
Y29724D02*
D03*
X116319Y112756D02*
D03*
Y105276D02*
D03*
X106819Y21744D02*
D03*
Y29224D02*
D03*
X171819Y84256D02*
D03*
Y76776D02*
D03*
Y92244D02*
D03*
Y99724D02*
D03*
X115819Y37000D02*
D03*
Y29520D02*
D03*
X97819Y21744D02*
D03*
Y29224D02*
D03*
X88819D02*
D03*
Y21744D02*
D03*
D50*
X168575Y68000D02*
D03*
X161094D02*
D03*
X162075Y105500D02*
D03*
X154595D02*
D03*
X162075Y113500D02*
D03*
X154595D02*
D03*
D51*
X65520Y69500D02*
D03*
X78118D02*
D03*
D52*
X76772Y158071D02*
D03*
X59449D02*
D03*
D53*
X18819Y8500D02*
D03*
X198819D02*
D03*
D54*
X8819D02*
D03*
X18819Y18500D02*
D03*
X8819D02*
D03*
X18819Y28500D02*
D03*
X8819D02*
D03*
X18819Y38500D02*
D03*
X8819D02*
D03*
X18819Y48500D02*
D03*
X8819D02*
D03*
X18819Y58500D02*
D03*
X8819D02*
D03*
X18819Y68500D02*
D03*
X8819D02*
D03*
X18819Y78500D02*
D03*
X8819D02*
D03*
X18819Y88500D02*
D03*
X8819D02*
D03*
X18819Y98500D02*
D03*
X8819D02*
D03*
X18819Y108500D02*
D03*
X8819D02*
D03*
X18819Y118500D02*
D03*
X8819D02*
D03*
X18819Y128500D02*
D03*
X8819D02*
D03*
X18819Y138500D02*
D03*
X8819D02*
D03*
X18819Y148500D02*
D03*
X8819D02*
D03*
X18819Y158500D02*
D03*
X8819D02*
D03*
X18819Y168500D02*
D03*
X8819D02*
D03*
X188819Y8500D02*
D03*
X198819Y18500D02*
D03*
X188819D02*
D03*
X198819Y28500D02*
D03*
X188819D02*
D03*
X198819Y38500D02*
D03*
X188819D02*
D03*
X198819Y48500D02*
D03*
X188819D02*
D03*
X198819Y58500D02*
D03*
X188819D02*
D03*
X198819Y68500D02*
D03*
X188819D02*
D03*
X198819Y78500D02*
D03*
X188819D02*
D03*
X198819Y88500D02*
D03*
X188819D02*
D03*
X198819Y98500D02*
D03*
X188819D02*
D03*
X198819Y108500D02*
D03*
X188819D02*
D03*
X198819Y118500D02*
D03*
X188819D02*
D03*
X198819Y128500D02*
D03*
X188819D02*
D03*
X198819Y138500D02*
D03*
X188819D02*
D03*
X198819Y148500D02*
D03*
X188819D02*
D03*
X198819Y158500D02*
D03*
X188819D02*
D03*
X198819Y168500D02*
D03*
X188819D02*
D03*
D55*
X143319Y108937D02*
D03*
Y105000D02*
D03*
D56*
X50819Y112500D02*
D03*
Y116500D02*
D03*
Y120500D02*
D03*
X145069Y160500D02*
D03*
Y154500D02*
D03*
X138819Y141000D02*
D03*
X134819D02*
D03*
X103319Y72500D02*
D03*
X114669Y58000D02*
D03*
X132819Y75650D02*
D03*
X117819Y87000D02*
D03*
X112319Y132500D02*
D03*
X107819Y123500D02*
D03*
Y128000D02*
D03*
Y132500D02*
D03*
X112319Y137000D02*
D03*
X107819D02*
D03*
X112319Y141500D02*
D03*
X107819D02*
D03*
X111069Y149500D02*
D03*
X60819Y67000D02*
D03*
Y71500D02*
D03*
X116319Y103000D02*
D03*
X158319Y68000D02*
D03*
X116319Y116500D02*
D03*
X106819Y18000D02*
D03*
X84319Y29224D02*
D03*
X163819Y25000D02*
D03*
X132319Y18000D02*
D03*
X162075Y109500D02*
D03*
X168504Y69685D02*
D03*
X171819Y88250D02*
D03*
X61197Y133858D02*
D03*
X124409Y18504D02*
D03*
X112205Y127953D02*
D03*
Y123228D02*
D03*
M02*
